<svg width="93" height="58" viewBox="0 0 93 58" version="1.1" xmlns="http://www.w3.org/2000/svg" xmlns:xlink="http://www.w3.org/1999/xlink">
<title>Camera</title>
<desc>Created using Figma</desc>
<g id="Canvas" transform="translate(12 -1)">
<g id="Camera">
<g id="Vector 5">
<use xlink:href="#path0_stroke" transform="translate(-11 2)" fill="#F6F4D2"/>
</g>
<g id="Ellipse 5">
<mask id="mask0_outline_ins">
<use xlink:href="#path1_fill" fill="white" transform="translate(16 14)"/>
</mask>
<g mask="url(#mask0_outline_ins)">
<use xlink:href="#path2_stroke_2x" transform="translate(16 14)" fill="#F6F4D2"/>
</g>
</g>
<g id="Vector 6">
<use xlink:href="#path3_stroke" transform="matrix(-1 0 0 1 57 15)" fill="#F6F4D2"/>
</g>
</g>
</g>
<defs>
<path id="path0_stroke" d="M 0 20.8955L -0.705559 20.1869L -1 20.48L -1 20.8955L 0 20.8955ZM 2.68635 18.2209L 2.68635 17.2209L 2.27341 17.2209L 1.98079 17.5122L 2.68635 18.2209ZM 13.5996 18.2209L 13.5996 19.2209L 14.5996 19.2209L 14.5996 18.2209L 13.5996 18.2209ZM 13.5996 13.5403L 13.5996 12.5403L 12.5996 12.5403L 12.5996 13.5403L 13.5996 13.5403ZM 23.1697 13.5403L 23.8266 12.7863L 23.5442 12.5403L 23.1697 12.5403L 23.1697 13.5403ZM 24.5129 14.7104L 23.856 15.4644L 25.5129 16.9079L 25.5129 14.7104L 24.5129 14.7104ZM 24.5129 10.0299L 24.5129 9.02985L 23.5129 9.02985L 23.5129 10.0299L 24.5129 10.0299ZM 37.7768 10.0299L 37.7768 11.0299L 38.4124 11.0299L 38.6822 10.4543L 37.7768 10.0299ZM 42.4779 0L 42.4779 -1L 41.8422 -1L 41.5724 -0.424405L 42.4779 0ZM 59.6033 0L 60.4128 -0.587173L 60.1133 -1L 59.6033 -1L 59.6033 0ZM 61.786 3.00896L 62.7472 2.73312L 62.6987 2.56411L 62.5954 2.42178L 61.786 3.00896ZM 66.1513 18.2209L 65.1901 18.4967L 65.3979 19.2209L 66.1513 19.2209L 66.1513 18.2209ZM 71.8598 18.2209L 71.8598 19.2209L 72.8598 19.2209L 72.8598 18.2209L 71.8598 18.2209ZM 71.8598 13.5403L 71.8598 12.5403L 70.8598 12.5403L 70.8598 13.5403L 71.8598 13.5403ZM 82.941 13.5403L 83.941 13.5403L 83.941 12.5403L 82.941 12.5403L 82.941 13.5403ZM 82.941 18.2209L 81.941 18.2209L 81.941 19.2209L 82.941 19.2209L 82.941 18.2209ZM 88.3137 18.2209L 89.0192 17.5122L 88.7266 17.2209L 88.3137 17.2209L 88.3137 18.2209ZM 91 20.8955L 92 20.8955L 92 20.48L 91.7056 20.1869L 91 20.8955ZM 91 56L 91 57L 92 57L 92 56L 91 56ZM 0 56L -1 56L -1 57L 0 57L 0 56ZM 0.705559 21.6042L 3.39191 18.9295L 1.98079 17.5122L -0.705559 20.1869L 0.705559 21.6042ZM 2.68635 19.2209L 13.5996 19.2209L 13.5996 17.2209L 2.68635 17.2209L 2.68635 19.2209ZM 14.5996 18.2209L 14.5996 13.5403L 12.5996 13.5403L 12.5996 18.2209L 14.5996 18.2209ZM 13.5996 14.5403L 23.1697 14.5403L 23.1697 12.5403L 13.5996 12.5403L 13.5996 14.5403ZM 22.5129 14.2943L 23.856 15.4644L 25.1698 13.9564L 23.8266 12.7863L 22.5129 14.2943ZM 25.5129 14.7104L 25.5129 10.0299L 23.5129 10.0299L 23.5129 14.7104L 25.5129 14.7104ZM 24.5129 11.0299L 37.7768 11.0299L 37.7768 9.02985L 24.5129 9.02985L 24.5129 11.0299ZM 58.7939 0.587173L 60.9765 3.59613L 62.5954 2.42178L 60.4128 -0.587173L 58.7939 0.587173ZM 60.8248 3.28479L 65.1901 18.4967L 67.1125 17.9451L 62.7472 2.73312L 60.8248 3.28479ZM 66.1513 19.2209L 71.8598 19.2209L 71.8598 17.2209L 66.1513 17.2209L 66.1513 19.2209ZM 72.8598 18.2209L 72.8598 13.5403L 70.8598 13.5403L 70.8598 18.2209L 72.8598 18.2209ZM 71.8598 14.5403L 82.941 14.5403L 82.941 12.5403L 71.8598 12.5403L 71.8598 14.5403ZM 81.941 13.5403L 81.941 18.2209L 83.941 18.2209L 83.941 13.5403L 81.941 13.5403ZM 82.941 19.2209L 88.3137 19.2209L 88.3137 17.2209L 82.941 17.2209L 82.941 19.2209ZM 87.6081 18.9295L 90.2944 21.6042L 91.7056 20.1869L 89.0192 17.5122L 87.6081 18.9295ZM 90 20.8955L 90 56L 92 56L 92 20.8955L 90 20.8955ZM 1 56L 1 20.8955L -1 20.8955L -1 56L 1 56ZM 41.5724 -0.424405L 36.8713 9.60545L 38.6822 10.4543L 43.3833 0.424405L 41.5724 -0.424405ZM 42.4779 1L 54.3985 1L 54.3985 -1L 42.4779 -1L 42.4779 1ZM 54.3985 1L 59.6033 1L 59.6033 -1L 54.3985 -1L 54.3985 1ZM 91 55L 54.3985 55L 54.3985 57L 91 57L 91 55ZM 54.3985 55L 0 55L 0 57L 54.3985 57L 54.3985 55Z"/>
<path id="path1_fill" d="M 42 21C 42 32.598 32.598 42 21 42C 9.40202 42 0 32.598 0 21C 0 9.40202 9.40202 0 21 0C 32.598 0 42 9.40202 42 21Z"/>
<path id="path2_stroke_2x" d="M 40 21C 40 31.4934 31.4934 40 21 40L 21 44C 33.7025 44 44 33.7025 44 21L 40 21ZM 21 40C 10.5066 40 2 31.4934 2 21L -2 21C -2 33.7025 8.29745 44 21 44L 21 40ZM 2 21C 2 10.5066 10.5066 2 21 2L 21 -2C 8.29745 -2 -2 8.29745 -2 21L 2 21ZM 21 2C 31.4934 2 40 10.5066 40 21L 44 21C 44 8.29745 33.7025 -2 21 -2L 21 2Z"/>
<path id="path3_stroke" d="M 40.3579 20.1508C 35.3406 15.0081 31.5239 12.3777 28.5992 11.3784C 25.6286 10.3635 23.5441 11.0263 22.1421 12.4633C 20.7881 13.8512 20.1397 15.8921 19.8218 17.5214C 19.6619 18.3431 19.5802 19.093 19.5405 19.6218C 19.5205 19.8891 19.5102 20.1096 19.5052 20.258C 19.5026 20.3335 19.5013 20.3942 19.5007 20.4338C 19.5003 20.4543 19.5002 20.4709 19.5001 20.4813C 19.5 20.4869 19.5 20.4915 19.5 20.4943C 19.5 20.4959 19.5 20.4973 19.5 20.4981C 19.5 20.4986 19.5 20.4991 19.5 20.4993C 19.5 20.4997 19.5 20.5 20 20.5C 20.5 20.5 20.5 20.5002 20.5 20.5002C 20.5 20.5002 20.5 20.5002 20.5 20.5C 20.5 20.4996 20.5 20.4991 20.5 20.4982C 20.5 20.4961 20.5 20.4933 20.5001 20.4891C 20.5001 20.48 20.5003 20.4675 20.5005 20.4498C 20.5011 20.4131 20.5023 20.3612 20.5046 20.2916C 20.5094 20.1496 20.5186 19.9497 20.5377 19.6966C 20.576 19.1843 20.6506 18.4929 20.8032 17.7129C 21.1103 16.1391 21.7119 14.3363 22.8579 13.1617C 23.9559 12.0362 25.6214 11.4178 28.2758 12.3247C 30.9761 13.2473 34.6594 15.7419 39.6421 20.8492L 40.3579 20.1508ZM 20 20.5C 19.5 20.5 19.5 20.4998 19.5 20.4997C 19.5 20.4998 19.5 20.4998 19.5 20.4999C 19.5 20.5003 19.5 20.5007 19.5 20.5015C 19.5 20.5035 19.5 20.506 19.4999 20.51C 19.4999 20.5185 19.4997 20.5302 19.4995 20.5469C 19.4989 20.5817 19.4978 20.6307 19.4954 20.6966C 19.4907 20.8313 19.4815 21.0204 19.4625 21.2605C 19.4242 21.7469 19.35 22.4018 19.1977 23.1417C 18.8916 24.6341 18.2924 26.3416 17.1509 27.4545C 16.0538 28.5242 14.3809 29.1168 11.717 28.251C 9.01386 27.3725 5.33027 24.9987 0.34905 20.142L -0.34905 20.858C 4.66973 25.7513 8.48614 28.2525 11.408 29.2021C 14.3691 30.1645 16.4462 29.5383 17.8491 28.1705C 19.2076 26.8459 19.8584 24.8971 20.1773 23.3427C 20.3375 22.5591 20.4196 21.8429 20.4594 21.3391C 20.4795 21.0841 20.4898 20.8733 20.4948 20.7319C 20.4973 20.6597 20.4987 20.6015 20.4993 20.5637C 20.4996 20.5442 20.4998 20.5282 20.4999 20.5182C 20.5 20.5128 20.5 20.5083 20.5 20.5056C 20.5 20.5041 20.5 20.5027 20.5 20.5019C 20.5 20.5014 20.5 20.501 20.5 20.5007C 20.5 20.5003 20.5 20.5 20 20.5ZM 20 20.5C 20 20 20.0002 20 20.0003 20C 20.0002 20 20.0002 20 20.0001 20C 19.9997 20 19.9993 20 19.9984 20C 19.9963 20 19.9938 20 19.9897 19.9999C 19.9808 19.9999 19.9688 19.9997 19.9516 19.9994C 19.9159 19.9988 19.8656 19.9977 19.7979 19.9953C 19.6597 19.9904 19.4654 19.981 19.219 19.9615C 18.7198 19.9222 18.0473 19.8461 17.2879 19.6899C 15.7564 19.3759 14.0021 18.7611 12.8579 17.5883C 11.757 16.4599 11.1489 14.7402 12.038 12.0062C 12.9399 9.23274 15.3762 5.4554 20.3579 0.349162L 19.6421 -0.349162C 14.6238 4.7946 12.0601 8.70476 11.087 11.6969C 10.1011 14.7285 10.743 16.8526 12.1421 18.2867C 13.4979 19.6764 15.4936 20.3428 17.0871 20.6695C 17.8902 20.8336 18.6239 20.9176 19.1404 20.9584C 19.4018 20.979 19.6177 20.9895 19.7626 20.9947C 19.8365 20.9973 19.8961 20.9987 19.9348 20.9993C 19.9549 20.9996 19.9712 20.9998 19.9815 20.9999C 19.9869 20.9999 19.9916 21 19.9943 21C 19.9959 21 19.9973 21 19.9981 21C 19.9986 21 19.999 21 19.9993 21C 19.9997 21 20 21 20 20.5ZM 20 20.5C 20 21 19.9998 21 19.9998 21C 19.9998 21 19.9998 21 20 21C 20.0004 21 20.0008 21 20.0017 21C 20.0038 21 20.0064 21 20.0105 21.0001C 20.0194 21.0001 20.0315 21.0003 20.0488 21.0005C 20.0846 21.0011 20.1351 21.0022 20.2029 21.0045C 20.3413 21.0091 20.5361 21.0181 20.7829 21.0367C 21.2825 21.0741 21.9564 21.1467 22.7168 21.2954C 24.2516 21.5947 26.0076 22.1807 27.1509 23.2955C 28.2451 24.3623 28.8478 25.9808 27.9644 28.5648C 27.0653 31.1947 24.6332 34.7843 19.6509 39.642L 20.3491 40.358C 25.3668 35.4657 27.9347 31.7428 28.9106 28.8883C 29.9022 25.9879 29.2549 23.9502 27.8491 22.5795C 26.4924 21.2568 24.4984 20.624 22.9082 20.3139C 22.1061 20.158 21.3738 20.0783 20.8577 20.0395C 20.5967 20.02 20.3813 20.0099 20.2365 20.005C 20.1627 20.0026 20.1034 20.0013 20.0648 20.0007C 20.0448 20.0003 20.0285 20.0002 20.0183 20.0001C 20.0129 20 20.0083 20 20.0056 20C 20.004 20 20.0026 20 20.0019 20C 20.0014 20 20.0009 20 20.0007 20C 20.0003 20 20 20 20 20.5Z"/>
</defs>
</svg>
