<svg width="76" height="56" viewBox="0 0 76 56" version="1.1" xmlns="http://www.w3.org/2000/svg" xmlns:xlink="http://www.w3.org/1999/xlink">
<title>console</title>
<desc>Created using Figma</desc>
<g id="Canvas" transform="matrix(0.5 0 0 0.5 37.5 129.5)">
<g id="console">
<g id="Vector 3">
<use xlink:href="#path0_stroke" transform="translate(-73 -257)" fill="#F6F4D2"/>
</g>
<g id="Vector 4">
<use xlink:href="#path1_stroke" transform="translate(-60 -237)" fill="url(#paint1_linear)"/>
</g>
</g>
</g>
<defs>
<linearGradient id="paint1_linear" x1="0" y1="0" x2="1" y2="0" gradientUnits="userSpaceOnUse" gradientTransform="matrix(4.99044e-15 59.5 -81.5 3.64332e-15 81.5 0)">
<stop offset="0" stop-color="#F6F4D2"/>
<stop offset="1" stop-color="#F6F4D2" stop-opacity="0.8"/>
</linearGradient>
<path id="path0_stroke" d="M 0 0L 0 -2L -2 -2L -2 0L 0 0ZM 0 107L -2 107L -2 109L 0 109L 0 107ZM 148 107L 148 109L 150 109L 150 107L 148 107ZM 148 0L 150 0L 150 -2L 148 -2L 148 0ZM -2 0L -2 107L 2 107L 2 0L -2 0ZM 0 109L 148 109L 148 105L 0 105L 0 109ZM 150 107L 150 0L 146 0L 146 107L 150 107ZM 148 -2L 0 -2L 0 2L 148 2L 148 -2Z"/>
<path id="path1_stroke" d="M 0 1L 81.5 1L 81.5 -1L 0 -1L 0 1ZM 0 29.5L 45 29.5L 45 27.5L 0 27.5L 0 29.5ZM 0 56L 20.5 56L 20.5 54L 0 54L 0 56Z"/>
</defs>
</svg>
