<svg width="35" height="64" viewBox="0 0 35 64" version="1.1" xmlns="http://www.w3.org/2000/svg" xmlns:xlink="http://www.w3.org/1999/xlink">
<title>dingle</title>
<desc>Created using Figma</desc>
<g id="Canvas" transform="matrix(0.5 0 0 0.5 85.5 132.5)">
<g id="dingle">
<g id="Exclude">
<mask id="mask0_outline_ins">
<use xlink:href="#path0_fill" fill="white" transform="translate(-171 -265)"/>
</mask>
<g mask="url(#mask0_outline_ins)">
<use xlink:href="#path1_stroke_2x" transform="translate(-171 -265)" fill="#F6F4D2"/>
</g>
</g>
</g>
</g>
<defs>
<path id="path0_fill" fill-rule="evenodd" d="M 0 30.8022C 0 13.7906 15.4462 0 34.5 0C 53.5538 0 69 13.7906 69 30.8022C 69 47.8138 34.5 127 34.5 127C 34.5 127 0 47.8138 0 30.8022ZM 34.5 44.0826C 41.8284 44.0826 47.7692 38.2087 47.7692 30.9628C 47.7692 23.7169 41.8284 17.843 34.5 17.843C 27.1716 17.843 21.2308 23.7169 21.2308 30.9628C 21.2308 38.2087 27.1716 44.0826 34.5 44.0826Z"/>
<path id="path1_stroke_2x" d="M 34.5 127L 31.7497 128.198L 34.5 134.511L 37.2503 128.198L 34.5 127ZM 34.5 -3C 14.1182 -3 -3 11.823 -3 30.8022L 3 30.8022C 3 15.7582 16.7742 3 34.5 3L 34.5 -3ZM 72 30.8022C 72 11.823 54.8818 -3 34.5 -3L 34.5 3C 52.2258 3 66 15.7583 66 30.8022L 72 30.8022ZM 34.5 127C 37.2503 128.198 37.2505 128.198 37.2508 128.197C 37.2511 128.197 37.2515 128.195 37.2521 128.194C 37.2531 128.192 37.2548 128.188 37.257 128.183C 37.2612 128.173 37.2676 128.158 37.2761 128.139C 37.2928 128.101 37.3179 128.043 37.3508 127.967C 37.4163 127.816 37.514 127.591 37.6409 127.298C 37.8941 126.712 38.2665 125.849 38.7393 124.747C 39.684 122.546 41.0359 119.376 42.656 115.525C 45.8939 107.827 50.2196 97.3643 54.5417 86.3788C 58.8628 75.3951 63.2046 63.8225 66.4587 53.9488C 69.6575 44.2407 72 35.6262 72 30.8022L 66 30.8022C 66 34.4841 64.03 42.1472 60.7601 52.0711C 57.5454 61.8293 53.2622 73.2428 48.9583 84.1821C 44.6554 95.1196 40.3561 105.517 37.1253 113.198C 35.511 117.036 34.1676 120.186 33.2255 122.381C 32.755 123.478 32.3862 124.333 32.134 124.915C 32.0082 125.206 31.9122 125.428 31.8472 125.578C 31.8148 125.652 31.7904 125.708 31.774 125.746C 31.7658 125.765 31.7597 125.779 31.7556 125.788C 31.7536 125.793 31.7521 125.796 31.7511 125.799C 31.7506 125.8 31.7502 125.8 31.75 125.801C 31.7498 125.802 31.7497 125.802 34.5 127ZM -3 30.8022C -3 35.6262 -0.657507 44.2407 2.54132 53.9488C 5.79537 63.8225 10.1372 75.3951 14.4583 86.3788C 18.7804 97.3643 23.1061 107.827 26.344 115.525C 27.9641 119.376 29.316 122.546 30.2607 124.747C 30.7335 125.849 31.1059 126.712 31.3591 127.298C 31.486 127.591 31.5837 127.816 31.6492 127.967C 31.6821 128.043 31.7072 128.101 31.7239 128.139C 31.7324 128.158 31.7388 128.173 31.743 128.183C 31.7452 128.188 31.7469 128.192 31.7479 128.194C 31.7485 128.195 31.7489 128.197 31.7492 128.197C 31.7495 128.198 31.7497 128.198 34.5 127C 37.2503 125.802 37.2502 125.802 37.25 125.801C 37.2498 125.8 37.2494 125.8 37.2489 125.799C 37.2479 125.796 37.2464 125.793 37.2444 125.788C 37.2403 125.779 37.2342 125.765 37.226 125.746C 37.2096 125.708 37.1852 125.652 37.1528 125.578C 37.0878 125.428 36.9918 125.206 36.866 124.915C 36.6138 124.333 36.245 123.478 35.7745 122.381C 34.8324 120.186 33.489 117.036 31.8747 113.198C 28.6439 105.517 24.3446 95.1196 20.0417 84.1821C 15.7378 73.2428 11.4546 61.8293 8.23993 52.0711C 4.97001 42.1472 3 34.4841 3 30.8022L -3 30.8022ZM 44.7692 30.9628C 44.7692 36.5199 40.2037 41.0826 34.5 41.0826L 34.5 47.0826C 43.4531 47.0826 50.7692 39.8975 50.7692 30.9628L 44.7692 30.9628ZM 34.5 20.843C 40.2037 20.843 44.7692 25.4057 44.7692 30.9628L 50.7692 30.9628C 50.7692 22.0281 43.4531 14.843 34.5 14.843L 34.5 20.843ZM 24.2308 30.9628C 24.2308 25.4057 28.7964 20.843 34.5 20.843L 34.5 14.843C 25.5469 14.843 18.2308 22.0281 18.2308 30.9628L 24.2308 30.9628ZM 34.5 41.0826C 28.7964 41.0826 24.2308 36.5199 24.2308 30.9628L 18.2308 30.9628C 18.2308 39.8975 25.5469 47.0826 34.5 47.0826L 34.5 41.0826Z"/>
</defs>
</svg>
