<svg width="42" height="49" viewBox="0 0 42 49" version="1.1" xmlns="http://www.w3.org/2000/svg" xmlns:xlink="http://www.w3.org/1999/xlink">
<title>Disks</title>
<desc>Created using Figma</desc>
<g id="Canvas" transform="matrix(0.5 0 0 0.5 3.5 56)">
<g id="Disks">
<g id="Ellipse 4">
<use xlink:href="#path0_stroke" transform="translate(-5 -110)" fill="#F6F4D2"/>
</g>
</g>
</g>
<defs>
<path id="path0_stroke" d="M 78.5 8.5C 78.5 8.57443 78.4713 8.79412 78.1069 9.17258C 77.6877 9.61954 77.1089 10.0067 76.1832 10.4682C 74.2701 11.4349 71.5234 12.2903 67.9725 13.0432C 60.8184 14.5659 50.9746 15.5017 40 15.5L 40 18.5C 51.1168 18.4983 61.273 17.5313 68.5961 15.9776C 72.2837 15.1923 75.3949 14.2161 77.53 13.1489C 78.6284 12.5935 79.6213 11.9132 80.2678 11.2535C 80.969 10.5253 81.5 9.59917 81.5 8.5L 78.5 8.5ZM 40 15.5C 29.0254 15.5017 19.1816 14.5659 12.0275 13.0432C 8.47657 12.2903 5.72988 11.4349 3.8168 10.4682C 2.89106 10.0067 2.31233 9.61954 1.89314 9.17258C 1.52869 8.79412 1.5 8.57443 1.5 8.5L -1.5 8.5C -1.5 9.59917 -0.96905 10.5253 -0.267823 11.2535C 0.378657 11.9132 1.37162 12.5935 2.47 13.1489C 4.60513 14.2161 7.71631 15.1923 11.4039 15.9776C 18.727 17.5313 28.8832 18.4983 40 18.5L 40 15.5ZM 1.5 8.5C 1.5 8.42557 1.52869 8.20588 1.89314 7.82742C 2.31233 7.38046 2.89106 6.99326 3.8168 6.53176C 5.72988 5.56508 8.47657 4.70973 12.0275 3.95683C 19.1816 2.43407 29.0254 1.49831 40 1.5L 40 -1.5C 28.8832 -1.49831 18.727 -0.531283 11.4039 1.02235C 7.71631 1.80766 4.60513 2.7839 2.47 3.85107C 1.37162 4.4065 0.378657 5.08679 -0.267823 5.74649C -0.96905 6.47469 -1.5 7.40083 -1.5 8.5L 1.5 8.5ZM 40 1.5C 50.9746 1.49831 60.8184 2.43407 67.9725 3.95683C 71.5234 4.70973 74.2701 5.56508 76.1832 6.53176C 77.1089 6.99326 77.6877 7.38046 78.1069 7.82742C 78.4713 8.20588 78.5 8.42557 78.5 8.5L 81.5 8.5C 81.5 7.40083 80.969 6.47469 80.2678 5.74649C 79.6213 5.08679 78.6284 4.4065 77.53 3.85107C 75.3949 2.7839 72.2837 1.80766 68.5961 1.02235C 61.273 -0.531283 51.1168 -1.49831 40 -1.5L 40 1.5ZM 78.5 86C 78.5 86.0744 78.4713 86.2941 78.1069 86.6726C 77.6877 87.1195 77.1089 87.5067 76.1832 87.9682C 74.2701 88.9349 71.5234 89.7903 67.9725 90.5432C 60.8184 92.0659 50.9746 93.0017 40 93L 40 96C 51.1168 95.9983 61.273 95.0313 68.5961 93.4776C 72.2837 92.6923 75.3949 91.7161 77.53 90.6489C 78.6284 90.0935 79.6213 89.4132 80.2678 88.7535C 80.969 88.0253 81.5 87.0992 81.5 86L 78.5 86ZM 40 93C 29.0254 93.0017 19.1816 92.0659 12.0275 90.5432C 8.47657 89.7903 5.72988 88.9349 3.8168 87.9682C 2.89106 87.5067 2.31233 87.1195 1.89314 86.6726C 1.52869 86.2941 1.5 86.0744 1.5 86L -1.5 86C -1.5 87.0992 -0.96905 88.0253 -0.267823 88.7535C 0.378657 89.4132 1.37162 90.0935 2.47 90.6489C 4.60513 91.7161 7.71631 92.6923 11.4039 93.4776C 18.727 95.0313 28.8832 95.9983 40 96L 40 93ZM 7.10543e-15 8.5C -1.5 8.5 -1.5 8.50017 -1.5 8.5005C -1.5 8.50084 -1.5 8.50134 -1.5 8.50201C -1.5 8.50334 -1.5 8.50535 -1.5 8.50802C -1.5 8.51335 -1.5 8.52134 -1.5 8.53196C -1.5 8.55319 -1.5 8.58494 -1.5 8.627C -1.5 8.71112 -1.5 8.83646 -1.5 9.00138C -1.5 9.33123 -1.5 9.81937 -1.5 10.4526C -1.5 11.719 -1.5 13.5656 -1.5 15.8865C -1.5 20.5283 -1.5 27.0672 -1.5 34.6556C -1.5 49.8325 -1.5 69.2075 -1.5 86L 1.5 86C 1.5 69.2075 1.5 49.8325 1.5 34.6556C 1.5 27.0672 1.5 20.5283 1.5 15.8865C 1.5 13.5656 1.5 11.719 1.5 10.4526C 1.5 9.81937 1.5 9.33123 1.5 9.00138C 1.5 8.83646 1.5 8.71112 1.5 8.627C 1.5 8.58494 1.5 8.55319 1.5 8.53196C 1.5 8.52134 1.5 8.51335 1.5 8.50802C 1.5 8.50535 1.5 8.50334 1.5 8.50201C 1.5 8.50134 1.5 8.50084 1.5 8.5005C 1.5 8.50017 1.5 8.5 7.10543e-15 8.5ZM 78.5 8.5L 78.5 86L 81.5 86L 81.5 8.5L 78.5 8.5ZM 78.5 56.5C 78.5 56.6246 78.4425 56.9117 78.0665 57.3742C 77.654 57.8917 77.084 58.3691 76.1969 58.9405C 74.3713 60.1298 71.755 61.2731 68.3407 62.3275C 61.4534 64.4632 51.9256 66.0048 41 66L 41 69C 52.1658 68.9952 62.138 67.384 69.2278 65.1933C 72.8021 64.0845 75.7937 62.7712 77.8288 61.4579C 78.872 60.778 79.7956 59.9926 80.3941 59.2668C 81.0291 58.4858 81.5 57.549 81.5 56.5L 78.5 56.5ZM 41 66C 30.0686 66.0044 20.0271 64.4588 12.632 62.3193C 8.96007 61.2606 6.08078 60.1051 4.06267 58.9078C 3.07958 58.3301 2.43314 57.8399 1.96998 57.3164C 1.5396 56.8387 1.5 56.5706 1.5 56.5L -1.5 56.5C -1.5 57.603 -0.948707 58.5588 -0.258727 59.3246C 0.398468 60.0444 1.40185 60.8171 2.53663 61.4906C 4.75424 62.7959 7.98281 64.097 11.7994 65.2015C 19.3815 67.3885 29.84 68.9956 41 69L 41 66ZM 73.5 46C 73.5 46.4674 73.2128 47.19 71.9374 48.0773C 70.6776 48.9538 68.6859 49.8137 65.8959 50.5616C 60.2673 52.0747 51.9621 53.0023 41 53L 41 56C 52.1293 55.9977 60.8241 55.0225 66.6726 53.4593C 69.6212 52.6689 71.9873 51.6972 73.6508 50.5399C 75.2987 49.3934 76.5 47.8798 76.5 46L 73.5 46ZM 41 53C 30.0333 53.0021 21.2133 52.0711 15.0748 50.554C 12.0414 49.8088 9.82881 48.9792 8.30572 48.0318C 6.78338 47.0931 6.5 46.3668 6.5 46L 3.5 46C 3.5 47.9804 4.9552 49.4903 6.73108 50.5853C 8.50621 51.6719 11.1515 52.6738 14.3566 53.4668C 20.6953 55.0261 29.8754 55.9979 41 56L 41 53ZM 73.5 35C 73.5 35.4674 73.2128 36.19 71.9374 37.0773C 70.6776 37.9538 68.6859 38.8137 65.8959 39.5616C 60.2673 41.0747 51.9621 42.0023 41 42L 41 45C 52.1293 44.9977 60.8241 44.0225 66.6726 42.4593C 69.6212 41.6689 71.9873 40.6972 73.6508 39.5399C 75.2987 38.3934 76.5 36.8798 76.5 35L 73.5 35ZM 41 42C 30.0333 42.0021 21.2133 41.0711 15.0748 39.554C 12.0414 38.8088 9.82881 37.9792 8.30572 37.0318C 6.78338 36.0931 6.5 35.3668 6.5 35L 3.5 35C 3.5 36.9804 4.9552 38.4903 6.73108 39.5853C 8.50621 40.6719 11.1515 41.6738 14.3566 42.4668C 20.6953 44.0261 29.8754 44.9979 41 45L 41 42ZM 73.5 22C 73.5 22.4674 73.2128 23.19 71.9374 24.0773C 70.6776 24.9538 68.6859 25.8137 65.8959 26.5616C 60.2673 28.0747 51.9621 29.0023 41 29L 41 32C 52.1293 31.9977 60.8241 31.0225 66.6726 29.4593C 69.6212 28.6689 71.9873 27.6972 73.6508 26.5399C 75.2987 25.3934 76.5 23.8798 76.5 22L 73.5 22ZM 41 29C 30.0333 29.0021 21.2133 28.0711 15.0748 26.554C 12.0414 25.8088 9.82881 24.9792 8.30572 24.0318C 6.78338 23.0931 6.5 22.3668 6.5 22L 3.5 22C 3.5 23.9804 4.9552 25.4903 6.73108 26.5853C 8.50621 27.6719 11.1515 28.6738 14.3566 29.4668C 20.6953 31.0261 29.8754 31.9979 41 32L 41 29Z"/>
</defs>
</svg>
