<svg width="93" height="109" viewBox="0 0 93 109" version="1.1" xmlns="http://www.w3.org/2000/svg" xmlns:xlink="http://www.w3.org/1999/xlink">
<title>file2</title>
<desc>Created using Figma</desc>
<g id="Canvas" transform="translate(437 -49)">
<g id="file2">
<g id="Vector 7">
<use xlink:href="#path0_stroke" transform="translate(-435 51)" fill="#F6F4D2"/>
</g>
<g id="Vector 8">
<use xlink:href="#path1_stroke" transform="translate(-419 100)" fill="#F6F4D2"/>
</g>
</g>
</g>
<defs>
<path id="path0_stroke" d="M 0 0.277108L -0.0533907 -1.22194L -1.5 -1.17042L -1.5 0.277108L 0 0.277108ZM 0 105L -1.5 105L -1.5 106.5L 0 106.5L 0 105ZM 83.771 105L 83.771 106.5L 84.2267 106.5L 84.6054 106.247L 83.771 105ZM 83.771 24.1165L 85.271 24.1165L 85.271 23.7627L 85.113 23.4462L 83.771 24.1165ZM 71.8645 0.277108L 73.077 -0.606019L 72.63 -1.2196L 71.871 -1.22288L 71.8645 0.277108ZM 89 101.5L 89.8344 102.747L 90.5051 102.298L 90.5 101.49L 89 101.5ZM 88.5 23.1165L 90 23.1069L 89.9969 22.6238L 89.7125 22.2333L 88.5 23.1165ZM 7.78037 0L 7.78686 -1.49999L 7.75691 -1.50012L 7.72698 -1.49905L 7.78037 0ZM -1.5 0.277108L -1.5 105L 1.5 105L 1.5 0.277108L -1.5 0.277108ZM 0 106.5L 83.771 106.5L 83.771 103.5L 0 103.5L 0 106.5ZM 85.271 105L 85.271 24.1165L 82.271 24.1165L 82.271 105L 85.271 105ZM 85.113 23.4462L 73.2064 -0.39312L 70.5226 0.947337L 82.4291 24.7867L 85.113 23.4462ZM 71.8645 -1.22289L 0 -1.22289L 0 1.77711L 71.8645 1.77711L 71.8645 -1.22289ZM 84.6054 106.247L 89.8344 102.747L 88.1656 100.253L 82.9367 103.753L 84.6054 106.247ZM 90.5 101.49L 90 23.1069L 87 23.126L 87.5 101.51L 90.5 101.49ZM 89.7125 22.2333L 73.077 -0.606019L 70.652 1.16024L 87.2875 23.9996L 89.7125 22.2333ZM 71.871 -1.22288L 7.78686 -1.49999L 7.77389 1.49999L 71.858 1.77709L 71.871 -1.22288ZM 7.72698 -1.49905L -0.0533907 -1.22194L 0.0533907 1.77616L 7.83376 1.49905L 7.72698 -1.49905Z"/>
<path id="path1_stroke" d="M 0 43.2189L 52.729 43.2189L 52.729 40.2189L 0 40.2189L 0 43.2189ZM 0 22.7851L 52.729 22.7851L 52.729 19.7851L 0 19.7851L 0 22.7851ZM 0 1.5L 52.729 1.5L 52.729 -1.5L 0 -1.5L 0 1.5Z"/>
</defs>
</svg>
