<svg width="530" height="443" viewBox="0 0 530 443" version="1.1" xmlns="http://www.w3.org/2000/svg" xmlns:xlink="http://www.w3.org/1999/xlink">
<title>icons</title>
<desc>Created using Figma</desc>
<g id="Canvas" transform="translate(501 285)">
<clipPath id="clip-0" clip-rule="evenodd">
<path d="M -501 -285L 29 -285L 29 158L -501 158L -501 -285Z" fill="#FFFFFF"/>
</clipPath>
<g id="icons" clip-path="url(#clip-0)">
<path d="M -501 -285L 29 -285L 29 158L -501 158L -501 -285Z" fill="#282A36"/>
<g id="file">
<g id="Vector">
<use xlink:href="#path0_stroke" transform="translate(-500 -277)" fill="#F6F4D2"/>
</g>
<g id="Vector 2">
<use xlink:href="#path1_stroke" transform="translate(-484.495 -243.924)" fill="#F6F4D2"/>
</g>
<g id="Vector 2">
<use xlink:href="#path1_stroke" transform="translate(-484.495 -176.055)" fill="#F6F4D2"/>
</g>
<g id="Vector 2">
<use xlink:href="#path1_stroke" transform="translate(-484.495 -210.419)" fill="#F6F4D2"/>
</g>
</g>
<g id="star">
<g id="Polygon">
<mask id="mask0_outline_ins">
<use xlink:href="#path2_fill" fill="white" transform="translate(-389 -277)"/>
</mask>
<g mask="url(#mask0_outline_ins)">
<use xlink:href="#path3_stroke_2x" transform="translate(-389 -277)" fill="#F6F4D2"/>
</g>
</g>
<g id="Ellipse">
<mask id="mask1_outline_out">
<rect id="mask1_outline_inv" fill="white" x="-4" y="-4" width="49" height="49" transform="translate(-339.785 -213)"/>
<use xlink:href="#path4_fill" fill="black" transform="translate(-339.785 -213)"/>
</mask>
<g mask="url(#mask1_outline_out)">
<use xlink:href="#path5_stroke_2x" transform="translate(-339.785 -213)" fill="#F6F4D2"/>
</g>
</g>
</g>
<g id="dingle">
<g id="Exclude">
<mask id="mask2_outline_ins">
<use xlink:href="#path6_fill" fill="white" transform="translate(-236 -276)"/>
</mask>
<g mask="url(#mask2_outline_ins)">
<use xlink:href="#path7_stroke_2x" transform="translate(-236 -276)" fill="#F6F4D2"/>
</g>
</g>
</g>
<g id="console">
<g id="Vector 3">
<use xlink:href="#path8_stroke" transform="translate(-133 -268)" fill="#F6F4D2"/>
</g>
<g id="Vector 4">
<use xlink:href="#path9_stroke" transform="translate(-120 -248)" fill="url(#paint8_linear)"/>
</g>
</g>
<g id="zaafc">
<g id="zaafc">
<mask id="mask3_outline_out">
<rect id="mask3_outline_inv" fill="white" x="2" y="17" width="367" height="109" transform="translate(-482 -126)"/>
<use xlink:href="#path10_fill" fill="black" transform="translate(-482 -126)"/>
</mask>
<g mask="url(#mask3_outline_out)">
<use xlink:href="#path11_stroke_2x" transform="translate(-482 -126)" fill="#F6F4D2"/>
</g>
</g>
<g id="Rectangle">
<mask id="mask4_outline_ins">
<use xlink:href="#path12_fill" fill="white" transform="translate(-501 -126)"/>
</mask>
<g mask="url(#mask4_outline_ins)">
<use xlink:href="#path13_stroke_2x" transform="translate(-501 -126)" fill="#F6F4D2"/>
</g>
</g>
</g>
<g id="Disks">
<g id="Ellipse 4">
<use xlink:href="#path14_stroke" transform="translate(-70 -120)" fill="#F6F4D2"/>
</g>
</g>
<g id="Camera">
<g id="Vector 5">
<use xlink:href="#path15_stroke" transform="translate(-76 -9)" fill="#F6F4D2"/>
</g>
<g id="Ellipse 5">
<mask id="mask5_outline_ins">
<use xlink:href="#path16_fill" fill="white" transform="translate(-49 3)"/>
</mask>
<g mask="url(#mask5_outline_ins)">
<use xlink:href="#path17_stroke_2x" transform="translate(-49 3)" fill="#F6F4D2"/>
</g>
</g>
<g id="Vector 6">
<use xlink:href="#path18_stroke" transform="matrix(-1 0 0 1 -8 4)" fill="#F6F4D2"/>
</g>
</g>
<g id="file2">
<g id="Vector 7">
<use xlink:href="#path19_stroke" transform="translate(-500 40)" fill="#F6F4D2"/>
</g>
<g id="Vector 8">
<use xlink:href="#path20_stroke" transform="translate(-484 89)" fill="#F6F4D2"/>
</g>
</g>
<g id="Vector 9">
<use xlink:href="#path21_stroke" transform="matrix(6.12323e-17 -1 -1 -6.12323e-17 -332 145)" fill="#F6F4D2"/>
</g>
<g id="Vector 10">
<use xlink:href="#path22_stroke" transform="translate(-310 51)" fill="#F6F4D2"/>
</g>
<g id="Vector 11">
<use xlink:href="#path23_stroke" transform="translate(-208 62)" fill="#F6F4D2"/>
</g>
<g id="Vector 12">
<use xlink:href="#path24_stroke" transform="translate(-94 64)" fill="#F6F4D2"/>
</g>
</g>
</g>
<defs>
<linearGradient id="paint8_linear" x1="0" y1="0" x2="1" y2="0" gradientUnits="userSpaceOnUse" gradientTransform="matrix(4.99044e-15 59.5 -81.5 3.64332e-15 81.5 0)">
<stop offset="0" stop-color="#F6F4D2"/>
<stop offset="1" stop-color="#F6F4D2" stop-opacity="0.8"/>
</linearGradient>
<path id="path0_stroke" d="M 0 22.3368L -0.81596 21.0781L -1.5 21.5216L -1.5 22.3368L 0 22.3368ZM 0 125L -1.5 125L -1.5 126.5L 0 126.5L 0 125ZM 87 125L 87 126.5L 88.5 126.5L 88.5 125L 87 125ZM 87 0L 88.5 0L 88.5 -1.5L 87 -1.5L 87 0ZM 34.4554 0L 34.4554 -1.5L 34.0118 -1.5L 33.6395 -1.25865L 34.4554 0ZM -1.5 22.3368L -1.5 125L 1.5 125L 1.5 22.3368L -1.5 22.3368ZM 0 126.5L 87 126.5L 87 123.5L 0 123.5L 0 126.5ZM 88.5 125L 88.5 0L 85.5 0L 85.5 125L 88.5 125ZM 87 -1.5L 34.4554 -1.5L 34.4554 1.5L 87 1.5L 87 -1.5ZM 33.6395 -1.25865L -0.81596 21.0781L 0.81596 23.5954L 35.2714 1.25865L 33.6395 -1.25865Z"/>
<path id="path1_stroke" d="M 0 2L 55.9901 2L 55.9901 -2L 0 -2L 0 2Z"/>
<path id="path2_fill" d="M 69.715 0L 139.43 126.75L 0 126.75L 69.715 0Z"/>
<path id="path3_stroke_2x" d="M 1.00458 128.479L 52.2196 98.7294L 50.2105 95.2706L -1.00458 125.021L 1.00458 128.479ZM 140.435 125.021L 89.2196 95.2706L 87.2105 98.7294L 138.426 128.479L 140.435 125.021ZM 67.715 0L 67.715 62.5L 71.715 62.5L 71.715 0L 67.715 0ZM 69.715 0L 73.2199 -1.92773L 69.715 -8.29992L 66.2102 -1.92773L 69.715 0ZM 139.43 126.75L 139.43 130.75L 146.195 130.75L 142.935 124.822L 139.43 126.75ZM 0 126.75L -3.50483 124.822L -6.7652 130.75L 0 130.75L 0 126.75ZM 66.2102 1.92773L 135.925 128.678L 142.935 124.822L 73.2199 -1.92773L 66.2102 1.92773ZM 139.43 122.75L 0 122.75L 0 130.75L 139.43 130.75L 139.43 122.75ZM 3.50483 128.678L 73.2199 1.92773L 66.2102 -1.92773L -3.50483 124.822L 3.50483 128.678Z"/>
<path id="path4_fill" d="M 41 20.5C 41 31.8218 31.8218 41 20.5 41C 9.17816 41 0 31.8218 0 20.5C 0 9.17816 9.17816 0 20.5 0C 31.8218 0 41 9.17816 41 20.5Z"/>
<path id="path5_stroke_2x" d="M 37 20.5C 37 29.6127 29.6127 37 20.5 37L 20.5 45C 34.031 45 45 34.031 45 20.5L 37 20.5ZM 20.5 37C 11.3873 37 4 29.6127 4 20.5L -4 20.5C -4 34.031 6.96902 45 20.5 45L 20.5 37ZM 4 20.5C 4 11.3873 11.3873 4 20.5 4L 20.5 -4C 6.96902 -4 -4 6.96902 -4 20.5L 4 20.5ZM 20.5 4C 29.6127 4 37 11.3873 37 20.5L 45 20.5C 45 6.96902 34.031 -4 20.5 -4L 20.5 4Z"/>
<path id="path6_fill" fill-rule="evenodd" d="M 0 30.8022C 0 13.7906 15.4462 0 34.5 0C 53.5538 0 69 13.7906 69 30.8022C 69 47.8138 34.5 127 34.5 127C 34.5 127 0 47.8138 0 30.8022ZM 34.5 44.0826C 41.8284 44.0826 47.7692 38.2087 47.7692 30.9628C 47.7692 23.7169 41.8284 17.843 34.5 17.843C 27.1716 17.843 21.2308 23.7169 21.2308 30.9628C 21.2308 38.2087 27.1716 44.0826 34.5 44.0826Z"/>
<path id="path7_stroke_2x" d="M 34.5 127L 31.7497 128.198L 34.5 134.511L 37.2503 128.198L 34.5 127ZM 34.5 -3C 14.1182 -3 -3 11.823 -3 30.8022L 3 30.8022C 3 15.7583 16.7742 3 34.5 3L 34.5 -3ZM 72 30.8022C 72 11.823 54.8818 -3 34.5 -3L 34.5 3C 52.2258 3 66 15.7583 66 30.8022L 72 30.8022ZM 34.5 127C 37.2503 128.198 37.2505 128.198 37.2508 128.197C 37.2511 128.197 37.2515 128.195 37.2521 128.194C 37.2531 128.192 37.2548 128.188 37.257 128.183C 37.2612 128.173 37.2676 128.158 37.2761 128.139C 37.2928 128.101 37.3179 128.043 37.3508 127.967C 37.4163 127.816 37.514 127.591 37.6409 127.298C 37.8941 126.712 38.2665 125.849 38.7393 124.747C 39.684 122.546 41.0359 119.376 42.656 115.525C 45.8939 107.827 50.2196 97.3643 54.5417 86.3788C 58.8628 75.3951 63.2046 63.8225 66.4587 53.9488C 69.6575 44.2407 72 35.6262 72 30.8022L 66 30.8022C 66 34.4841 64.03 42.1472 60.7601 52.0711C 57.5454 61.8293 53.2622 73.2428 48.9583 84.1821C 44.6554 95.1196 40.3561 105.517 37.1253 113.198C 35.511 117.036 34.1676 120.186 33.2255 122.381C 32.755 123.478 32.3862 124.333 32.134 124.915C 32.0082 125.206 31.9122 125.428 31.8472 125.578C 31.8148 125.652 31.7904 125.708 31.774 125.746C 31.7658 125.765 31.7597 125.779 31.7556 125.788C 31.7536 125.793 31.7521 125.796 31.7511 125.799C 31.7506 125.8 31.7502 125.8 31.75 125.801C 31.7498 125.802 31.7497 125.802 34.5 127ZM -3 30.8022C -3 35.6262 -0.657507 44.2407 2.54132 53.9488C 5.79537 63.8225 10.1372 75.3951 14.4583 86.3788C 18.7804 97.3643 23.1061 107.827 26.344 115.525C 27.9641 119.376 29.316 122.546 30.2607 124.747C 30.7335 125.849 31.1059 126.712 31.3591 127.298C 31.486 127.591 31.5837 127.816 31.6492 127.967C 31.6821 128.043 31.7072 128.101 31.7239 128.139C 31.7324 128.158 31.7388 128.173 31.743 128.183C 31.7452 128.188 31.7469 128.192 31.7479 128.194C 31.7485 128.195 31.7489 128.197 31.7492 128.197C 31.7495 128.198 31.7497 128.198 34.5 127C 37.2503 125.802 37.2502 125.802 37.25 125.801C 37.2498 125.8 37.2494 125.8 37.2489 125.799C 37.2479 125.796 37.2464 125.793 37.2444 125.788C 37.2403 125.779 37.2342 125.765 37.226 125.746C 37.2096 125.708 37.1852 125.652 37.1529 125.578C 37.0878 125.428 36.9918 125.206 36.866 124.915C 36.6138 124.333 36.245 123.478 35.7745 122.381C 34.8324 120.186 33.489 117.036 31.8747 113.198C 28.6439 105.517 24.3446 95.1196 20.0417 84.1821C 15.7378 73.2428 11.4546 61.8293 8.23993 52.0711C 4.97001 42.1472 3 34.4841 3 30.8022L -3 30.8022ZM 44.7692 30.9628C 44.7692 36.5199 40.2037 41.0826 34.5 41.0826L 34.5 47.0826C 43.4531 47.0826 50.7692 39.8975 50.7692 30.9628L 44.7692 30.9628ZM 34.5 20.843C 40.2037 20.843 44.7692 25.4057 44.7692 30.9628L 50.7692 30.9628C 50.7692 22.0281 43.4531 14.843 34.5 14.843L 34.5 20.843ZM 24.2308 30.9628C 24.2308 25.4057 28.7964 20.843 34.5 20.843L 34.5 14.843C 25.5469 14.843 18.2308 22.0281 18.2308 30.9628L 24.2308 30.9628ZM 34.5 41.0826C 28.7964 41.0826 24.2308 36.5199 24.2308 30.9628L 18.2308 30.9628C 18.2308 39.8975 25.5469 47.0826 34.5 47.0826L 34.5 41.0826Z"/>
<path id="path8_stroke" d="M 0 0L 0 -2L -2 -2L -2 0L 0 0ZM 0 107L -2 107L -2 109L 0 109L 0 107ZM 148 107L 148 109L 150 109L 150 107L 148 107ZM 148 0L 150 0L 150 -2L 148 -2L 148 0ZM -2 0L -2 107L 2 107L 2 0L -2 0ZM 0 109L 148 109L 148 105L 0 105L 0 109ZM 150 107L 150 0L 146 0L 146 107L 150 107ZM 148 -2L 0 -2L 0 2L 148 2L 148 -2Z"/>
<path id="path9_stroke" d="M 0 1L 81.5 1L 81.5 -1L 0 -1L 0 1ZM 0 29.5L 45 29.5L 45 27.5L 0 27.5L 0 29.5ZM 0 56L 20.5 56L 20.5 54L 0 54L 0 56Z"/>
<path id="path10_fill" d="M 51.984 50.728L 51.984 59.8L 19.44 110.488L 51.984 110.488L 51.984 121L 5.04 121L 5.04 111.928L 37.728 61.24L 5.76 61.24L 5.76 50.728L 51.984 50.728ZM 110.933 49C 119.189 49 125.189 50.872 128.933 54.616C 132.773 58.264 134.693 64.12 134.693 72.184L 134.693 121L 123.029 121L 123.029 109.768C 117.461 118.408 111.173 122.728 104.165 122.728C 98.5969 122.728 94.1329 120.808 90.7729 116.968C 87.5089 113.128 85.8769 107.896 85.8769 101.272L 85.8769 97.24C 85.8769 91.48 87.8449 86.728 91.7809 82.984C 95.7169 79.144 100.997 77.224 107.621 77.224C 111.269 77.224 116.213 77.848 122.453 79.096L 122.453 71.176C 122.453 67.048 121.493 64.072 119.573 62.248C 117.749 60.424 114.869 59.512 110.933 59.512C 106.325 59.512 99.8449 60.232 91.4929 61.672L 91.4929 51.16C 100.517 49.72 106.997 49 110.933 49ZM 110.645 86.728C 106.613 86.728 103.541 87.784 101.429 89.896C 99.3169 92.008 98.2609 94.984 98.2609 98.824L 98.2609 100.408C 98.2609 103.96 99.0769 106.744 100.709 108.76C 102.341 110.776 104.405 111.784 106.901 111.784C 109.493 111.784 112.133 110.68 114.821 108.472C 117.605 106.168 120.149 102.952 122.453 98.824L 122.453 87.736C 118.805 87.064 114.869 86.728 110.645 86.728ZM 197.22 49C 205.476 49 211.476 50.872 215.22 54.616C 219.06 58.264 220.98 64.12 220.98 72.184L 220.98 121L 209.316 121L 209.316 109.768C 203.748 118.408 197.46 122.728 190.452 122.728C 184.884 122.728 180.42 120.808 177.06 116.968C 173.796 113.128 172.164 107.896 172.164 101.272L 172.164 97.24C 172.164 91.48 174.132 86.728 178.068 82.984C 182.004 79.144 187.284 77.224 193.908 77.224C 197.556 77.224 202.5 77.848 208.74 79.096L 208.74 71.176C 208.74 67.048 207.78 64.072 205.86 62.248C 204.036 60.424 201.156 59.512 197.22 59.512C 192.612 59.512 186.132 60.232 177.78 61.672L 177.78 51.16C 186.804 49.72 193.284 49 197.22 49ZM 196.932 86.728C 192.9 86.728 189.828 87.784 187.716 89.896C 185.604 92.008 184.548 94.984 184.548 98.824L 184.548 100.408C 184.548 103.96 185.364 106.744 186.996 108.76C 188.628 110.776 190.692 111.784 193.188 111.784C 195.78 111.784 198.42 110.68 201.108 108.472C 203.892 106.168 206.436 102.952 208.74 98.824L 208.74 87.736C 205.092 87.064 201.156 86.728 196.932 86.728ZM 287.972 20.92C 291.14 20.92 294.164 21.256 297.044 21.928L 297.044 31.72C 294.164 31.24 291.188 31 288.116 31C 285.14 31 282.788 31.96 281.06 33.88C 279.428 35.8 278.612 38.728 278.612 42.664L 278.612 50.728L 293.012 50.728L 293.012 60.808L 278.612 60.808L 278.612 121L 266.372 121L 266.372 60.808L 256.292 60.808L 256.292 50.728L 266.372 50.728L 266.372 43.384C 266.468 35.896 268.34 30.28 271.988 26.536C 275.636 22.792 280.964 20.92 287.972 20.92ZM 350.463 49C 354.783 49 359.679 49.624 365.151 50.872L 364.863 61.672C 359.295 60.424 354.495 59.8 350.463 59.8C 345.951 59.8 342.495 61.048 340.095 63.544C 337.791 66.04 336.639 69.592 336.639 74.2L 336.639 97.384C 336.639 102.184 337.839 105.832 340.239 108.328C 342.735 110.728 346.143 111.928 350.463 111.928C 353.151 111.928 355.503 111.784 357.519 111.496C 359.535 111.208 361.983 110.728 364.863 110.056L 365.151 120.856C 359.295 122.104 354.351 122.728 350.319 122.728C 333.039 122.728 324.399 113.992 324.399 96.52L 324.399 75.208C 324.399 57.736 333.087 49 350.463 49Z"/>
<path id="path11_stroke_2x" d="M 51.984 50.728L 54.984 50.728L 54.984 47.728L 51.984 47.728L 51.984 50.728ZM 51.984 59.8L 54.5085 61.4208L 54.984 60.6802L 54.984 59.8L 51.984 59.8ZM 19.44 110.488L 16.9155 108.867L 13.9488 113.488L 19.44 113.488L 19.44 110.488ZM 51.984 110.488L 54.984 110.488L 54.984 107.488L 51.984 107.488L 51.984 110.488ZM 51.984 121L 51.984 124L 54.984 124L 54.984 121L 51.984 121ZM 5.04 121L 2.04 121L 2.04 124L 5.04 124L 5.04 121ZM 5.04 111.928L 2.51879 110.302L 2.04 111.045L 2.04 111.928L 5.04 111.928ZM 37.728 61.24L 40.2492 62.8659L 43.2324 58.24L 37.728 58.24L 37.728 61.24ZM 5.76 61.24L 2.76 61.24L 2.76 64.24L 5.76 64.24L 5.76 61.24ZM 5.76 50.728L 5.76 47.728L 2.76 47.728L 2.76 50.728L 5.76 50.728ZM 48.984 50.728L 48.984 59.8L 54.984 59.8L 54.984 50.728L 48.984 50.728ZM 49.4595 58.1792L 16.9155 108.867L 21.9645 112.109L 54.5085 61.4208L 49.4595 58.1792ZM 19.44 113.488L 51.984 113.488L 51.984 107.488L 19.44 107.488L 19.44 113.488ZM 48.984 110.488L 48.984 121L 54.984 121L 54.984 110.488L 48.984 110.488ZM 51.984 118L 5.04 118L 5.04 124L 51.984 124L 51.984 118ZM 8.04 121L 8.04 111.928L 2.04 111.928L 2.04 121L 8.04 121ZM 7.56121 113.554L 40.2492 62.8659L 35.2068 59.6141L 2.51879 110.302L 7.56121 113.554ZM 37.728 58.24L 5.76 58.24L 5.76 64.24L 37.728 64.24L 37.728 58.24ZM 8.76 61.24L 8.76 50.728L 2.76 50.728L 2.76 61.24L 8.76 61.24ZM 5.76 53.728L 51.984 53.728L 51.984 47.728L 5.76 47.728L 5.76 53.728ZM 128.933 54.616L 126.812 56.7373L 126.839 56.7645L 126.867 56.791L 128.933 54.616ZM 134.693 121L 134.693 124L 137.693 124L 137.693 121L 134.693 121ZM 123.029 121L 120.029 121L 120.029 124L 123.029 124L 123.029 121ZM 123.029 109.768L 126.029 109.768L 126.029 99.5747L 120.507 108.143L 123.029 109.768ZM 90.7729 116.968L 88.4871 118.911L 88.501 118.927L 88.5151 118.944L 90.7729 116.968ZM 91.7809 82.984L 93.8485 85.1577L 93.8623 85.1446L 93.8758 85.1313L 91.7809 82.984ZM 122.453 79.096L 121.865 82.0377L 125.453 82.7554L 125.453 79.096L 122.453 79.096ZM 119.573 62.248L 117.452 64.3693L 117.479 64.3965L 117.507 64.423L 119.573 62.248ZM 91.4929 61.672L 88.4929 61.672L 88.4929 65.2335L 92.0026 64.6284L 91.4929 61.672ZM 91.4929 51.16L 91.0201 48.1975L 88.4929 48.6008L 88.4929 51.16L 91.4929 51.16ZM 114.821 108.472L 116.725 110.79L 116.734 110.783L 114.821 108.472ZM 122.453 98.824L 125.072 100.286L 125.453 99.6045L 125.453 98.824L 122.453 98.824ZM 122.453 87.736L 125.453 87.736L 125.453 85.2382L 122.996 84.7856L 122.453 87.736ZM 110.933 52C 118.826 52 123.876 53.8018 126.812 56.7373L 131.054 52.4947C 126.502 47.9422 119.552 46 110.933 46L 110.933 52ZM 126.867 56.791C 129.86 59.6345 131.693 64.5169 131.693 72.184L 137.693 72.184C 137.693 63.7231 135.686 56.8935 130.999 52.441L 126.867 56.791ZM 131.693 72.184L 131.693 121L 137.693 121L 137.693 72.184L 131.693 72.184ZM 134.693 118L 123.029 118L 123.029 124L 134.693 124L 134.693 118ZM 126.029 121L 126.029 109.768L 120.029 109.768L 120.029 121L 126.029 121ZM 120.507 108.143C 115.214 116.356 109.73 119.728 104.165 119.728L 104.165 125.728C 112.616 125.728 119.707 120.46 125.551 111.393L 120.507 108.143ZM 104.165 119.728C 99.3731 119.728 95.7649 118.117 93.0306 114.992L 88.5151 118.944C 92.5008 123.499 97.8206 125.728 104.165 125.728L 104.165 119.728ZM 93.0587 115.025C 90.384 111.878 88.8769 107.411 88.8769 101.272L 82.8769 101.272C 82.8769 108.381 84.6337 114.378 88.4871 118.911L 93.0587 115.025ZM 88.8769 101.272L 88.8769 97.24L 82.8769 97.24L 82.8769 101.272L 88.8769 101.272ZM 88.8769 97.24C 88.8769 92.2462 90.5469 88.2982 93.8485 85.1577L 89.7132 80.8103C 85.1429 85.1578 82.8769 90.7138 82.8769 97.24L 88.8769 97.24ZM 93.8758 85.1313C 97.1402 81.9466 101.609 80.224 107.621 80.224L 107.621 74.224C 100.385 74.224 94.2935 76.3414 89.6859 80.8367L 93.8758 85.1313ZM 107.621 80.224C 111.081 80.2181 115.731 80.809 121.865 82.0377L 123.041 76.1543C 116.695 74.887 111.457 74.2299 107.621 74.224L 107.621 80.224ZM 125.453 79.096L 125.453 71.176L 119.453 71.176L 119.453 79.096L 125.453 79.096ZM 125.453 71.176C 125.453 66.6762 124.418 62.7127 121.639 60.073L 117.507 64.423C 118.568 65.4313 119.453 67.4198 119.453 71.176L 125.453 71.176ZM 121.694 60.1267C 119.072 57.5044 115.254 56.512 110.933 56.512L 110.933 62.512C 114.484 62.512 116.426 63.3436 117.452 64.3693L 121.694 60.1267ZM 110.933 56.512C 106.159 56.5166 99.4242 57.2616 90.9832 58.7156L 92.0026 64.6284C 100.266 63.2024 106.491 62.5074 110.933 62.512L 110.933 56.512ZM 94.4929 61.672L 94.4929 51.16L 88.4929 51.16L 88.4929 61.672L 94.4929 61.672ZM 91.9656 54.1225C 100.919 52.6929 107.163 51.9954 110.933 52L 110.933 46C 106.831 46.0046 100.115 46.7471 91.0201 48.1975L 91.9656 54.1225ZM 110.645 83.728C 106.104 83.728 102.157 84.9256 99.3076 87.7747L 103.55 92.0173C 104.925 90.6424 107.122 89.728 110.645 89.728L 110.645 83.728ZM 99.3076 87.7747C 96.4846 90.5977 95.2609 94.4262 95.2609 98.824L 101.261 98.824C 101.261 95.5418 102.149 93.4183 103.55 92.0173L 99.3076 87.7747ZM 95.2609 98.824L 95.2609 100.408L 101.261 100.408L 101.261 98.824L 95.2609 98.824ZM 95.2609 100.408C 95.2609 104.395 96.1771 107.93 98.3771 110.648L 103.041 106.872C 101.977 105.558 101.261 103.525 101.261 100.408L 95.2609 100.408ZM 98.3771 110.648C 100.553 113.335 103.459 114.784 106.901 114.784L 106.901 108.784C 105.35 108.784 104.129 108.217 103.041 106.872L 98.3771 110.648ZM 106.901 114.784C 110.393 114.784 113.684 113.288 116.725 110.79L 112.917 106.154C 110.581 108.072 108.593 108.784 106.901 108.784L 106.901 114.784ZM 116.734 110.783C 119.749 108.266 122.643 104.619 125.072 100.286L 119.833 97.3619C 117.655 101.285 115.46 104.07 112.908 106.161L 116.734 110.783ZM 125.453 98.824L 125.453 87.736L 119.453 87.736L 119.453 98.824L 125.453 98.824ZM 122.996 84.7856C 119.205 84.0908 114.997 83.7307 110.645 83.728L 110.645 89.728C 114.741 89.7253 118.405 90.0372 121.909 90.6864L 122.996 84.7856ZM 215.22 54.616L 213.099 56.7373L 213.126 56.7645L 213.154 56.791L 215.22 54.616ZM 220.98 121L 220.98 124L 223.98 124L 223.98 121L 220.98 121ZM 209.316 121L 206.316 121L 206.316 124L 209.316 124L 209.316 121ZM 209.316 109.768L 212.316 109.768L 212.316 99.5747L 206.795 108.143L 209.316 109.768ZM 177.06 116.968L 174.775 118.911L 174.788 118.927L 174.803 118.944L 177.06 116.968ZM 178.068 82.984L 180.136 85.1577L 180.15 85.1446L 180.163 85.1313L 178.068 82.984ZM 208.74 79.096L 208.152 82.0377L 211.74 82.7554L 211.74 79.096L 208.74 79.096ZM 205.86 62.248L 203.739 64.3693L 203.766 64.3965L 203.794 64.423L 205.86 62.248ZM 177.78 61.672L 174.78 61.672L 174.78 65.2335L 178.29 64.6284L 177.78 61.672ZM 177.78 51.16L 177.308 48.1975L 174.78 48.6008L 174.78 51.16L 177.78 51.16ZM 201.108 108.472L 203.013 110.79L 203.021 110.783L 201.108 108.472ZM 208.74 98.824L 211.36 100.286L 211.74 99.6045L 211.74 98.824L 208.74 98.824ZM 208.74 87.736L 211.74 87.736L 211.74 85.2382L 209.284 84.7856L 208.74 87.736ZM 197.22 52C 205.114 52 210.164 53.8018 213.099 56.7373L 217.342 52.4947C 212.789 47.9422 205.839 46 197.22 46L 197.22 52ZM 213.154 56.791C 216.147 59.6345 217.98 64.5169 217.98 72.184L 223.98 72.184C 223.98 63.7231 221.973 56.8935 217.287 52.441L 213.154 56.791ZM 217.98 72.184L 217.98 121L 223.98 121L 223.98 72.184L 217.98 72.184ZM 220.98 118L 209.316 118L 209.316 124L 220.98 124L 220.98 118ZM 212.316 121L 212.316 109.768L 206.316 109.768L 206.316 121L 212.316 121ZM 206.795 108.143C 201.502 116.356 196.017 119.728 190.452 119.728L 190.452 125.728C 198.903 125.728 205.995 120.46 211.838 111.393L 206.795 108.143ZM 190.452 119.728C 185.661 119.728 182.052 118.117 179.318 114.992L 174.803 118.944C 178.788 123.499 184.108 125.728 190.452 125.728L 190.452 119.728ZM 179.346 115.025C 176.672 111.878 175.164 107.411 175.164 101.272L 169.164 101.272C 169.164 108.381 170.921 114.378 174.775 118.911L 179.346 115.025ZM 175.164 101.272L 175.164 97.24L 169.164 97.24L 169.164 101.272L 175.164 101.272ZM 175.164 97.24C 175.164 92.2462 176.834 88.2982 180.136 85.1577L 176.001 80.8103C 171.43 85.1578 169.164 90.7138 169.164 97.24L 175.164 97.24ZM 180.163 85.1313C 183.428 81.9466 187.897 80.224 193.908 80.224L 193.908 74.224C 186.672 74.224 180.581 76.3414 175.973 80.8367L 180.163 85.1313ZM 193.908 80.224C 197.368 80.2181 202.018 80.809 208.152 82.0377L 209.329 76.1543C 202.983 74.887 197.745 74.2299 193.908 74.224L 193.908 80.224ZM 211.74 79.096L 211.74 71.176L 205.74 71.176L 205.74 79.096L 211.74 79.096ZM 211.74 71.176C 211.74 66.6762 210.705 62.7127 207.927 60.073L 203.794 64.423C 204.855 65.4313 205.74 67.4198 205.74 71.176L 211.74 71.176ZM 207.982 60.1267C 205.359 57.5044 201.541 56.512 197.22 56.512L 197.22 62.512C 200.771 62.512 202.713 63.3436 203.739 64.3693L 207.982 60.1267ZM 197.22 56.512C 192.446 56.5166 185.712 57.2616 177.271 58.7156L 178.29 64.6284C 186.553 63.2024 192.778 62.5074 197.22 62.512L 197.22 56.512ZM 180.78 61.672L 180.78 51.16L 174.78 51.16L 174.78 61.672L 180.78 61.672ZM 178.253 54.1225C 187.207 52.6929 193.45 51.9954 197.22 52L 197.22 46C 193.118 46.0046 186.402 46.7471 177.308 48.1975L 178.253 54.1225ZM 196.932 83.728C 192.391 83.728 188.444 84.9256 185.595 87.7747L 189.838 92.0173C 191.213 90.6424 193.41 89.728 196.932 89.728L 196.932 83.728ZM 185.595 87.7747C 182.772 90.5977 181.548 94.4262 181.548 98.824L 187.548 98.824C 187.548 95.5418 188.437 93.4183 189.838 92.0173L 185.595 87.7747ZM 181.548 98.824L 181.548 100.408L 187.548 100.408L 187.548 98.824L 181.548 98.824ZM 181.548 100.408C 181.548 104.395 182.465 107.93 184.665 110.648L 189.328 106.872C 188.264 105.558 187.548 103.525 187.548 100.408L 181.548 100.408ZM 184.665 110.648C 186.84 113.335 189.747 114.784 193.188 114.784L 193.188 108.784C 191.638 108.784 190.416 108.217 189.328 106.872L 184.665 110.648ZM 193.188 114.784C 196.681 114.784 199.972 113.288 203.013 110.79L 199.204 106.154C 196.869 108.072 194.88 108.784 193.188 108.784L 193.188 114.784ZM 203.021 110.783C 206.037 108.266 208.931 104.619 211.36 100.286L 206.121 97.3619C 203.942 101.285 201.748 104.07 199.196 106.161L 203.021 110.783ZM 211.74 98.824L 211.74 87.736L 205.74 87.736L 205.74 98.824L 211.74 98.824ZM 209.284 84.7856C 205.492 84.0908 201.284 83.7307 196.932 83.728L 196.932 89.728C 201.029 89.7253 204.693 90.0372 208.197 90.6864L 209.284 84.7856ZM 297.044 21.928L 300.044 21.928L 300.044 19.5474L 297.726 19.0065L 297.044 21.928ZM 297.044 31.72L 296.551 34.6792L 300.044 35.2614L 300.044 31.72L 297.044 31.72ZM 281.06 33.88L 278.83 31.8731L 278.802 31.9047L 278.774 31.9371L 281.06 33.88ZM 278.612 50.728L 275.612 50.728L 275.612 53.728L 278.612 53.728L 278.612 50.728ZM 293.012 50.728L 296.012 50.728L 296.012 47.728L 293.012 47.728L 293.012 50.728ZM 293.012 60.808L 293.012 63.808L 296.012 63.808L 296.012 60.808L 293.012 60.808ZM 278.612 60.808L 278.612 57.808L 275.612 57.808L 275.612 60.808L 278.612 60.808ZM 278.612 121L 278.612 124L 281.612 124L 281.612 121L 278.612 121ZM 266.372 121L 263.372 121L 263.372 124L 266.372 124L 266.372 121ZM 266.372 60.808L 269.372 60.808L 269.372 57.808L 266.372 57.808L 266.372 60.808ZM 256.292 60.808L 253.292 60.808L 253.292 63.808L 256.292 63.808L 256.292 60.808ZM 256.292 50.728L 256.292 47.728L 253.292 47.728L 253.292 50.728L 256.292 50.728ZM 266.372 50.728L 266.372 53.728L 269.372 53.728L 269.372 50.728L 266.372 50.728ZM 266.372 43.384L 263.372 43.3455L 263.372 43.3648L 263.372 43.384L 266.372 43.384ZM 287.972 23.92C 290.974 23.9154 293.656 24.2128 296.362 24.8495L 297.726 19.0065C 294.671 18.2992 291.306 17.9246 287.972 17.92L 287.972 23.92ZM 294.044 21.928L 294.044 31.72L 300.044 31.72L 300.044 21.928L 294.044 21.928ZM 297.537 28.7608C 294.531 28.2626 291.309 28.0024 288.116 28L 288.116 34C 291.067 33.9976 293.796 34.2174 296.551 34.6792L 297.537 28.7608ZM 288.116 28C 284.432 28 281.216 29.2222 278.83 31.8731L 283.29 35.8869C 284.36 34.6978 285.848 34 288.116 34L 288.116 28ZM 278.774 31.9371C 276.483 34.6318 275.612 38.3961 275.612 42.664L 281.612 42.664C 281.612 39.0599 282.372 36.9682 283.346 35.8229L 278.774 31.9371ZM 275.612 42.664L 275.612 50.728L 281.612 50.728L 281.612 42.664L 275.612 42.664ZM 278.612 53.728L 293.012 53.728L 293.012 47.728L 278.612 47.728L 278.612 53.728ZM 290.012 50.728L 290.012 60.808L 296.012 60.808L 296.012 50.728L 290.012 50.728ZM 293.012 57.808L 278.612 57.808L 278.612 63.808L 293.012 63.808L 293.012 57.808ZM 275.612 60.808L 275.612 121L 281.612 121L 281.612 60.808L 275.612 60.808ZM 278.612 118L 266.372 118L 266.372 124L 278.612 124L 278.612 118ZM 269.372 121L 269.372 60.808L 263.372 60.808L 263.372 121L 269.372 121ZM 266.372 57.808L 256.292 57.808L 256.292 63.808L 266.372 63.808L 266.372 57.808ZM 259.292 60.808L 259.292 50.728L 253.292 50.728L 253.292 60.808L 259.292 60.808ZM 256.292 53.728L 266.372 53.728L 266.372 47.728L 256.292 47.728L 256.292 53.728ZM 269.372 50.728L 269.372 43.384L 263.372 43.384L 263.372 50.728L 269.372 50.728ZM 269.372 43.4225C 269.462 36.3712 271.219 31.6239 274.137 28.6296L 269.839 24.4424C 265.461 28.9361 263.474 35.4208 263.372 43.3455L 269.372 43.4225ZM 274.137 28.6296C 277.048 25.6418 281.488 23.92 287.972 23.92L 287.972 17.92C 280.44 17.92 274.224 19.9422 269.839 24.4424L 274.137 28.6296ZM 365.151 50.872L 368.15 50.952L 368.216 48.4939L 365.818 47.9471L 365.151 50.872ZM 364.863 61.672L 364.207 64.5994L 367.765 65.3968L 367.862 61.752L 364.863 61.672ZM 340.095 63.544L 337.933 61.4647L 337.912 61.4867L 337.891 61.5092L 340.095 63.544ZM 340.239 108.328L 338.077 110.407L 338.118 110.45L 338.16 110.49L 340.239 108.328ZM 357.519 111.496L 357.095 108.526L 357.519 111.496ZM 364.863 110.056L 367.862 109.976L 367.764 106.299L 364.182 107.134L 364.863 110.056ZM 365.151 120.856L 365.777 123.79L 368.217 123.27L 368.15 120.776L 365.151 120.856ZM 350.463 52C 354.593 51.994 359.156 52.5779 364.484 53.7969L 365.818 47.9471C 360.203 46.6701 354.973 46.006 350.463 46L 350.463 52ZM 362.152 50.792L 361.864 61.592L 367.862 61.752L 368.15 50.952L 362.152 50.792ZM 365.52 58.7446C 359.817 57.4698 354.689 56.8063 350.463 56.8L 350.463 62.8C 354.302 62.7937 358.773 63.3782 364.207 64.5994L 365.52 58.7446ZM 350.463 56.8C 345.394 56.8 341.056 58.2167 337.933 61.4647L 342.258 65.6233C 343.935 63.8793 346.508 62.8 350.463 62.8L 350.463 56.8ZM 337.891 61.5092C 334.916 64.7316 333.639 69.1106 333.639 74.2L 339.639 74.2C 339.639 70.0734 340.666 67.3484 342.3 65.5788L 337.891 61.5092ZM 333.639 74.2L 333.639 97.384L 339.639 97.384L 339.639 74.2L 333.639 74.2ZM 333.639 97.384C 333.639 102.656 334.961 107.167 338.077 110.407L 342.402 106.249C 340.718 104.497 339.639 101.712 339.639 97.384L 333.639 97.384ZM 338.16 110.49C 341.345 113.553 345.57 114.928 350.463 114.928L 350.463 108.928C 346.717 108.928 344.126 107.903 342.319 106.166L 338.16 110.49ZM 350.463 114.928C 353.243 114.927 355.807 114.769 357.944 114.466L 357.095 108.526C 355.199 108.799 353.06 108.929 350.463 108.928L 350.463 114.928ZM 357.944 114.466C 360.036 114.166 362.613 113.661 365.545 112.978L 364.182 107.134C 361.354 107.795 359.034 108.25 357.095 108.526L 357.944 114.466ZM 361.864 110.136L 362.152 120.936L 368.15 120.776L 367.862 109.976L 361.864 110.136ZM 364.526 117.922C 358.794 119.146 354.163 119.734 350.319 119.728L 350.319 125.728C 354.54 125.722 359.796 125.062 365.777 123.79L 364.526 117.922ZM 350.319 119.728C 342.15 119.728 336.573 117.666 333.012 114.066C 329.446 110.461 327.399 104.802 327.399 96.52L 321.399 96.52C 321.399 105.71 323.673 113.155 328.746 118.286C 333.826 123.422 341.208 125.728 350.319 125.728L 350.319 119.728ZM 327.399 96.52L 327.399 75.208L 321.399 75.208L 321.399 96.52L 327.399 96.52ZM 327.399 75.208C 327.399 66.9303 329.456 61.2739 333.043 57.6675C 336.626 54.0641 342.242 52 350.463 52L 350.463 46C 341.309 46 333.893 48.3039 328.788 53.4365C 323.687 58.5661 321.399 66.0137 321.399 75.208L 327.399 75.208Z"/>
<path id="path12_fill" d="M 0 0L 413 0L 413 142L 0 142L 0 0Z"/>
<path id="path13_stroke_2x" d="M 0 0L 0 -3L -3 -3L -3 0L 0 0ZM 413 0L 416 0L 416 -3L 413 -3L 413 0ZM 413 142L 413 145L 416 145L 416 142L 413 142ZM 0 142L -3 142L -3 145L 0 145L 0 142ZM 0 3L 413 3L 413 -3L 0 -3L 0 3ZM 410 0L 410 142L 416 142L 416 0L 410 0ZM 413 139L 0 139L 0 145L 413 145L 413 139ZM 3 142L 3 0L -3 0L -3 142L 3 142Z"/>
<path id="path14_stroke" d="M 78.5 8.5C 78.5 8.57443 78.4713 8.79412 78.1069 9.17258C 77.6877 9.61954 77.1089 10.0067 76.1832 10.4682C 74.2701 11.4349 71.5234 12.2903 67.9725 13.0432C 60.8184 14.5659 50.9746 15.5017 40 15.5L 40 18.5C 51.1168 18.4983 61.273 17.5313 68.5961 15.9776C 72.2837 15.1923 75.3949 14.2161 77.53 13.1489C 78.6284 12.5935 79.6213 11.9132 80.2678 11.2535C 80.969 10.5253 81.5 9.59917 81.5 8.5L 78.5 8.5ZM 40 15.5C 29.0254 15.5017 19.1816 14.5659 12.0275 13.0432C 8.47657 12.2903 5.72988 11.4349 3.8168 10.4682C 2.89106 10.0067 2.31233 9.61954 1.89314 9.17258C 1.52869 8.79412 1.5 8.57443 1.5 8.5L -1.5 8.5C -1.5 9.59917 -0.96905 10.5253 -0.267823 11.2535C 0.378657 11.9132 1.37162 12.5935 2.47 13.1489C 4.60513 14.2161 7.71631 15.1923 11.4039 15.9776C 18.727 17.5313 28.8832 18.4983 40 18.5L 40 15.5ZM 1.5 8.5C 1.5 8.42557 1.52869 8.20588 1.89314 7.82742C 2.31233 7.38046 2.89106 6.99326 3.8168 6.53176C 5.72988 5.56508 8.47657 4.70973 12.0275 3.95683C 19.1816 2.43407 29.0254 1.49831 40 1.5L 40 -1.5C 28.8832 -1.49831 18.727 -0.531283 11.4039 1.02235C 7.71631 1.80766 4.60513 2.7839 2.47 3.85107C 1.37162 4.4065 0.378657 5.08679 -0.267823 5.74649C -0.96905 6.47469 -1.5 7.40083 -1.5 8.5L 1.5 8.5ZM 40 1.5C 50.9746 1.49831 60.8184 2.43407 67.9725 3.95683C 71.5234 4.70973 74.2701 5.56508 76.1832 6.53176C 77.1089 6.99326 77.6877 7.38046 78.1069 7.82742C 78.4713 8.20588 78.5 8.42557 78.5 8.5L 81.5 8.5C 81.5 7.40083 80.969 6.47469 80.2678 5.74649C 79.6213 5.08679 78.6284 4.4065 77.53 3.85107C 75.3949 2.7839 72.2837 1.80766 68.5961 1.02235C 61.273 -0.531283 51.1168 -1.49831 40 -1.5L 40 1.5ZM 78.5 86C 78.5 86.0744 78.4713 86.2941 78.1069 86.6726C 77.6877 87.1195 77.1089 87.5067 76.1832 87.9682C 74.2701 88.9349 71.5234 89.7903 67.9725 90.5432C 60.8184 92.0659 50.9746 93.0017 40 93L 40 96C 51.1168 95.9983 61.273 95.0313 68.5961 93.4776C 72.2837 92.6923 75.3949 91.7161 77.53 90.6489C 78.6284 90.0935 79.6213 89.4132 80.2678 88.7535C 80.969 88.0253 81.5 87.0992 81.5 86L 78.5 86ZM 40 93C 29.0254 93.0017 19.1816 92.0659 12.0275 90.5432C 8.47657 89.7903 5.72988 88.9349 3.8168 87.9682C 2.89106 87.5067 2.31233 87.1195 1.89314 86.6726C 1.52869 86.2941 1.5 86.0744 1.5 86L -1.5 86C -1.5 87.0992 -0.96905 88.0253 -0.267823 88.7535C 0.378657 89.4132 1.37162 90.0935 2.47 90.6489C 4.60513 91.7161 7.71631 92.6923 11.4039 93.4776C 18.727 95.0313 28.8832 95.9983 40 96L 40 93ZM 7.10543e-15 8.5C -1.5 8.5 -1.5 8.50017 -1.5 8.5005C -1.5 8.50084 -1.5 8.50134 -1.5 8.50201C -1.5 8.50334 -1.5 8.50535 -1.5 8.50802C -1.5 8.51335 -1.5 8.52134 -1.5 8.53196C -1.5 8.55319 -1.5 8.58494 -1.5 8.627C -1.5 8.71112 -1.5 8.83646 -1.5 9.00138C -1.5 9.33123 -1.5 9.81937 -1.5 10.4526C -1.5 11.719 -1.5 13.5656 -1.5 15.8865C -1.5 20.5283 -1.5 27.0672 -1.5 34.6556C -1.5 49.8325 -1.5 69.2075 -1.5 86L 1.5 86C 1.5 69.2075 1.5 49.8325 1.5 34.6556C 1.5 27.0672 1.5 20.5283 1.5 15.8865C 1.5 13.5656 1.5 11.719 1.5 10.4526C 1.5 9.81937 1.5 9.33123 1.5 9.00138C 1.5 8.83646 1.5 8.71112 1.5 8.627C 1.5 8.58494 1.5 8.55319 1.5 8.53196C 1.5 8.52134 1.5 8.51335 1.5 8.50802C 1.5 8.50535 1.5 8.50334 1.5 8.50201C 1.5 8.50134 1.5 8.50084 1.5 8.5005C 1.5 8.50017 1.5 8.5 7.10543e-15 8.5ZM 78.5 8.5L 78.5 86L 81.5 86L 81.5 8.5L 78.5 8.5ZM 78.5 56.5C 78.5 56.6246 78.4425 56.9117 78.0665 57.3742C 77.654 57.8917 77.084 58.3691 76.1969 58.9405C 74.3713 60.1298 71.755 61.2731 68.3407 62.3275C 61.4534 64.4632 51.9256 66.0048 41 66L 41 69C 52.1658 68.9952 62.138 67.384 69.2278 65.1933C 72.8021 64.0845 75.7937 62.7712 77.8288 61.4579C 78.872 60.778 79.7956 59.9926 80.3941 59.2668C 81.0291 58.4858 81.5 57.549 81.5 56.5L 78.5 56.5ZM 41 66C 30.0686 66.0044 20.0271 64.4588 12.632 62.3193C 8.96007 61.2606 6.08078 60.1051 4.06267 58.9078C 3.07958 58.3301 2.43314 57.8399 1.96998 57.3164C 1.5396 56.8387 1.5 56.5706 1.5 56.5L -1.5 56.5C -1.5 57.603 -0.948707 58.5588 -0.258727 59.3246C 0.398468 60.0444 1.40185 60.8171 2.53663 61.4906C 4.75424 62.7959 7.98281 64.097 11.7994 65.2015C 19.3815 67.3885 29.84 68.9956 41 69L 41 66ZM 73.5 46C 73.5 46.4674 73.2128 47.19 71.9374 48.0773C 70.6776 48.9538 68.6859 49.8137 65.8959 50.5616C 60.2673 52.0747 51.9621 53.0023 41 53L 41 56C 52.1293 55.9977 60.8241 55.0225 66.6726 53.4593C 69.6212 52.6689 71.9874 51.6972 73.6508 50.5399C 75.2987 49.3934 76.5 47.8798 76.5 46L 73.5 46ZM 41 53C 30.0333 53.0021 21.2133 52.0711 15.0748 50.554C 12.0414 49.8088 9.82881 48.9792 8.30572 48.0318C 6.78338 47.0931 6.5 46.3668 6.5 46L 3.5 46C 3.5 47.9804 4.9552 49.4902 6.73108 50.5854C 8.50621 51.6719 11.1515 52.6738 14.3566 53.4668C 20.6953 55.0261 29.8754 55.9979 41 56L 41 53ZM 73.5 35C 73.5 35.4674 73.2128 36.19 71.9374 37.0773C 70.6776 37.9538 68.6859 38.8137 65.8959 39.5616C 60.2673 41.0747 51.9621 42.0023 41 42L 41 45C 52.1293 44.9977 60.8241 44.0225 66.6726 42.4593C 69.6212 41.6689 71.9874 40.6972 73.6508 39.5399C 75.2987 38.3934 76.5 36.8798 76.5 35L 73.5 35ZM 41 42C 30.0333 42.0021 21.2133 41.0711 15.0748 39.554C 12.0414 38.8088 9.82881 37.9792 8.30572 37.0318C 6.78338 36.0931 6.5 35.3668 6.5 35L 3.5 35C 3.5 36.9804 4.9552 38.4902 6.73108 39.5854C 8.50621 40.6719 11.1515 41.6738 14.3566 42.4668C 20.6953 44.0261 29.8754 44.9979 41 45L 41 42ZM 73.5 22C 73.5 22.4674 73.2128 23.19 71.9374 24.0773C 70.6776 24.9538 68.6859 25.8137 65.8959 26.5616C 60.2673 28.0747 51.9621 29.0023 41 29L 41 32C 52.1293 31.9977 60.8241 31.0225 66.6726 29.4593C 69.6212 28.6689 71.9874 27.6972 73.6508 26.5399C 75.2987 25.3934 76.5 23.8798 76.5 22L 73.5 22ZM 41 29C 30.0333 29.0021 21.2133 28.0711 15.0748 26.554C 12.0414 25.8088 9.82881 24.9792 8.30572 24.0318C 6.78338 23.0931 6.5 22.3668 6.5 22L 3.5 22C 3.5 23.9804 4.9552 25.4903 6.73108 26.5853C 8.50621 27.6719 11.1515 28.6738 14.3566 29.4668C 20.6953 31.0261 29.8754 31.9979 41 32L 41 29Z"/>
<path id="path15_stroke" d="M 0 20.8955L -0.705559 20.1869L -1 20.48L -1 20.8955L 0 20.8955ZM 2.68635 18.2209L 2.68635 17.2209L 2.27341 17.2209L 1.98079 17.5122L 2.68635 18.2209ZM 13.5996 18.2209L 13.5996 19.2209L 14.5996 19.2209L 14.5996 18.2209L 13.5996 18.2209ZM 13.5996 13.5403L 13.5996 12.5403L 12.5996 12.5403L 12.5996 13.5403L 13.5996 13.5403ZM 23.1697 13.5403L 23.8266 12.7863L 23.5442 12.5403L 23.1697 12.5403L 23.1697 13.5403ZM 24.5129 14.7104L 23.856 15.4644L 25.5129 16.9079L 25.5129 14.7104L 24.5129 14.7104ZM 24.5129 10.0299L 24.5129 9.02985L 23.5129 9.02985L 23.5129 10.0299L 24.5129 10.0299ZM 37.7768 10.0299L 37.7768 11.0299L 38.4124 11.0299L 38.6822 10.4543L 37.7768 10.0299ZM 42.4779 0L 42.4779 -1L 41.8422 -1L 41.5724 -0.424405L 42.4779 0ZM 59.6033 0L 60.4128 -0.587173L 60.1133 -1L 59.6033 -1L 59.6033 0ZM 61.786 3.00896L 62.7472 2.73312L 62.6987 2.56411L 62.5954 2.42178L 61.786 3.00896ZM 66.1513 18.2209L 65.1901 18.4967L 65.3979 19.2209L 66.1513 19.2209L 66.1513 18.2209ZM 71.8598 18.2209L 71.8598 19.2209L 72.8598 19.2209L 72.8598 18.2209L 71.8598 18.2209ZM 71.8598 13.5403L 71.8598 12.5403L 70.8598 12.5403L 70.8598 13.5403L 71.8598 13.5403ZM 82.941 13.5403L 83.941 13.5403L 83.941 12.5403L 82.941 12.5403L 82.941 13.5403ZM 82.941 18.2209L 81.941 18.2209L 81.941 19.2209L 82.941 19.2209L 82.941 18.2209ZM 88.3137 18.2209L 89.0192 17.5122L 88.7266 17.2209L 88.3137 17.2209L 88.3137 18.2209ZM 91 20.8955L 92 20.8955L 92 20.48L 91.7056 20.1869L 91 20.8955ZM 91 56L 91 57L 92 57L 92 56L 91 56ZM 0 56L -1 56L -1 57L 0 57L 0 56ZM 0.705559 21.6042L 3.39191 18.9295L 1.98079 17.5122L -0.705559 20.1869L 0.705559 21.6042ZM 2.68635 19.2209L 13.5996 19.2209L 13.5996 17.2209L 2.68635 17.2209L 2.68635 19.2209ZM 14.5996 18.2209L 14.5996 13.5403L 12.5996 13.5403L 12.5996 18.2209L 14.5996 18.2209ZM 13.5996 14.5403L 23.1697 14.5403L 23.1697 12.5403L 13.5996 12.5403L 13.5996 14.5403ZM 22.5129 14.2943L 23.856 15.4644L 25.1698 13.9564L 23.8266 12.7863L 22.5129 14.2943ZM 25.5129 14.7104L 25.5129 10.0299L 23.5129 10.0299L 23.5129 14.7104L 25.5129 14.7104ZM 24.5129 11.0299L 37.7768 11.0299L 37.7768 9.02985L 24.5129 9.02985L 24.5129 11.0299ZM 58.7939 0.587173L 60.9765 3.59613L 62.5954 2.42178L 60.4128 -0.587173L 58.7939 0.587173ZM 60.8248 3.28479L 65.1901 18.4967L 67.1125 17.9451L 62.7472 2.73312L 60.8248 3.28479ZM 66.1513 19.2209L 71.8598 19.2209L 71.8598 17.2209L 66.1513 17.2209L 66.1513 19.2209ZM 72.8598 18.2209L 72.8598 13.5403L 70.8598 13.5403L 70.8598 18.2209L 72.8598 18.2209ZM 71.8598 14.5403L 82.941 14.5403L 82.941 12.5403L 71.8598 12.5403L 71.8598 14.5403ZM 81.941 13.5403L 81.941 18.2209L 83.941 18.2209L 83.941 13.5403L 81.941 13.5403ZM 82.941 19.2209L 88.3137 19.2209L 88.3137 17.2209L 82.941 17.2209L 82.941 19.2209ZM 87.6081 18.9295L 90.2944 21.6042L 91.7056 20.1869L 89.0192 17.5122L 87.6081 18.9295ZM 90 20.8955L 90 56L 92 56L 92 20.8955L 90 20.8955ZM 1 56L 1 20.8955L -1 20.8955L -1 56L 1 56ZM 41.5724 -0.424405L 36.8713 9.60545L 38.6822 10.4543L 43.3833 0.424405L 41.5724 -0.424405ZM 42.4779 1L 54.3985 1L 54.3985 -1L 42.4779 -1L 42.4779 1ZM 54.3985 1L 59.6033 1L 59.6033 -1L 54.3985 -1L 54.3985 1ZM 91 55L 54.3985 55L 54.3985 57L 91 57L 91 55ZM 54.3985 55L 0 55L 0 57L 54.3985 57L 54.3985 55Z"/>
<path id="path16_fill" d="M 42 21C 42 32.598 32.598 42 21 42C 9.40202 42 0 32.598 0 21C 0 9.40202 9.40202 0 21 0C 32.598 0 42 9.40202 42 21Z"/>
<path id="path17_stroke_2x" d="M 40 21C 40 31.4934 31.4934 40 21 40L 21 44C 33.7025 44 44 33.7025 44 21L 40 21ZM 21 40C 10.5066 40 2 31.4934 2 21L -2 21C -2 33.7025 8.29745 44 21 44L 21 40ZM 2 21C 2 10.5066 10.5066 2 21 2L 21 -2C 8.29745 -2 -2 8.29745 -2 21L 2 21ZM 21 2C 31.4934 2 40 10.5066 40 21L 44 21C 44 8.29745 33.7025 -2 21 -2L 21 2Z"/>
<path id="path18_stroke" d="M 40.3579 20.1508C 35.3406 15.0081 31.5239 12.3777 28.5992 11.3784C 25.6286 10.3635 23.5441 11.0263 22.1421 12.4633C 20.7881 13.8512 20.1397 15.8921 19.8218 17.5214C 19.6619 18.3431 19.5802 19.093 19.5405 19.6218C 19.5205 19.8891 19.5102 20.1096 19.5052 20.258C 19.5026 20.3335 19.5013 20.3942 19.5007 20.4338C 19.5003 20.4543 19.5002 20.4709 19.5001 20.4813C 19.5 20.4869 19.5 20.4915 19.5 20.4943C 19.5 20.4959 19.5 20.4973 19.5 20.4981C 19.5 20.4986 19.5 20.4991 19.5 20.4993C 19.5 20.4997 19.5 20.5 20 20.5C 20.5 20.5 20.5 20.5002 20.5 20.5002C 20.5 20.5002 20.5 20.5002 20.5 20.5C 20.5 20.4996 20.5 20.4991 20.5 20.4982C 20.5 20.4961 20.5 20.4933 20.5001 20.4891C 20.5001 20.48 20.5003 20.4675 20.5005 20.4498C 20.5011 20.4131 20.5023 20.3612 20.5046 20.2916C 20.5094 20.1496 20.5186 19.9497 20.5377 19.6966C 20.576 19.1843 20.6506 18.4929 20.8032 17.7129C 21.1103 16.1391 21.7119 14.3363 22.8579 13.1617C 23.9559 12.0362 25.6214 11.4178 28.2758 12.3247C 30.9761 13.2473 34.6594 15.7419 39.6421 20.8492L 40.3579 20.1508ZM 20 20.5C 19.5 20.5 19.5 20.4998 19.5 20.4997C 19.5 20.4998 19.5 20.4998 19.5 20.4999C 19.5 20.5003 19.5 20.5007 19.5 20.5015C 19.5 20.5035 19.5 20.506 19.4999 20.51C 19.4999 20.5185 19.4997 20.5302 19.4995 20.5469C 19.4989 20.5817 19.4978 20.6307 19.4954 20.6966C 19.4907 20.8313 19.4815 21.0204 19.4625 21.2605C 19.4242 21.7469 19.35 22.4018 19.1977 23.1417C 18.8916 24.6341 18.2924 26.3416 17.1509 27.4545C 16.0538 28.5242 14.3809 29.1168 11.717 28.251C 9.01386 27.3725 5.33027 24.9987 0.34905 20.142L -0.34905 20.858C 4.66973 25.7513 8.48614 28.2525 11.408 29.2021C 14.3691 30.1645 16.4462 29.5383 17.8491 28.1705C 19.2076 26.8459 19.8584 24.8971 20.1773 23.3427C 20.3375 22.5591 20.4196 21.8429 20.4594 21.3391C 20.4795 21.0841 20.4898 20.8733 20.4948 20.7319C 20.4973 20.6597 20.4987 20.6015 20.4993 20.5637C 20.4996 20.5442 20.4998 20.5282 20.4999 20.5182C 20.5 20.5128 20.5 20.5083 20.5 20.5056C 20.5 20.5041 20.5 20.5027 20.5 20.5019C 20.5 20.5014 20.5 20.501 20.5 20.5007C 20.5 20.5003 20.5 20.5 20 20.5ZM 20 20.5C 20 20 20.0002 20 20.0003 20C 20.0002 20 20.0002 20 20.0001 20C 19.9997 20 19.9993 20 19.9984 20C 19.9963 20 19.9938 20 19.9897 19.9999C 19.9808 19.9999 19.9688 19.9997 19.9516 19.9994C 19.9159 19.9988 19.8656 19.9977 19.7979 19.9953C 19.6597 19.9904 19.4654 19.981 19.219 19.9615C 18.7198 19.9222 18.0473 19.8461 17.2879 19.6899C 15.7564 19.3759 14.0021 18.7611 12.8579 17.5883C 11.757 16.4599 11.1489 14.7402 12.038 12.0062C 12.9399 9.23274 15.3762 5.4554 20.3579 0.349162L 19.6421 -0.349162C 14.6238 4.7946 12.0601 8.70476 11.087 11.6969C 10.1011 14.7285 10.743 16.8526 12.1421 18.2867C 13.4979 19.6764 15.4936 20.3428 17.0871 20.6695C 17.8902 20.8336 18.6239 20.9176 19.1404 20.9584C 19.4018 20.979 19.6177 20.9895 19.7626 20.9947C 19.8365 20.9973 19.8961 20.9987 19.9348 20.9993C 19.9549 20.9996 19.9712 20.9998 19.9815 20.9999C 19.9869 20.9999 19.9916 21 19.9943 21C 19.9959 21 19.9973 21 19.9981 21C 19.9986 21 19.999 21 19.9993 21C 19.9997 21 20 21 20 20.5ZM 20 20.5C 20 21 19.9998 21 19.9998 21C 19.9998 21 19.9998 21 20 21C 20.0004 21 20.0008 21 20.0017 21C 20.0038 21 20.0064 21 20.0105 21.0001C 20.0194 21.0001 20.0315 21.0003 20.0488 21.0005C 20.0846 21.0011 20.1351 21.0022 20.2029 21.0045C 20.3413 21.0091 20.5361 21.0181 20.7829 21.0367C 21.2825 21.0741 21.9564 21.1467 22.7168 21.2954C 24.2516 21.5947 26.0076 22.1807 27.1509 23.2955C 28.2451 24.3623 28.8478 25.9808 27.9644 28.5648C 27.0653 31.1947 24.6332 34.7843 19.6509 39.642L 20.3491 40.358C 25.3668 35.4657 27.9347 31.7428 28.9106 28.8883C 29.9022 25.9879 29.2549 23.9502 27.8491 22.5795C 26.4924 21.2568 24.4984 20.624 22.9082 20.3139C 22.1061 20.158 21.3738 20.0783 20.8577 20.0395C 20.5967 20.02 20.3813 20.0099 20.2365 20.005C 20.1627 20.0026 20.1034 20.0013 20.0648 20.0007C 20.0448 20.0003 20.0285 20.0002 20.0183 20.0001C 20.0129 20 20.0083 20 20.0056 20C 20.004 20 20.0026 20 20.0019 20C 20.0014 20 20.0009 20 20.0007 20C 20.0003 20 20 20 20 20.5Z"/>
<path id="path19_stroke" d="M 0 0.277108L -0.0533907 -1.22194L -1.5 -1.17042L -1.5 0.277108L 0 0.277108ZM 0 105L -1.5 105L -1.5 106.5L 0 106.5L 0 105ZM 83.771 105L 83.771 106.5L 84.2267 106.5L 84.6054 106.247L 83.771 105ZM 83.771 24.1165L 85.271 24.1165L 85.271 23.7627L 85.113 23.4462L 83.771 24.1165ZM 71.8645 0.277108L 73.077 -0.606019L 72.63 -1.2196L 71.871 -1.22288L 71.8645 0.277108ZM 89 101.5L 89.8344 102.747L 90.5051 102.298L 90.5 101.49L 89 101.5ZM 88.5 23.1165L 90 23.1069L 89.9969 22.6238L 89.7125 22.2333L 88.5 23.1165ZM 7.78037 0L 7.78686 -1.49999L 7.75691 -1.50012L 7.72698 -1.49905L 7.78037 0ZM -1.5 0.277108L -1.5 105L 1.5 105L 1.5 0.277108L -1.5 0.277108ZM 0 106.5L 83.771 106.5L 83.771 103.5L 0 103.5L 0 106.5ZM 85.271 105L 85.271 24.1165L 82.271 24.1165L 82.271 105L 85.271 105ZM 85.113 23.4462L 73.2064 -0.39312L 70.5226 0.947337L 82.4291 24.7867L 85.113 23.4462ZM 71.8645 -1.22289L 0 -1.22289L 0 1.77711L 71.8645 1.77711L 71.8645 -1.22289ZM 84.6054 106.247L 89.8344 102.747L 88.1656 100.253L 82.9367 103.753L 84.6054 106.247ZM 90.5 101.49L 90 23.1069L 87 23.126L 87.5 101.51L 90.5 101.49ZM 89.7125 22.2333L 73.077 -0.606019L 70.652 1.16024L 87.2875 23.9996L 89.7125 22.2333ZM 71.871 -1.22288L 7.78686 -1.49999L 7.77389 1.49999L 71.858 1.77709L 71.871 -1.22288ZM 7.72698 -1.49905L -0.0533907 -1.22194L 0.0533907 1.77616L 7.83376 1.49905L 7.72698 -1.49905Z"/>
<path id="path20_stroke" d="M 0 43.2189L 52.729 43.2189L 52.729 40.2189L 0 40.2189L 0 43.2189ZM 0 22.7851L 52.729 22.7851L 52.729 19.7851L 0 19.7851L 0 22.7851ZM 0 1.5L 52.729 1.5L 52.729 -1.5L 0 -1.5L 0 1.5Z"/>
<path id="path21_stroke" d="M 12.5108 56L 11.7669 56.6684L 12.0649 57L 12.5108 57L 12.5108 56ZM 25.1849 0L 25.7592 -0.818608L 25.3411 -1.112L 24.8583 -0.945161L 25.1849 0ZM 105 56L 105 57L 108.166 57L 105.574 55.1814L 105 56ZM 24.6105 0.818608L 104.426 56.8186L 105.574 55.1814L 25.7592 -0.818608L 24.6105 0.818608ZM 105 55L 12.5108 55L 12.5108 57L 105 57L 105 55ZM 13.2546 55.3316C 7.42986 48.8493 1.1613 38.3958 1.00306 28.044C 0.91324 22.8381 2.29926 17.8141 6.10064 13.1376C 9.8624 8.47722 16.0181 4.22566 25.5115 0.945161L 24.8583 -0.945161C 15.1245 2.41841 8.60753 6.84764 4.54436 11.8814C 0.520814 16.8992 -1.07041 22.5828 -0.996706 28.0746C -0.827893 39.1183 5.79369 50.0208 11.7669 56.6684L 13.2546 55.3316ZM 13.4861 56.2207L 26.1602 0.220741L 24.2095 -0.220741L 11.5354 55.7793L 13.4861 56.2207Z"/>
<path id="path22_stroke" d="M 10.1169 74.0567L 9.99408 73.5721L 9.92837 73.5887L 9.86947 73.6223L 10.1169 74.0567ZM 54.908 9.7676L 54.4126 9.70045L 54.4126 9.70045L 54.908 9.7676ZM 73.2549 20.4654L 73.7285 20.3052L 73.7249 20.2946L 73.7209 20.2842L 73.2549 20.4654ZM 37.9998 92L 38.0038 92.5L 37.9998 92ZM 10.2398 74.5414C 22.8999 71.3328 49.4335 53.8842 55.4035 9.83475L 54.4126 9.70045C 48.4949 53.3634 22.2415 70.4681 9.99408 73.5721L 10.2398 74.5414ZM 55.4035 9.83475C 55.8593 6.47195 56.481 4.16247 57.1997 2.67469C 57.9213 1.18093 58.6876 0.615882 59.3916 0.517023C 60.1208 0.41463 60.9947 0.777425 61.9995 1.63904C 63.0061 2.4996 64.024 3.7524 65.0437 5.24942C 67.0902 8.25022 69.02 12.0877 70.4497 15.197C 71.1638 16.7498 71.7479 18.1109 72.1555 19.0882C 72.3589 19.5759 72.5171 19.9653 72.6251 20.2343C 72.679 20.3683 72.7199 20.4714 72.7476 20.5415C 72.7614 20.5764 72.7717 20.6027 72.7787 20.6205C 72.7821 20.6293 72.7847 20.6358 72.7864 20.6403C 72.7872 20.6425 72.7879 20.644 72.7883 20.6451C 72.7885 20.6457 72.7886 20.646 72.7887 20.6463C 72.7888 20.6465 72.7888 20.6466 73.2549 20.4654C 73.7209 20.2842 73.7208 20.284 73.7207 20.2837C 73.7205 20.2833 73.7204 20.2828 73.7201 20.2822C 73.7196 20.281 73.7189 20.2792 73.718 20.2768C 73.7162 20.2721 73.7134 20.265 73.7098 20.2558C 73.7026 20.2375 73.6918 20.21 73.6777 20.1743C 73.6496 20.1032 73.6077 19.9975 73.5531 19.8616C 73.4443 19.5907 73.2836 19.1952 73.0784 18.7033C 72.6689 17.7212 72.0776 16.3437 71.3582 14.7792C 69.921 11.654 67.9519 7.74279 65.8701 4.68625C 64.8257 3.1546 63.7222 1.80159 62.6504 0.879921C 61.5768 -0.0406871 60.4153 -0.636533 59.2526 -0.473261C 58.0647 -0.306456 57.0824 0.618465 56.2992 2.2397C 55.5131 3.86693 54.8738 6.29747 54.4126 9.70045L 55.4035 9.83475ZM 72.7812 20.6256C 76.7355 32.3126 80.6213 49.9873 77.2173 64.7546C 75.5179 72.1454 72.0459 78.7317 65.8099 83.5533C 59.6066 88.3637 50.6556 91.4009 37.9959 91.5L 38.0038 92.5C 50.8177 92.3997 60.001 89.3233 66.4227 84.3435C 72.8116 79.3749 76.4551 72.4943 78.1917 64.9792C 81.6597 49.9347 77.6994 32.0414 73.7285 20.3052L 72.7812 20.6256ZM 37.9959 91.5C 23.0878 91.6167 13.5299 91.0375 7.76476 89.7976C 4.87759 89.1767 3.00145 88.4016 1.88132 87.512C 0.79463 86.6489 0.418308 85.6809 0.514378 84.5653L -0.481934 84.4795C -0.60835 85.9475 -0.0751437 87.2352 1.2594 88.2951C 2.56051 89.3284 4.61732 90.1435 7.55449 90.7752C 13.438 92.0406 23.0944 92.6167 38.0038 92.5L 37.9959 91.5ZM 0.514378 84.5653C 0.656048 82.9202 1.83023 81.118 3.67267 79.335C 5.50837 77.5563 7.90382 75.8921 10.3644 74.4912L 9.86947 73.6223C 7.37039 75.0462 4.87315 76.784 2.97725 78.6164C 1.08808 80.4446 -0.30828 82.463 -0.481934 84.4795L 0.514378 84.5653ZM -0.0950369 85.0099C 13.4465 88.1006 32.4909 88.0456 47.8761 79.1533C 63.3084 70.2338 74.9487 52.4881 73.7545 20.4468L 72.7552 20.484C 73.9385 52.2335 62.4246 69.5896 47.3757 78.2875C 32.2796 87.0126 13.516 87.0907 0.127481 84.035L -0.0950369 85.0099ZM 10.1324 74.5565C 18.2757 74.3038 30.281 70.7476 39.9121 60.9133C 49.5568 51.0652 56.772 34.9719 55.4073 9.7406L 54.4088 9.79461C 55.7612 34.7986 48.6121 50.6006 39.1977 60.2137C 29.7695 69.8406 18.0206 73.3113 10.1014 73.557L 10.1324 74.5565Z"/>
<path id="path23_stroke" d="M 21.5 62L 21.1 62.3L 21.3977 62.6969L 21.7969 62.4023L 21.5 62ZM 89.5 0L 89.916 -0.27735L 89.404 -1.04535L 89.0404 -0.19696L 89.5 0ZM 91.5 3L 92 3L 92 2.84861L 91.916 2.72265L 91.5 3ZM 25 66L 24.6799 65.6159L 24.315 65.92L 24.6 66.3L 25 66ZM 31 74L 31.2774 74.416L 31.7171 74.1228L 31.4 73.7L 31 74ZM 29.5 75L 29.1086 75.3111L 29.3947 75.6711L 29.7774 75.416L 29.5 75ZM 14 55.5L 13.6464 55.1464L 13.331 55.4619L 13.6086 55.8111L 14 55.5ZM 15.5 54L 15.9 53.7L 15.5541 53.2388L 15.1464 53.6464L 15.5 54ZM 0 77.5L -0.158114 77.0257L -0.800353 77.2397L -0.406867 77.7906L 0 77.5ZM 2.5 81L 2.09313 81.2906L 2.3632 81.6687L 2.76005 81.4271L 2.5 81ZM 23.5385 67.5L 23.9299 67.1889L 23.9299 67.1889L 23.5385 67.5ZM 15.5 67.0923L 15.205 66.6886L 15.5 67.0923ZM 18.4082 71L 18.6822 71.4182L 18.4082 71ZM 5.76676 74L 5.48591 73.5863L 5.76676 74ZM 7.22521 73L 6.94076 72.5888L 7.22521 73ZM 9.5 76.6781L 9.76496 77.1021L 9.76496 77.1021L 9.5 76.6781ZM 21.7969 62.4023C 32.3015 54.6489 47.8169 42.6367 61.4525 30.8153C 68.2709 24.9038 74.6319 19.0283 79.6587 13.7592C 84.6751 8.50052 88.4207 3.78763 89.9596 0.19696L 89.0404 -0.19696C 87.5793 3.21237 83.9499 7.81198 78.9351 13.0689C 73.9306 18.3155 67.6041 24.1587 60.7975 30.0597C 47.1831 41.8633 31.6985 53.8511 21.2031 61.5977L 21.7969 62.4023ZM 89.084 0.27735L 91.084 3.27735L 91.916 2.72265L 89.916 -0.27735L 89.084 0.27735ZM 91 3C 91 3.13339 90.9396 3.44019 90.6563 4.00686C 90.372 4.57671 89.9063 5.32903 89.1447 6.35914C 87.6091 8.43822 84.9448 11.5362 80.394 16.1489C 71.2779 25.3901 54.6709 40.6236 24.6799 65.6159L 25.3201 66.3841C 55.3291 41.3764 71.9721 26.1099 81.106 16.8511C 85.6802 12.2138 88.3909 9.06178 89.949 6.95336C 90.7343 5.88972 91.2452 5.06392 91.5507 4.45408C 91.8572 3.84106 92 3.36661 92 3L 91 3ZM 24.6 66.3L 30.6 74.3L 31.4 73.7L 25.4 65.7L 24.6 66.3ZM 30.7226 73.584L 29.2226 74.584L 29.7774 75.416L 31.2774 74.416L 30.7226 73.584ZM 14.3536 55.8536L 15.8536 54.3536L 15.1464 53.6464L 13.6464 55.1464L 14.3536 55.8536ZM 15.1 54.3L 21.1 62.3L 21.9 61.7L 15.9 53.7L 15.1 54.3ZM 20.7504 63.1889L 14.3914 55.1889L 13.6086 55.8111L 19.9676 63.8111L 20.7504 63.1889ZM -0.406867 77.7906L 2.09313 81.2906L 2.90687 80.7094L 0.406867 77.2094L -0.406867 77.7906ZM 29.8914 74.6889L 23.9299 67.1889L 23.1471 67.8111L 29.1086 75.3111L 29.8914 74.6889ZM 23.9299 67.1889L 20.7504 63.1889L 19.9676 63.8111L 23.1471 67.8111L 23.9299 67.1889ZM 20.0593 63.0998C 18.7173 64.1048 17.0327 65.353 15.205 66.6886L 15.795 67.496C 17.6253 66.1584 19.3147 64.9067 20.6587 63.9002L 20.0593 63.0998ZM 18.6822 71.4182C 20.7665 70.0527 22.5905 68.8179 23.8347 67.9028L 23.2422 67.0972C 22.0138 68.0009 20.2122 69.2204 18.1342 70.5818L 18.6822 71.4182ZM 15.0989 67.3908L 18.0071 71.2985L 18.8093 70.7015L 15.9011 66.7938L 15.0989 67.3908ZM 14.0196 74.422C 15.634 73.3959 17.2243 72.3734 18.6822 71.4182L 18.1342 70.5818C 16.6799 71.5346 15.0954 72.5534 13.4832 73.578L 14.0196 74.422ZM 10.588 70.2834L 13.3395 74.2834L 14.1634 73.7166L 11.412 69.7166L 10.588 70.2834ZM 5.48591 73.5863C 4.13781 74.5016 2.92543 75.2971 1.9379 75.902C 0.93642 76.5156 0.217925 76.9003 -0.158114 77.0257L 0.158114 77.9743C 0.660094 77.807 1.4736 77.3592 2.46031 76.7547C 3.46097 76.1416 4.69296 75.3334 6.04762 74.4137L 5.48591 73.5863ZM 15.205 66.6886C 12.5415 68.6351 9.58012 70.763 6.94076 72.5888L 7.50966 73.4112C 10.1564 71.5803 13.1283 69.4449 15.795 67.496L 15.205 66.6886ZM 6.94076 72.5888C 6.44248 72.9335 5.95672 73.2667 5.48591 73.5863L 6.04762 74.4137C 6.52041 74.0927 7.00976 73.757 7.50966 73.4112L 6.94076 72.5888ZM 2.76005 81.4271C 4.53849 80.3441 7.05299 78.7968 9.76496 77.1021L 9.23504 76.2541C 6.52598 77.9469 4.0164 79.4912 2.23995 80.5729L 2.76005 81.4271ZM 9.76496 77.1021C 11.1547 76.2337 12.5975 75.3258 14.0196 74.422L 13.4832 73.578C 12.063 74.4807 10.6234 75.3865 9.23504 76.2541L 9.76496 77.1021ZM 6.79996 73.263L 9.07476 76.9411L 9.92524 76.4151L 7.65045 72.737L 6.79996 73.263Z"/>
<path id="path24_stroke" d="M 42.5 0L 43.0244 -0.851446L 42.3516 -1.26585L 41.7929 -0.707107L 42.5 0ZM 85 42.5L 85.7071 43.2071L 86.4142 42.5L 85.7071 41.7929L 85 42.5ZM 42.5 85L 41.5 85L 41.5 86.7904L 43.0244 85.8514L 42.5 85ZM 42.5 42.5L 43.5 42.5L 43.5 40.0858L 41.7929 41.7929L 42.5 42.5ZM 20.5 64.5L 19.7929 63.7929L 20.9375 65.3992L 20.5 64.5ZM 97 42.5L 97.6149 43.2886L 98.6262 42.5L 97.6149 41.7114L 97 42.5ZM 50 42.5L 50.9848 42.6738L 51.4228 40.1914L 49.4022 41.6984L 50 42.5ZM 57.5 46.5L 58.4318 46.863L 59.3588 44.4837L 57.0625 45.6008L 57.5 46.5ZM 111.5 42.5L 112.024 43.3514L 113.407 42.5L 112.024 41.6486L 111.5 42.5ZM 0.707107 43.2071L 43.2071 0.707107L 41.7929 -0.707107L -0.707107 41.7929L 0.707107 43.2071ZM 41.7929 0.707107L 84.2929 43.2071L 85.7071 41.7929L 43.2071 -0.707107L 41.7929 0.707107ZM 84.2929 41.7929L 41.7929 84.2929L 43.2071 85.7071L 85.7071 43.2071L 84.2929 41.7929ZM 43.5 85L 43.5 42.5L 41.5 42.5L 41.5 85L 43.5 85ZM 41.7929 41.7929L 19.7929 63.7929L 21.2071 65.2071L 43.2071 43.2071L 41.7929 41.7929ZM 41.8851 0.788572L 96.3851 43.2886L 97.6149 41.7114L 43.1149 -0.788572L 41.8851 0.788572ZM 96.3851 41.7114L 41.8851 84.2114L 43.1149 85.7886L 97.6149 43.2886L 96.3851 41.7114ZM 43.4848 85.1738L 50.9848 42.6738L 49.0152 42.3262L 41.5152 84.8262L 43.4848 85.1738ZM 49.4022 41.6984L 19.9022 63.6984L 21.0978 65.3016L 50.5978 43.3016L 49.4022 41.6984ZM 43.4318 85.363L 58.4318 46.863L 56.5682 46.137L 41.5682 84.637L 43.4318 85.363ZM 57.0625 45.6008L 20.0625 63.6008L 20.9375 65.3992L 57.9375 47.3992L 57.0625 45.6008ZM 41.9756 0.851446L 110.976 43.3514L 112.024 41.6486L 43.0244 -0.851446L 41.9756 0.851446ZM 110.976 41.6486L 41.9756 84.1486L 43.0244 85.8514L 112.024 43.3514L 110.976 41.6486Z"/>
</defs>
</svg>
