<svg width="109" height="109" viewBox="0 0 109 109" version="1.1" xmlns="http://www.w3.org/2000/svg" xmlns:xlink="http://www.w3.org/1999/xlink">
<title>Group</title>
<desc>Created using Figma</desc>
<g id="Canvas" transform="matrix(0.5 0 0 0.5 -33.5 41.5)">
<g id="Group">
<g id="Rectangle 3">
<use xlink:href="#path0_fill" transform="translate(67 -83)" fill="#3E6AAB"/>
</g>
<g id="Group">
<g id="Vector 3">
<use xlink:href="#path1_stroke" transform="translate(107 -71)" fill="#FFFFFF" fill-opacity="0.3"/>
</g>
<g id="Vector 2">
<use xlink:href="#path2_stroke" transform="translate(107.248 -48.7878)" fill="#F6F0EB"/>
</g>
</g>
</g>
</g>
<defs>
<path id="path0_fill" d="M 0 0L 217 0L 217 217L 0 217L 0 0Z"/>
<path id="path1_stroke" d="M 67.1848 0L 67.6414 -1.4288L 67.1551 -1.58422L 66.675 -1.41072L 67.1848 0ZM 136.686 22.2122L 138.186 22.2122L 138.186 21.1168L 137.142 20.7834L 136.686 22.2122ZM 136.686 131.241L 136.139 132.637L 138.186 133.439L 138.186 131.241L 136.686 131.241ZM 67.1848 104.02L 67.7318 102.624L 67.1885 102.411L 66.6442 102.621L 67.1848 104.02ZM 0.988011 23.9208L 0.478235 22.5101L -0.496716 22.8624L -0.511829 23.899L 0.988011 23.9208ZM 1.49984 91.7028L 1.53727 89.1362L -1.46242 89.0924L -1.49984 91.6591L 1.49984 91.7028ZM 1.55224 88.1095L 1.62708 82.9762L -1.3726 82.9324L -1.44745 88.0658L 1.55224 88.1095ZM 1.64205 81.9495L 1.7169 76.8161L -1.28278 76.7724L -1.35763 81.9057L 1.64205 81.9495ZM 1.73187 75.7895L 1.80672 70.6561L -1.19296 70.6124L -1.26781 75.7457L 1.73187 75.7895ZM 1.82169 69.6295L 1.89654 64.4961L -1.10314 64.4524L -1.17799 69.5857L 1.82169 69.6295ZM 1.91151 63.4694L 1.98636 58.3361L -1.01332 58.2924L -1.08817 63.4257L 1.91151 63.4694ZM 2.00133 57.3094L 2.07618 52.1761L -0.923501 52.1323L -0.99835 57.2657L 2.00133 57.3094ZM 2.09115 51.1494L 2.166 46.0161L -0.833681 45.9723L -0.908531 51.1057L 2.09115 51.1494ZM 2.18097 44.9894L 2.25582 39.8561L -0.743862 39.8123L -0.818712 44.9457L 2.18097 44.9894ZM 2.27079 38.8294L 2.34564 33.696L -0.654043 33.6523L -0.728892 38.7857L 2.27079 38.8294ZM 2.36061 32.6694L 2.43546 27.536L -0.564224 27.4923L -0.639073 32.6256L 2.36061 32.6694ZM 2.45043 26.5094L 2.48785 23.9427L -0.511829 23.899L -0.549254 26.4656L 2.45043 26.5094ZM 1.49779 25.3315L 3.79629 24.501L 2.77673 21.6795L 0.478235 22.5101L 1.49779 25.3315ZM 4.71569 24.1687L 9.31268 22.5076L 8.29313 19.6861L 3.69613 21.3473L 4.71569 24.1687ZM 10.2321 22.1753L 14.8291 20.5142L 13.8095 17.6927L 9.21253 19.3539L 10.2321 22.1753ZM 15.7485 20.1819L 20.3455 18.5208L 19.3259 15.6993L 14.7289 17.3605L 15.7485 20.1819ZM 21.2649 18.1885L 25.8619 16.5274L 24.8423 13.7059L 20.2453 15.3671L 21.2649 18.1885ZM 26.7813 16.1951L 31.3783 14.534L 30.3587 11.7125L 25.7617 13.3737L 26.7813 16.1951ZM 32.2977 14.2017L 36.8947 12.5405L 35.8751 9.71911L 31.2781 11.3803L 32.2977 14.2017ZM 37.8141 12.2083L 42.4111 10.5471L 41.3915 7.72571L 36.7945 9.38688L 37.8141 12.2083ZM 43.3305 10.2149L 47.9275 8.55374L 46.9079 5.73231L 42.3109 7.39347L 43.3305 10.2149ZM 48.8469 8.22151L 53.4438 6.56034L 52.4243 3.7389L 47.8273 5.40007L 48.8469 8.22151ZM 54.3632 6.22811L 58.9602 4.56694L 57.9407 1.7455L 53.3437 3.40667L 54.3632 6.22811ZM 59.8796 4.23471L 64.4766 2.57354L 63.4571 -0.247901L 58.8601 1.41327L 59.8796 4.23471ZM 65.396 2.2413L 67.6945 1.41072L 66.675 -1.41072L 64.3765 -0.580134L 65.396 2.2413ZM 66.7281 1.4288L 69.1413 2.20006L 70.0546 -0.657547L 67.6414 -1.4288L 66.7281 1.4288ZM 70.1066 2.50856L 74.9331 4.05108L 75.8464 1.19347L 71.0199 -0.349044L 70.1066 2.50856ZM 75.8984 4.35958L 80.7248 5.90209L 81.6381 3.04449L 76.8117 1.50197L 75.8984 4.35958ZM 81.6901 6.2106L 86.5166 7.75311L 87.4299 4.8955L 82.6034 3.35299L 81.6901 6.2106ZM 87.4819 8.06161L 92.3083 9.60413L 93.2216 6.74652L 88.3951 5.20401L 87.4819 8.06161ZM 93.2736 9.91263L 98.1001 11.4551L 99.0133 8.59754L 94.1869 7.05502L 93.2736 9.91263ZM 99.0654 11.7636L 103.892 13.3062L 104.805 10.4486L 99.9786 8.90604L 99.0654 11.7636ZM 104.857 13.6147L 109.684 15.1572L 110.597 12.2996L 105.77 10.7571L 104.857 13.6147ZM 110.649 15.4657L 115.475 17.0082L 116.389 14.1506L 111.562 12.6081L 110.649 15.4657ZM 116.441 17.3167L 121.267 18.8592L 122.18 16.0016L 117.354 14.4591L 116.441 17.3167ZM 122.232 19.1677L 127.059 20.7102L 127.972 17.8526L 123.146 16.3101L 122.232 19.1677ZM 128.024 21.0187L 132.851 22.5612L 133.764 19.7036L 128.937 18.1611L 128.024 21.0187ZM 133.816 22.8697L 136.229 23.641L 137.142 20.7834L 134.729 20.0121L 133.816 22.8697ZM 135.186 22.2122L 135.186 24.736L 138.186 24.736L 138.186 22.2122L 135.186 22.2122ZM 135.186 25.7455L 135.186 30.7931L 138.186 30.7931L 138.186 25.7455L 135.186 25.7455ZM 135.186 31.8027L 135.186 36.8503L 138.186 36.8503L 138.186 31.8027L 135.186 31.8027ZM 135.186 37.8598L 135.186 42.9074L 138.186 42.9074L 138.186 37.8598L 135.186 37.8598ZM 135.186 43.9169L 135.186 48.9645L 138.186 48.9645L 138.186 43.9169L 135.186 43.9169ZM 135.186 49.974L 135.186 55.0216L 138.186 55.0216L 138.186 49.974L 135.186 49.974ZM 135.186 56.0312L 135.186 61.0788L 138.186 61.0788L 138.186 56.0312L 135.186 56.0312ZM 135.186 62.0883L 135.186 67.1359L 138.186 67.1359L 138.186 62.0883L 135.186 62.0883ZM 135.186 68.1454L 135.186 73.193L 138.186 73.193L 138.186 68.1454L 135.186 68.1454ZM 135.186 74.2025L 135.186 79.2502L 138.186 79.2502L 138.186 74.2025L 135.186 74.2025ZM 135.186 80.2597L 135.186 85.3073L 138.186 85.3073L 138.186 80.2597L 135.186 80.2597ZM 135.186 86.3168L 135.186 91.3644L 138.186 91.3644L 138.186 86.3168L 135.186 86.3168ZM 135.186 92.3739L 135.186 97.4215L 138.186 97.4215L 138.186 92.3739L 135.186 92.3739ZM 135.186 98.4311L 135.186 103.479L 138.186 103.479L 138.186 98.4311L 135.186 98.4311ZM 135.186 104.488L 135.186 109.536L 138.186 109.536L 138.186 104.488L 135.186 104.488ZM 135.186 110.545L 135.186 115.593L 138.186 115.593L 138.186 110.545L 135.186 110.545ZM 135.186 116.602L 135.186 121.65L 138.186 121.65L 138.186 116.602L 135.186 116.602ZM 135.186 122.66L 135.186 127.707L 138.186 127.707L 138.186 122.66L 135.186 122.66ZM 135.186 128.717L 135.186 131.241L 138.186 131.241L 138.186 128.717L 135.186 128.717ZM 137.233 129.844L 134.819 128.899L 133.725 131.692L 136.139 132.637L 137.233 129.844ZM 133.854 128.521L 129.028 126.63L 127.934 129.424L 132.76 131.314L 133.854 128.521ZM 128.062 126.252L 123.236 124.362L 122.142 127.155L 126.968 129.046L 128.062 126.252ZM 122.271 123.984L 117.444 122.094L 116.35 124.887L 121.177 126.777L 122.271 123.984ZM 116.479 121.716L 111.653 119.825L 110.558 122.619L 115.385 124.509L 116.479 121.716ZM 110.687 119.447L 105.861 117.557L 104.767 120.35L 109.593 122.241L 110.687 119.447ZM 104.895 117.179L 100.069 115.289L 98.975 118.082L 103.801 119.972L 104.895 117.179ZM 99.1037 114.91L 94.2773 113.02L 93.1832 115.814L 98.0097 117.704L 99.1037 114.91ZM 93.312 112.642L 88.4855 110.752L 87.3915 113.545L 92.2179 115.436L 93.312 112.642ZM 87.5202 110.374L 82.6938 108.483L 81.5997 111.277L 86.4262 113.167L 87.5202 110.374ZM 81.7285 108.105L 76.902 106.215L 75.808 109.009L 80.6345 110.899L 81.7285 108.105ZM 75.9368 105.837L 71.1103 103.947L 70.0163 106.74L 74.8427 108.63L 75.9368 105.837ZM 70.145 103.569L 67.7318 102.624L 66.6377 105.417L 69.051 106.362L 70.145 103.569ZM 66.6442 102.621L 64.3457 103.509L 65.4268 106.307L 67.7253 105.419L 66.6442 102.621ZM 63.4263 103.864L 58.8293 105.64L 59.9104 108.438L 64.5074 106.663L 63.4263 103.864ZM 57.9099 105.995L 53.3129 107.771L 54.394 110.569L 58.991 108.794L 57.9099 105.995ZM 52.3935 108.126L 47.7965 109.902L 48.8776 112.7L 53.4746 110.925L 52.3935 108.126ZM 46.8772 110.257L 42.2802 112.033L 43.3612 114.831L 47.9582 113.056L 46.8772 110.257ZM 41.3608 112.388L 36.7638 114.164L 37.8448 116.962L 42.4418 115.187L 41.3608 112.388ZM 35.8444 114.519L 31.2474 116.295L 32.3284 119.093L 36.9254 117.318L 35.8444 114.519ZM 30.328 116.65L 25.731 118.426L 26.812 121.224L 31.409 119.449L 30.328 116.65ZM 24.8116 118.781L 20.2146 120.557L 21.2956 123.355L 25.8926 121.58L 24.8116 118.781ZM 19.2952 120.912L 14.6982 122.688L 15.7792 125.486L 20.3762 123.711L 19.2952 120.912ZM 13.7788 123.043L 9.18178 124.819L 10.2628 127.617L 14.8598 125.842L 13.7788 123.043ZM 8.26238 125.174L 3.66538 126.95L 4.74643 129.748L 9.34343 127.973L 8.26238 125.174ZM 2.74598 127.305L 0.447486 128.193L 1.52854 130.991L 3.82703 130.104L 2.74598 127.305ZM 0.45485 25.3229L 2.75335 26.1969L 3.81967 23.3928L 1.52117 22.5188L 0.45485 25.3229ZM 3.67275 26.5466L 8.26974 28.2947L 9.33607 25.4906L 4.73907 23.7425L 3.67275 26.5466ZM 9.18914 28.6443L 13.7861 30.3924L 14.8525 27.5883L 10.2555 25.8402L 9.18914 28.6443ZM 14.7055 30.742L 19.3025 32.4901L 20.3689 29.686L 15.7719 27.9379L 14.7055 30.742ZM 20.2219 32.8398L 24.8189 34.5879L 25.8853 31.7838L 21.2883 30.0357L 20.2219 32.8398ZM 25.7383 34.9375L 30.3353 36.6856L 31.4017 33.8815L 26.8047 32.1334L 25.7383 34.9375ZM 31.2547 37.0352L 35.8517 38.7834L 36.918 35.9793L 32.321 34.2311L 31.2547 37.0352ZM 36.7711 39.133L 41.3681 40.8811L 42.4344 38.077L 37.8374 36.3289L 36.7711 39.133ZM 42.2875 41.2307L 46.8845 42.9788L 47.9508 40.1747L 43.3538 38.4266L 42.2875 41.2307ZM 47.8039 43.3285L 52.4009 45.0766L 53.4672 42.2725L 48.8702 40.5244L 47.8039 43.3285ZM 53.3203 45.4262L 57.9173 47.1743L 58.9836 44.3702L 54.3866 42.6221L 53.3203 45.4262ZM 58.8367 47.5239L 63.4337 49.272L 64.5 46.4679L 59.903 44.7198L 58.8367 47.5239ZM 64.3531 49.6217L 66.6516 50.4957L 67.7179 47.6916L 65.4194 46.8176L 64.3531 49.6217Z"/>
<path id="path2_stroke" d="M 66.9627 137.83L 66.3589 139.203L 66.9463 139.461L 67.5388 139.214L 66.9627 137.83ZM 66.9627 27.3381L 66.4223 25.9388L 65.4627 26.3094L 65.4627 27.3381L 66.9627 27.3381ZM -1.5 68.6136L -1.5 108.383L 1.5 108.383L 1.5 68.6136L -1.5 68.6136ZM -1.5 108.383L -1.5 169.788L 1.5 169.788L 1.5 108.383L -1.5 108.383ZM -0.603807 109.757L 66.3589 139.203L 67.5665 136.456L 0.603807 107.01L -0.603807 109.757ZM 68.4627 137.83L 68.4627 27.3381L 65.4627 27.3381L 65.4627 137.83L 68.4627 137.83ZM 67.5388 139.214L 138.328 109.768L 137.176 106.998L 66.3866 136.445L 67.5388 139.214ZM 67.5031 28.7374L 138.292 1.39928L 137.211 -1.39928L 66.4223 25.9388L 67.5031 28.7374Z"/>
</defs>
</svg>
