<svg width="119" height="163" viewBox="0 0 119 163" version="1.1" xmlns="http://www.w3.org/2000/svg" xmlns:xlink="http://www.w3.org/1999/xlink">
<title>MicroClass</title>
<desc>Created using Figma</desc>
<g id="Canvas" transform="translate(-429 195)">
<g id="MicroClass">
<g id="Vector 3">
<use xlink:href="#path0_stroke" transform="translate(431 -193)" fill="#FFFFFF" fill-opacity="0.3"/>
</g>
<g id="Vector 2">
<use xlink:href="#path1_stroke" transform="translate(431.209 -174.374)" fill="#F6F0EB"/>
</g>
</g>
</g>
<defs>
<path id="path0_stroke" d="M 56.4741 0L 56.9298 -1.42912L 56.4446 -1.58382L 55.9655 -1.41111L 56.4741 0ZM 114.895 18.6259L 116.395 18.6259L 116.395 17.5297L 115.351 17.1967L 114.895 18.6259ZM 114.895 110.051L 114.349 111.448L 116.395 112.247L 116.395 110.051L 114.895 110.051ZM 56.4741 87.2253L 57.02 85.8282L 56.4779 85.6164L 55.9348 85.8257L 56.4741 87.2253ZM 0.830502 20.0586L 0.321819 18.6475L -0.654175 18.9993L -0.669338 20.0367L 0.830502 20.0586ZM 1.49984 76.9002L 1.53829 74.2697L -1.46139 74.2258L -1.49984 76.8564L 1.49984 76.9002ZM 1.55367 73.2175L 1.63057 67.9564L -1.36911 67.9125L -1.44601 73.1736L 1.55367 73.2175ZM 1.64595 66.9042L 1.72285 61.6431L -1.27683 61.5992L -1.35373 66.8603L 1.64595 66.9042ZM 1.73822 60.5909L 1.81512 55.3298L -1.18456 55.2859L -1.26145 60.547L 1.73822 60.5909ZM 1.8305 54.2776L 1.9074 49.0165L -1.09228 48.9726L -1.16918 54.2337L 1.8305 54.2776ZM 1.92278 47.9643L 1.99968 42.7032L -1 42.6593L -1.0769 47.9204L 1.92278 47.9643ZM 2.01506 41.651L 2.09196 36.3899L -0.907723 36.346L -0.984621 41.6071L 2.01506 41.651ZM 2.10734 35.3377L 2.18424 30.0766L -0.815445 30.0327L -0.892343 35.2938L 2.10734 35.3377ZM 2.19961 29.0244L 2.27651 23.7633L -0.723166 23.7194L -0.800065 28.9805L 2.19961 29.0244ZM 2.29189 22.7111L 2.33034 20.0805L -0.669338 20.0367L -0.707787 22.6672L 2.29189 22.7111ZM 1.33919 21.4697L 3.65767 20.6339L 2.6403 17.8117L 0.321819 18.6475L 1.33919 21.4697ZM 4.58506 20.2996L 9.22203 18.6281L 8.20467 15.8059L 3.5677 17.4774L 4.58506 20.2996ZM 10.1494 18.2938L 14.7864 16.6222L 13.769 13.8L 9.13206 15.4715L 10.1494 18.2938ZM 15.7138 16.2879L 20.3508 14.6164L 19.3334 11.7941L 14.6964 13.4657L 15.7138 16.2879ZM 21.2782 14.2821L 25.9151 12.6105L 24.8978 9.78828L 20.2608 11.4598L 21.2782 14.2821ZM 26.8425 12.2762L 31.4795 10.6046L 30.4621 7.78242L 25.8252 9.45397L 26.8425 12.2762ZM 32.4069 10.2703L 37.0439 8.59878L 36.0265 5.77655L 31.3895 7.44811L 32.4069 10.2703ZM 37.9713 8.26447L 42.6082 6.59292L 41.5909 3.77069L 36.9539 5.44224L 37.9713 8.26447ZM 43.5356 6.25861L 48.1726 4.58706L 47.1552 1.76483L 42.5182 3.43638L 43.5356 6.25861ZM 49.1 4.25275L 53.7369 2.5812L 52.7196 -0.241028L 48.0826 1.43052L 49.1 4.25275ZM 54.6643 2.24689L 56.9828 1.41111L 55.9655 -1.41111L 53.647 -0.575338L 54.6643 2.24689ZM 56.0185 1.42912L 58.4527 2.2052L 59.364 -0.653047L 56.9298 -1.42912L 56.0185 1.42912ZM 59.4264 2.51563L 64.2948 4.06779L 65.2061 1.20954L 60.3377 -0.342616L 59.4264 2.51563ZM 65.2685 4.37822L 70.1369 5.93037L 71.0482 3.07212L 66.1798 1.51997L 65.2685 4.37822ZM 71.1106 6.2408L 75.979 7.79296L 76.8903 4.93471L 72.0219 3.38255L 71.1106 6.2408ZM 76.9527 8.10339L 81.8211 9.65554L 82.7324 6.79729L 77.864 5.24514L 76.9527 8.10339ZM 82.7948 9.96597L 87.6633 11.5181L 88.5745 8.65988L 83.7061 7.10773L 82.7948 9.96597ZM 88.6369 11.8286L 93.5054 13.3807L 94.4166 10.5225L 89.5482 8.97031L 88.6369 11.8286ZM 94.479 13.6911L 99.3475 15.2433L 100.259 12.3851L 95.3903 10.8329L 94.479 13.6911ZM 100.321 15.5537L 105.19 17.1059L 106.101 14.2476L 101.232 12.6955L 100.321 15.5537ZM 106.163 17.4163L 111.032 18.9685L 111.943 16.1102L 107.075 14.5581L 106.163 17.4163ZM 112.005 19.2789L 114.44 20.055L 115.351 17.1967L 112.917 16.4207L 112.005 19.2789ZM 113.395 18.6259L 113.395 21.1654L 116.395 21.1654L 116.395 18.6259L 113.395 18.6259ZM 113.395 22.1813L 113.395 27.2604L 116.395 27.2604L 116.395 22.1813L 113.395 22.1813ZM 113.395 28.2762L 113.395 33.3554L 116.395 33.3554L 116.395 28.2762L 113.395 28.2762ZM 113.395 34.3712L 113.395 39.4504L 116.395 39.4504L 116.395 34.3712L 113.395 34.3712ZM 113.395 40.4662L 113.395 45.5454L 116.395 45.5454L 116.395 40.4662L 113.395 40.4662ZM 113.395 46.5612L 113.395 51.6404L 116.395 51.6404L 116.395 46.5612L 113.395 46.5612ZM 113.395 52.6562L 113.395 57.7353L 116.395 57.7353L 116.395 52.6562L 113.395 52.6562ZM 113.395 58.7512L 113.395 63.8303L 116.395 63.8303L 116.395 58.7512L 113.395 58.7512ZM 113.395 64.8462L 113.395 69.9253L 116.395 69.9253L 116.395 64.8462L 113.395 64.8462ZM 113.395 70.9411L 113.395 76.0203L 116.395 76.0203L 116.395 70.9411L 113.395 70.9411ZM 113.395 77.0361L 113.395 82.1153L 116.395 82.1153L 116.395 77.0361L 113.395 77.0361ZM 113.395 83.1311L 113.395 88.2103L 116.395 88.2103L 116.395 83.1311L 113.395 83.1311ZM 113.395 89.2261L 113.395 94.3053L 116.395 94.3053L 116.395 89.2261L 113.395 89.2261ZM 113.395 95.3211L 113.395 100.4L 116.395 100.4L 116.395 95.3211L 113.395 95.3211ZM 113.395 101.416L 113.395 106.495L 116.395 106.495L 116.395 101.416L 113.395 101.416ZM 113.395 107.511L 113.395 110.051L 116.395 110.051L 116.395 107.511L 113.395 107.511ZM 115.441 108.653L 113.007 107.702L 111.915 110.497L 114.349 111.448L 115.441 108.653ZM 112.033 107.322L 107.165 105.42L 106.073 108.214L 110.941 110.116L 112.033 107.322ZM 106.191 105.039L 101.323 103.137L 100.231 105.932L 105.099 107.834L 106.191 105.039ZM 100.349 102.757L 95.4806 100.855L 94.3888 103.649L 99.2572 105.551L 100.349 102.757ZM 94.5069 100.474L 89.6384 98.5723L 88.5467 101.367L 93.4151 103.269L 94.5069 100.474ZM 88.6648 98.1919L 83.7963 96.2898L 82.7046 99.0841L 87.573 100.986L 88.6648 98.1919ZM 82.8227 95.9094L 77.9542 94.0072L 76.8625 96.8015L 81.7309 98.7036L 82.8227 95.9094ZM 76.9805 93.6268L 72.1121 91.7247L 71.0204 94.519L 75.8888 96.4211L 76.9805 93.6268ZM 71.1384 91.3443L 66.27 89.4422L 65.1783 92.2365L 70.0467 94.1386L 71.1384 91.3443ZM 65.2963 89.0618L 60.4279 87.1596L 59.3362 89.9539L 64.2046 91.8561L 65.2963 89.0618ZM 59.4542 86.7792L 57.02 85.8282L 55.9283 88.6225L 58.3625 89.5735L 59.4542 86.7792ZM 55.9348 85.8257L 53.6163 86.7191L 54.695 89.5185L 57.0135 88.625L 55.9348 85.8257ZM 52.6889 87.0765L 48.0519 88.8634L 49.1307 91.6628L 53.7676 89.8758L 52.6889 87.0765ZM 47.1245 89.2208L 42.4875 91.0078L 43.5663 93.8071L 48.2033 92.0202L 47.1245 89.2208ZM 41.5602 91.3651L 36.9232 93.1521L 38.002 95.9514L 42.6389 94.1645L 41.5602 91.3651ZM 35.9958 93.5095L 31.3588 95.2964L 32.4376 98.0957L 37.0746 96.3088L 35.9958 93.5095ZM 30.4314 95.6538L 25.7945 97.4407L 26.8732 100.24L 31.5102 98.4531L 30.4314 95.6538ZM 24.8671 97.7981L 20.2301 99.585L 21.3089 102.384L 25.9458 100.597L 24.8671 97.7981ZM 19.3027 99.9424L 14.6657 101.729L 15.7445 104.529L 20.3815 102.742L 19.3027 99.9424ZM 13.7383 102.087L 9.10136 103.874L 10.1801 106.673L 14.8171 104.886L 13.7383 102.087ZM 8.17397 104.231L 3.537 106.018L 4.61576 108.817L 9.25273 107.03L 8.17397 104.231ZM 2.6096 106.375L 0.291118 107.269L 1.36989 110.068L 3.68837 109.175L 2.6096 106.375ZM 0.298471 21.4611L 2.61696 22.3406L 3.68102 19.5357L 1.36253 18.6561L 0.298471 21.4611ZM 3.54435 22.6924L 8.18132 24.4515L 9.24538 21.6465L 4.60841 19.8875L 3.54435 22.6924ZM 9.10871 24.8033L 13.7457 26.5623L 14.8097 23.7573L 10.1728 21.9983L 9.10871 24.8033ZM 14.6731 26.9141L 19.31 28.6732L 20.3741 25.8682L 15.7371 24.1092L 14.6731 26.9141ZM 20.2374 29.025L 24.8744 30.784L 25.9385 27.979L 21.3015 26.22L 20.2374 29.025ZM 25.8018 31.1358L 30.4388 32.8948L 31.5028 30.0899L 26.8659 28.3309L 25.8018 31.1358ZM 31.3662 33.2467L 36.0031 35.0057L 37.0672 32.2007L 32.4302 30.4417L 31.3662 33.2467ZM 36.9305 35.3575L 41.5675 37.1165L 42.6316 34.3116L 37.9946 32.5525L 36.9305 35.3575ZM 42.4949 37.4684L 47.1319 39.2274L 48.1959 36.4224L 43.559 34.6634L 42.4949 37.4684ZM 48.0593 39.5792L 52.6962 41.3382L 53.7603 38.5333L 49.1233 36.7742L 48.0593 39.5792ZM 53.6236 41.69L 55.9421 42.5696L 57.0062 39.7646L 54.6877 38.8851L 53.6236 41.69Z"/>
<path id="path1_stroke" d="M 56.2875 115.576L 55.6849 116.949L 56.2711 117.207L 56.8624 116.961L 56.2875 115.576ZM 56.2875 22.9241L 55.7483 21.5244L 54.7875 21.8945L 54.7875 22.9241L 56.2875 22.9241ZM -1.5 57.5354L -1.5 90.884L 1.5 90.884L 1.5 57.5354L -1.5 57.5354ZM -1.5 90.884L -1.5 142.374L 1.5 142.374L 1.5 90.884L -1.5 90.884ZM -0.60258 92.2577L 55.6849 116.949L 56.8901 114.202L 0.60258 89.5104L -0.60258 92.2577ZM 57.7875 115.576L 57.7875 22.9241L 54.7875 22.9241L 54.7875 115.576L 57.7875 115.576ZM 56.8624 116.961L 116.366 92.2695L 115.217 89.4986L 55.7126 114.19L 56.8624 116.961ZM 56.8267 24.3238L 116.331 1.39972L 115.252 -1.39972L 55.7483 21.5244L 56.8267 24.3238Z"/>
</defs>
</svg>
