<svg width="413" height="142" viewBox="0 0 413 142" version="1.1" xmlns="http://www.w3.org/2000/svg" xmlns:xlink="http://www.w3.org/1999/xlink">
<title>zaafc</title>
<desc>Created using Figma</desc>
<g id="Canvas" transform="translate(436 115)">
<g id="zaafc">
<g id="zaafc">
<mask id="mask0_outline_out">
<rect id="mask0_outline_inv" fill="white" x="2" y="17" width="367" height="109" transform="translate(-417 -115)"/>
<use xlink:href="#path0_fill" fill="black" transform="translate(-417 -115)"/>
</mask>
<g mask="url(#mask0_outline_out)">
<use xlink:href="#path1_stroke_2x" transform="translate(-417 -115)" fill="#F6F4D2"/>
</g>
</g>
<g id="Rectangle">
<mask id="mask1_outline_ins">
<use xlink:href="#path2_fill" fill="white" transform="translate(-436 -115)"/>
</mask>
<g mask="url(#mask1_outline_ins)">
<use xlink:href="#path3_stroke_2x" transform="translate(-436 -115)" fill="#F6F4D2"/>
</g>
</g>
</g>
</g>
<defs>
<path id="path0_fill" d="M 51.984 50.728L 51.984 59.8L 19.44 110.488L 51.984 110.488L 51.984 121L 5.04 121L 5.04 111.928L 37.728 61.24L 5.76 61.24L 5.76 50.728L 51.984 50.728ZM 110.933 49C 119.189 49 125.189 50.872 128.933 54.616C 132.773 58.264 134.693 64.12 134.693 72.184L 134.693 121L 123.029 121L 123.029 109.768C 117.461 118.408 111.173 122.728 104.165 122.728C 98.5969 122.728 94.1329 120.808 90.7729 116.968C 87.5089 113.128 85.8769 107.896 85.8769 101.272L 85.8769 97.24C 85.8769 91.48 87.8449 86.728 91.7809 82.984C 95.7169 79.144 100.997 77.224 107.621 77.224C 111.269 77.224 116.213 77.848 122.453 79.096L 122.453 71.176C 122.453 67.048 121.493 64.072 119.573 62.248C 117.749 60.424 114.869 59.512 110.933 59.512C 106.325 59.512 99.8449 60.232 91.4929 61.672L 91.4929 51.16C 100.517 49.72 106.997 49 110.933 49ZM 110.645 86.728C 106.613 86.728 103.541 87.784 101.429 89.896C 99.3169 92.008 98.2609 94.984 98.2609 98.824L 98.2609 100.408C 98.2609 103.96 99.0769 106.744 100.709 108.76C 102.341 110.776 104.405 111.784 106.901 111.784C 109.493 111.784 112.133 110.68 114.821 108.472C 117.605 106.168 120.149 102.952 122.453 98.824L 122.453 87.736C 118.805 87.064 114.869 86.728 110.645 86.728ZM 197.22 49C 205.476 49 211.476 50.872 215.22 54.616C 219.06 58.264 220.98 64.12 220.98 72.184L 220.98 121L 209.316 121L 209.316 109.768C 203.748 118.408 197.46 122.728 190.452 122.728C 184.884 122.728 180.42 120.808 177.06 116.968C 173.796 113.128 172.164 107.896 172.164 101.272L 172.164 97.24C 172.164 91.48 174.132 86.728 178.068 82.984C 182.004 79.144 187.284 77.224 193.908 77.224C 197.556 77.224 202.5 77.848 208.74 79.096L 208.74 71.176C 208.74 67.048 207.78 64.072 205.86 62.248C 204.036 60.424 201.156 59.512 197.22 59.512C 192.612 59.512 186.132 60.232 177.78 61.672L 177.78 51.16C 186.804 49.72 193.284 49 197.22 49ZM 196.932 86.728C 192.9 86.728 189.828 87.784 187.716 89.896C 185.604 92.008 184.548 94.984 184.548 98.824L 184.548 100.408C 184.548 103.96 185.364 106.744 186.996 108.76C 188.628 110.776 190.692 111.784 193.188 111.784C 195.78 111.784 198.42 110.68 201.108 108.472C 203.892 106.168 206.436 102.952 208.74 98.824L 208.74 87.736C 205.092 87.064 201.156 86.728 196.932 86.728ZM 287.972 20.92C 291.14 20.92 294.164 21.256 297.044 21.928L 297.044 31.72C 294.164 31.24 291.188 31 288.116 31C 285.14 31 282.788 31.96 281.06 33.88C 279.428 35.8 278.612 38.728 278.612 42.664L 278.612 50.728L 293.012 50.728L 293.012 60.808L 278.612 60.808L 278.612 121L 266.372 121L 266.372 60.808L 256.292 60.808L 256.292 50.728L 266.372 50.728L 266.372 43.384C 266.468 35.896 268.34 30.28 271.988 26.536C 275.636 22.792 280.964 20.92 287.972 20.92ZM 350.463 49C 354.783 49 359.679 49.624 365.151 50.872L 364.863 61.672C 359.295 60.424 354.495 59.8 350.463 59.8C 345.951 59.8 342.495 61.048 340.095 63.544C 337.791 66.04 336.639 69.592 336.639 74.2L 336.639 97.384C 336.639 102.184 337.839 105.832 340.239 108.328C 342.735 110.728 346.143 111.928 350.463 111.928C 353.151 111.928 355.503 111.784 357.519 111.496C 359.535 111.208 361.983 110.728 364.863 110.056L 365.151 120.856C 359.295 122.104 354.351 122.728 350.319 122.728C 333.039 122.728 324.399 113.992 324.399 96.52L 324.399 75.208C 324.399 57.736 333.087 49 350.463 49Z"/>
<path id="path1_stroke_2x" d="M 51.984 50.728L 54.984 50.728L 54.984 47.728L 51.984 47.728L 51.984 50.728ZM 51.984 59.8L 54.5085 61.4208L 54.984 60.6802L 54.984 59.8L 51.984 59.8ZM 19.44 110.488L 16.9155 108.867L 13.9488 113.488L 19.44 113.488L 19.44 110.488ZM 51.984 110.488L 54.984 110.488L 54.984 107.488L 51.984 107.488L 51.984 110.488ZM 51.984 121L 51.984 124L 54.984 124L 54.984 121L 51.984 121ZM 5.04 121L 2.04 121L 2.04 124L 5.04 124L 5.04 121ZM 5.04 111.928L 2.51879 110.302L 2.04 111.045L 2.04 111.928L 5.04 111.928ZM 37.728 61.24L 40.2492 62.8659L 43.2324 58.24L 37.728 58.24L 37.728 61.24ZM 5.76 61.24L 2.76 61.24L 2.76 64.24L 5.76 64.24L 5.76 61.24ZM 5.76 50.728L 5.76 47.728L 2.76 47.728L 2.76 50.728L 5.76 50.728ZM 48.984 50.728L 48.984 59.8L 54.984 59.8L 54.984 50.728L 48.984 50.728ZM 49.4595 58.1792L 16.9155 108.867L 21.9645 112.109L 54.5085 61.4208L 49.4595 58.1792ZM 19.44 113.488L 51.984 113.488L 51.984 107.488L 19.44 107.488L 19.44 113.488ZM 48.984 110.488L 48.984 121L 54.984 121L 54.984 110.488L 48.984 110.488ZM 51.984 118L 5.04 118L 5.04 124L 51.984 124L 51.984 118ZM 8.04 121L 8.04 111.928L 2.04 111.928L 2.04 121L 8.04 121ZM 7.56121 113.554L 40.2492 62.8659L 35.2068 59.6141L 2.51879 110.302L 7.56121 113.554ZM 37.728 58.24L 5.76 58.24L 5.76 64.24L 37.728 64.24L 37.728 58.24ZM 8.76 61.24L 8.76 50.728L 2.76 50.728L 2.76 61.24L 8.76 61.24ZM 5.76 53.728L 51.984 53.728L 51.984 47.728L 5.76 47.728L 5.76 53.728ZM 128.933 54.616L 126.812 56.7373L 126.839 56.7645L 126.867 56.791L 128.933 54.616ZM 134.693 121L 134.693 124L 137.693 124L 137.693 121L 134.693 121ZM 123.029 121L 120.029 121L 120.029 124L 123.029 124L 123.029 121ZM 123.029 109.768L 126.029 109.768L 126.029 99.5747L 120.507 108.143L 123.029 109.768ZM 90.7729 116.968L 88.4871 118.911L 88.501 118.927L 88.5151 118.944L 90.7729 116.968ZM 91.7809 82.984L 93.8485 85.1577L 93.8623 85.1446L 93.8758 85.1313L 91.7809 82.984ZM 122.453 79.096L 121.865 82.0377L 125.453 82.7554L 125.453 79.096L 122.453 79.096ZM 119.573 62.248L 117.452 64.3693L 117.479 64.3965L 117.507 64.423L 119.573 62.248ZM 91.4929 61.672L 88.4929 61.672L 88.4929 65.2335L 92.0026 64.6284L 91.4929 61.672ZM 91.4929 51.16L 91.0201 48.1975L 88.4929 48.6008L 88.4929 51.16L 91.4929 51.16ZM 114.821 108.472L 116.725 110.79L 116.734 110.783L 114.821 108.472ZM 122.453 98.824L 125.072 100.286L 125.453 99.6045L 125.453 98.824L 122.453 98.824ZM 122.453 87.736L 125.453 87.736L 125.453 85.2382L 122.996 84.7856L 122.453 87.736ZM 110.933 52C 118.826 52 123.876 53.8018 126.812 56.7373L 131.054 52.4947C 126.502 47.9422 119.552 46 110.933 46L 110.933 52ZM 126.867 56.791C 129.86 59.6345 131.693 64.5169 131.693 72.184L 137.693 72.184C 137.693 63.7231 135.686 56.8935 130.999 52.441L 126.867 56.791ZM 131.693 72.184L 131.693 121L 137.693 121L 137.693 72.184L 131.693 72.184ZM 134.693 118L 123.029 118L 123.029 124L 134.693 124L 134.693 118ZM 126.029 121L 126.029 109.768L 120.029 109.768L 120.029 121L 126.029 121ZM 120.507 108.143C 115.214 116.356 109.73 119.728 104.165 119.728L 104.165 125.728C 112.616 125.728 119.707 120.46 125.551 111.393L 120.507 108.143ZM 104.165 119.728C 99.3731 119.728 95.7649 118.117 93.0306 114.992L 88.5151 118.944C 92.5008 123.499 97.8206 125.728 104.165 125.728L 104.165 119.728ZM 93.0587 115.025C 90.384 111.878 88.8769 107.411 88.8769 101.272L 82.8769 101.272C 82.8769 108.381 84.6337 114.378 88.4871 118.911L 93.0587 115.025ZM 88.8769 101.272L 88.8769 97.24L 82.8769 97.24L 82.8769 101.272L 88.8769 101.272ZM 88.8769 97.24C 88.8769 92.2462 90.5469 88.2982 93.8485 85.1577L 89.7132 80.8103C 85.1429 85.1578 82.8769 90.7138 82.8769 97.24L 88.8769 97.24ZM 93.8758 85.1313C 97.1402 81.9466 101.609 80.224 107.621 80.224L 107.621 74.224C 100.385 74.224 94.2935 76.3414 89.6859 80.8367L 93.8758 85.1313ZM 107.621 80.224C 111.081 80.2181 115.731 80.809 121.865 82.0377L 123.041 76.1543C 116.695 74.887 111.457 74.2299 107.621 74.224L 107.621 80.224ZM 125.453 79.096L 125.453 71.176L 119.453 71.176L 119.453 79.096L 125.453 79.096ZM 125.453 71.176C 125.453 66.6762 124.418 62.7127 121.639 60.073L 117.507 64.423C 118.568 65.4313 119.453 67.4198 119.453 71.176L 125.453 71.176ZM 121.694 60.1267C 119.072 57.5044 115.254 56.512 110.933 56.512L 110.933 62.512C 114.484 62.512 116.426 63.3436 117.452 64.3693L 121.694 60.1267ZM 110.933 56.512C 106.159 56.5166 99.4242 57.2616 90.9832 58.7156L 92.0026 64.6284C 100.266 63.2024 106.491 62.5074 110.933 62.512L 110.933 56.512ZM 94.4929 61.672L 94.4929 51.16L 88.4929 51.16L 88.4929 61.672L 94.4929 61.672ZM 91.9656 54.1225C 100.919 52.6929 107.163 51.9954 110.933 52L 110.933 46C 106.831 46.0046 100.115 46.7471 91.0201 48.1975L 91.9656 54.1225ZM 110.645 83.728C 106.104 83.728 102.157 84.9256 99.3076 87.7747L 103.55 92.0173C 104.925 90.6424 107.122 89.728 110.645 89.728L 110.645 83.728ZM 99.3076 87.7747C 96.4846 90.5977 95.2609 94.4262 95.2609 98.824L 101.261 98.824C 101.261 95.5418 102.149 93.4183 103.55 92.0173L 99.3076 87.7747ZM 95.2609 98.824L 95.2609 100.408L 101.261 100.408L 101.261 98.824L 95.2609 98.824ZM 95.2609 100.408C 95.2609 104.395 96.1771 107.93 98.3771 110.648L 103.041 106.872C 101.977 105.558 101.261 103.525 101.261 100.408L 95.2609 100.408ZM 98.3771 110.648C 100.553 113.335 103.459 114.784 106.901 114.784L 106.901 108.784C 105.35 108.784 104.129 108.217 103.041 106.872L 98.3771 110.648ZM 106.901 114.784C 110.393 114.784 113.684 113.288 116.725 110.79L 112.917 106.154C 110.581 108.072 108.593 108.784 106.901 108.784L 106.901 114.784ZM 116.734 110.783C 119.749 108.266 122.643 104.619 125.072 100.286L 119.833 97.3619C 117.655 101.285 115.46 104.07 112.908 106.161L 116.734 110.783ZM 125.453 98.824L 125.453 87.736L 119.453 87.736L 119.453 98.824L 125.453 98.824ZM 122.996 84.7856C 119.205 84.0908 114.997 83.7307 110.645 83.728L 110.645 89.728C 114.741 89.7253 118.405 90.0372 121.909 90.6864L 122.996 84.7856ZM 215.22 54.616L 213.099 56.7373L 213.126 56.7645L 213.154 56.791L 215.22 54.616ZM 220.98 121L 220.98 124L 223.98 124L 223.98 121L 220.98 121ZM 209.316 121L 206.316 121L 206.316 124L 209.316 124L 209.316 121ZM 209.316 109.768L 212.316 109.768L 212.316 99.5747L 206.795 108.143L 209.316 109.768ZM 177.06 116.968L 174.775 118.911L 174.788 118.927L 174.803 118.944L 177.06 116.968ZM 178.068 82.984L 180.136 85.1577L 180.15 85.1446L 180.163 85.1313L 178.068 82.984ZM 208.74 79.096L 208.152 82.0377L 211.74 82.7554L 211.74 79.096L 208.74 79.096ZM 205.86 62.248L 203.739 64.3693L 203.766 64.3965L 203.794 64.423L 205.86 62.248ZM 177.78 61.672L 174.78 61.672L 174.78 65.2335L 178.29 64.6284L 177.78 61.672ZM 177.78 51.16L 177.308 48.1975L 174.78 48.6008L 174.78 51.16L 177.78 51.16ZM 201.108 108.472L 203.013 110.79L 203.021 110.783L 201.108 108.472ZM 208.74 98.824L 211.36 100.286L 211.74 99.6045L 211.74 98.824L 208.74 98.824ZM 208.74 87.736L 211.74 87.736L 211.74 85.2382L 209.284 84.7856L 208.74 87.736ZM 197.22 52C 205.114 52 210.164 53.8018 213.099 56.7373L 217.342 52.4947C 212.789 47.9422 205.839 46 197.22 46L 197.22 52ZM 213.154 56.791C 216.147 59.6345 217.98 64.5169 217.98 72.184L 223.98 72.184C 223.98 63.7231 221.973 56.8935 217.287 52.441L 213.154 56.791ZM 217.98 72.184L 217.98 121L 223.98 121L 223.98 72.184L 217.98 72.184ZM 220.98 118L 209.316 118L 209.316 124L 220.98 124L 220.98 118ZM 212.316 121L 212.316 109.768L 206.316 109.768L 206.316 121L 212.316 121ZM 206.795 108.143C 201.502 116.356 196.017 119.728 190.452 119.728L 190.452 125.728C 198.903 125.728 205.995 120.46 211.838 111.393L 206.795 108.143ZM 190.452 119.728C 185.661 119.728 182.052 118.117 179.318 114.992L 174.803 118.944C 178.788 123.499 184.108 125.728 190.452 125.728L 190.452 119.728ZM 179.346 115.025C 176.672 111.878 175.164 107.411 175.164 101.272L 169.164 101.272C 169.164 108.381 170.921 114.378 174.775 118.911L 179.346 115.025ZM 175.164 101.272L 175.164 97.24L 169.164 97.24L 169.164 101.272L 175.164 101.272ZM 175.164 97.24C 175.164 92.2462 176.834 88.2982 180.136 85.1577L 176.001 80.8103C 171.43 85.1578 169.164 90.7138 169.164 97.24L 175.164 97.24ZM 180.163 85.1313C 183.428 81.9466 187.897 80.224 193.908 80.224L 193.908 74.224C 186.672 74.224 180.581 76.3414 175.973 80.8367L 180.163 85.1313ZM 193.908 80.224C 197.368 80.2181 202.018 80.809 208.152 82.0377L 209.329 76.1543C 202.983 74.887 197.745 74.2299 193.908 74.224L 193.908 80.224ZM 211.74 79.096L 211.74 71.176L 205.74 71.176L 205.74 79.096L 211.74 79.096ZM 211.74 71.176C 211.74 66.6762 210.705 62.7127 207.927 60.073L 203.794 64.423C 204.855 65.4313 205.74 67.4198 205.74 71.176L 211.74 71.176ZM 207.982 60.1267C 205.359 57.5044 201.541 56.512 197.22 56.512L 197.22 62.512C 200.771 62.512 202.713 63.3436 203.739 64.3693L 207.982 60.1267ZM 197.22 56.512C 192.446 56.5166 185.712 57.2616 177.271 58.7156L 178.29 64.6284C 186.553 63.2024 192.778 62.5074 197.22 62.512L 197.22 56.512ZM 180.78 61.672L 180.78 51.16L 174.78 51.16L 174.78 61.672L 180.78 61.672ZM 178.253 54.1225C 187.207 52.6929 193.45 51.9954 197.22 52L 197.22 46C 193.118 46.0046 186.402 46.7471 177.308 48.1975L 178.253 54.1225ZM 196.932 83.728C 192.391 83.728 188.444 84.9256 185.595 87.7747L 189.838 92.0173C 191.213 90.6424 193.41 89.728 196.932 89.728L 196.932 83.728ZM 185.595 87.7747C 182.772 90.5977 181.548 94.4262 181.548 98.824L 187.548 98.824C 187.548 95.5418 188.437 93.4183 189.838 92.0173L 185.595 87.7747ZM 181.548 98.824L 181.548 100.408L 187.548 100.408L 187.548 98.824L 181.548 98.824ZM 181.548 100.408C 181.548 104.395 182.465 107.93 184.665 110.648L 189.328 106.872C 188.264 105.558 187.548 103.525 187.548 100.408L 181.548 100.408ZM 184.665 110.648C 186.84 113.335 189.747 114.784 193.188 114.784L 193.188 108.784C 191.638 108.784 190.416 108.217 189.328 106.872L 184.665 110.648ZM 193.188 114.784C 196.681 114.784 199.972 113.288 203.013 110.79L 199.204 106.154C 196.869 108.072 194.88 108.784 193.188 108.784L 193.188 114.784ZM 203.021 110.783C 206.037 108.266 208.931 104.619 211.36 100.286L 206.121 97.3619C 203.942 101.285 201.748 104.07 199.196 106.161L 203.021 110.783ZM 211.74 98.824L 211.74 87.736L 205.74 87.736L 205.74 98.824L 211.74 98.824ZM 209.284 84.7856C 205.492 84.0908 201.284 83.7307 196.932 83.728L 196.932 89.728C 201.029 89.7253 204.693 90.0372 208.197 90.6864L 209.284 84.7856ZM 297.044 21.928L 300.044 21.928L 300.044 19.5474L 297.726 19.0065L 297.044 21.928ZM 297.044 31.72L 296.551 34.6792L 300.044 35.2614L 300.044 31.72L 297.044 31.72ZM 281.06 33.88L 278.83 31.8731L 278.802 31.9047L 278.774 31.9371L 281.06 33.88ZM 278.612 50.728L 275.612 50.728L 275.612 53.728L 278.612 53.728L 278.612 50.728ZM 293.012 50.728L 296.012 50.728L 296.012 47.728L 293.012 47.728L 293.012 50.728ZM 293.012 60.808L 293.012 63.808L 296.012 63.808L 296.012 60.808L 293.012 60.808ZM 278.612 60.808L 278.612 57.808L 275.612 57.808L 275.612 60.808L 278.612 60.808ZM 278.612 121L 278.612 124L 281.612 124L 281.612 121L 278.612 121ZM 266.372 121L 263.372 121L 263.372 124L 266.372 124L 266.372 121ZM 266.372 60.808L 269.372 60.808L 269.372 57.808L 266.372 57.808L 266.372 60.808ZM 256.292 60.808L 253.292 60.808L 253.292 63.808L 256.292 63.808L 256.292 60.808ZM 256.292 50.728L 256.292 47.728L 253.292 47.728L 253.292 50.728L 256.292 50.728ZM 266.372 50.728L 266.372 53.728L 269.372 53.728L 269.372 50.728L 266.372 50.728ZM 266.372 43.384L 263.372 43.3455L 263.372 43.3648L 263.372 43.384L 266.372 43.384ZM 287.972 23.92C 290.974 23.9154 293.656 24.2128 296.362 24.8495L 297.726 19.0065C 294.671 18.2992 291.306 17.9246 287.972 17.92L 287.972 23.92ZM 294.044 21.928L 294.044 31.72L 300.044 31.72L 300.044 21.928L 294.044 21.928ZM 297.537 28.7608C 294.531 28.2626 291.309 28.0024 288.116 28L 288.116 34C 291.067 33.9976 293.796 34.2174 296.551 34.6792L 297.537 28.7608ZM 288.116 28C 284.432 28 281.216 29.2222 278.83 31.8731L 283.29 35.8869C 284.36 34.6978 285.848 34 288.116 34L 288.116 28ZM 278.774 31.9371C 276.483 34.6318 275.612 38.3961 275.612 42.664L 281.612 42.664C 281.612 39.0599 282.372 36.9682 283.346 35.8229L 278.774 31.9371ZM 275.612 42.664L 275.612 50.728L 281.612 50.728L 281.612 42.664L 275.612 42.664ZM 278.612 53.728L 293.012 53.728L 293.012 47.728L 278.612 47.728L 278.612 53.728ZM 290.012 50.728L 290.012 60.808L 296.012 60.808L 296.012 50.728L 290.012 50.728ZM 293.012 57.808L 278.612 57.808L 278.612 63.808L 293.012 63.808L 293.012 57.808ZM 275.612 60.808L 275.612 121L 281.612 121L 281.612 60.808L 275.612 60.808ZM 278.612 118L 266.372 118L 266.372 124L 278.612 124L 278.612 118ZM 269.372 121L 269.372 60.808L 263.372 60.808L 263.372 121L 269.372 121ZM 266.372 57.808L 256.292 57.808L 256.292 63.808L 266.372 63.808L 266.372 57.808ZM 259.292 60.808L 259.292 50.728L 253.292 50.728L 253.292 60.808L 259.292 60.808ZM 256.292 53.728L 266.372 53.728L 266.372 47.728L 256.292 47.728L 256.292 53.728ZM 269.372 50.728L 269.372 43.384L 263.372 43.384L 263.372 50.728L 269.372 50.728ZM 269.372 43.4225C 269.462 36.3712 271.219 31.6239 274.137 28.6296L 269.839 24.4424C 265.461 28.9361 263.474 35.4208 263.372 43.3455L 269.372 43.4225ZM 274.137 28.6296C 277.048 25.6418 281.488 23.92 287.972 23.92L 287.972 17.92C 280.44 17.92 274.224 19.9422 269.839 24.4424L 274.137 28.6296ZM 365.151 50.872L 368.15 50.952L 368.216 48.4939L 365.818 47.9471L 365.151 50.872ZM 364.863 61.672L 364.207 64.5994L 367.765 65.3968L 367.862 61.752L 364.863 61.672ZM 340.095 63.544L 337.933 61.4647L 337.912 61.4867L 337.891 61.5092L 340.095 63.544ZM 340.239 108.328L 338.077 110.407L 338.118 110.45L 338.16 110.49L 340.239 108.328ZM 357.519 111.496L 357.095 108.526L 357.519 111.496ZM 364.863 110.056L 367.862 109.976L 367.764 106.299L 364.182 107.134L 364.863 110.056ZM 365.151 120.856L 365.777 123.79L 368.217 123.27L 368.15 120.776L 365.151 120.856ZM 350.463 52C 354.593 51.994 359.156 52.5779 364.484 53.7969L 365.818 47.9471C 360.203 46.6701 354.973 46.006 350.463 46L 350.463 52ZM 362.152 50.792L 361.864 61.592L 367.862 61.752L 368.15 50.952L 362.152 50.792ZM 365.52 58.7446C 359.817 57.4698 354.689 56.8063 350.463 56.8L 350.463 62.8C 354.302 62.7937 358.773 63.3782 364.207 64.5994L 365.52 58.7446ZM 350.463 56.8C 345.394 56.8 341.056 58.2167 337.933 61.4647L 342.258 65.6233C 343.935 63.8793 346.508 62.8 350.463 62.8L 350.463 56.8ZM 337.891 61.5092C 334.916 64.7316 333.639 69.1106 333.639 74.2L 339.639 74.2C 339.639 70.0734 340.666 67.3484 342.3 65.5788L 337.891 61.5092ZM 333.639 74.2L 333.639 97.384L 339.639 97.384L 339.639 74.2L 333.639 74.2ZM 333.639 97.384C 333.639 102.656 334.961 107.167 338.077 110.407L 342.402 106.249C 340.718 104.497 339.639 101.712 339.639 97.384L 333.639 97.384ZM 338.16 110.49C 341.345 113.553 345.57 114.928 350.463 114.928L 350.463 108.928C 346.717 108.928 344.126 107.903 342.319 106.166L 338.16 110.49ZM 350.463 114.928C 353.243 114.927 355.807 114.769 357.944 114.466L 357.095 108.526C 355.199 108.799 353.06 108.929 350.463 108.928L 350.463 114.928ZM 357.944 114.466C 360.036 114.166 362.613 113.661 365.545 112.978L 364.182 107.134C 361.354 107.795 359.034 108.25 357.095 108.526L 357.944 114.466ZM 361.864 110.136L 362.152 120.936L 368.15 120.776L 367.862 109.976L 361.864 110.136ZM 364.526 117.922C 358.794 119.146 354.163 119.734 350.319 119.728L 350.319 125.728C 354.54 125.722 359.796 125.062 365.777 123.79L 364.526 117.922ZM 350.319 119.728C 342.15 119.728 336.573 117.666 333.012 114.066C 329.446 110.461 327.399 104.802 327.399 96.52L 321.399 96.52C 321.399 105.71 323.673 113.155 328.746 118.286C 333.826 123.422 341.208 125.728 350.319 125.728L 350.319 119.728ZM 327.399 96.52L 327.399 75.208L 321.399 75.208L 321.399 96.52L 327.399 96.52ZM 327.399 75.208C 327.399 66.9303 329.456 61.2739 333.043 57.6675C 336.626 54.0641 342.242 52 350.463 52L 350.463 46C 341.309 46 333.893 48.3039 328.788 53.4365C 323.687 58.5661 321.399 66.0137 321.399 75.208L 327.399 75.208Z"/>
<path id="path2_fill" d="M 0 0L 413 0L 413 142L 0 142L 0 0Z"/>
<path id="path3_stroke_2x" d="M 0 0L 0 -3L -3 -3L -3 0L 0 0ZM 413 0L 416 0L 416 -3L 413 -3L 413 0ZM 413 142L 413 145L 416 145L 416 142L 413 142ZM 0 142L -3 142L -3 145L 0 145L 0 142ZM 0 3L 413 3L 413 -3L 0 -3L 0 3ZM 410 0L 410 142L 416 142L 416 0L 410 0ZM 413 139L 0 139L 0 145L 413 145L 413 139ZM 3 142L 3 0L -3 0L -3 142L 3 142Z"/>
</defs>
</svg>
