<svg width="207" height="71" viewBox="0 0 207 71" version="1.1" xmlns="http://www.w3.org/2000/svg" xmlns:xlink="http://www.w3.org/1999/xlink">
<title>zaafc</title>
<desc>Created using Figma</desc>
<g id="Canvas" transform="matrix(0.5 0 0 0.5 216 55)">
<g id="zaafc">
<g id="zaafc">
<mask id="mask0_outline_out">
<rect id="mask0_outline_inv" fill="white" x="3" y="21" width="377" height="118" transform="translate(-417 -120)"/>
<use xlink:href="#path0_fill" fill="black" transform="translate(-417 -120)"/>
</mask>
<g mask="url(#mask0_outline_out)">
<use xlink:href="#path1_stroke_2x" transform="translate(-417 -120)" fill="#F6F4D2"/>
</g>
</g>
<g id="Rectangle">
<mask id="mask1_outline_ins">
<use xlink:href="#path2_fill" fill="white" transform="translate(-432 -110)"/>
</mask>
<g mask="url(#mask1_outline_ins)">
<use xlink:href="#path3_stroke_2x" transform="translate(-432 -110)" fill="#F6F4D2"/>
</g>
</g>
</g>
</g>
<defs>
<path id="path0_fill" d="M 22.0781 123.383L 66.5859 123.383L 66.5859 134L 6.1875 134L 6.1875 124.438L 48.1641 68.6797L 6.82031 68.6797L 6.82031 57.9219L 64.4766 57.9219L 64.4766 67.1328L 22.0781 123.383ZM 135.45 134C 134.7 132.5 134.091 129.828 133.622 125.984C 127.575 132.266 120.356 135.406 111.966 135.406C 104.466 135.406 98.3016 133.297 93.4734 129.078C 88.6922 124.812 86.3016 119.422 86.3016 112.906C 86.3016 104.984 89.3016 98.8438 95.3016 94.4844C 101.348 90.0781 109.833 87.875 120.755 87.875L 133.411 87.875L 133.411 81.8984C 133.411 77.3516 132.052 73.7422 129.333 71.0703C 126.614 68.3516 122.606 66.9922 117.309 66.9922C 112.669 66.9922 108.778 68.1641 105.637 70.5078C 102.497 72.8516 100.927 75.6875 100.927 79.0156L 87.8484 79.0156C 87.8484 75.2188 89.1844 71.5625 91.8562 68.0469C 94.575 64.4844 98.2312 61.6719 102.825 59.6094C 107.466 57.5469 112.552 56.5156 118.083 56.5156C 126.848 56.5156 133.716 58.7187 138.684 63.125C 143.653 67.4844 146.231 73.5078 146.419 81.1953L 146.419 116.211C 146.419 123.195 147.309 128.75 149.091 132.875L 149.091 134L 135.45 134ZM 113.864 124.086C 117.942 124.086 121.809 123.031 125.466 120.922C 129.122 118.812 131.77 116.07 133.411 112.695L 133.411 97.0859L 123.216 97.0859C 107.278 97.0859 99.3094 101.75 99.3094 111.078C 99.3094 115.156 100.669 118.344 103.387 120.641C 106.106 122.938 109.598 124.086 113.864 124.086ZM 220.978 134C 220.228 132.5 219.619 129.828 219.15 125.984C 213.103 132.266 205.884 135.406 197.494 135.406C 189.994 135.406 183.83 133.297 179.002 129.078C 174.22 124.812 171.83 119.422 171.83 112.906C 171.83 104.984 174.83 98.8438 180.83 94.4844C 186.877 90.0781 195.361 87.875 206.283 87.875L 218.939 87.875L 218.939 81.8984C 218.939 77.3516 217.58 73.7422 214.861 71.0703C 212.142 68.3516 208.134 66.9922 202.837 66.9922C 198.197 66.9922 194.306 68.1641 191.166 70.5078C 188.025 72.8516 186.455 75.6875 186.455 79.0156L 173.377 79.0156C 173.377 75.2188 174.712 71.5625 177.384 68.0469C 180.103 64.4844 183.759 61.6719 188.353 59.6094C 192.994 57.5469 198.08 56.5156 203.611 56.5156C 212.377 56.5156 219.244 58.7187 224.212 63.125C 229.181 67.4844 231.759 73.5078 231.947 81.1953L 231.947 116.211C 231.947 123.195 232.837 128.75 234.619 132.875L 234.619 134L 220.978 134ZM 199.392 124.086C 203.47 124.086 207.337 123.031 210.994 120.922C 214.65 118.812 217.298 116.07 218.939 112.695L 218.939 97.0859L 208.744 97.0859C 192.806 97.0859 184.837 101.75 184.837 111.078C 184.837 115.156 186.197 118.344 188.916 120.641C 191.634 122.938 195.127 124.086 199.392 124.086ZM 265.936 134L 265.936 67.9766L 253.912 67.9766L 253.912 57.9219L 265.936 57.9219L 265.936 50.1172C 265.936 41.9609 268.116 35.6562 272.475 31.2031C 276.834 26.75 282.998 24.5234 290.967 24.5234C 293.967 24.5234 296.944 24.9219 299.897 25.7188L 299.194 36.2656C 296.991 35.8438 294.647 35.6328 292.162 35.6328C 287.944 35.6328 284.686 36.875 282.389 39.3594C 280.092 41.7969 278.944 45.3125 278.944 49.9062L 278.944 57.9219L 295.186 57.9219L 295.186 67.9766L 278.944 67.9766L 278.944 134L 265.936 134ZM 345.628 124.789C 350.269 124.789 354.323 123.383 357.792 120.57C 361.261 117.758 363.183 114.242 363.558 110.023L 375.862 110.023C 375.628 114.383 374.128 118.531 371.362 122.469C 368.597 126.406 364.894 129.547 360.253 131.891C 355.659 134.234 350.784 135.406 345.628 135.406C 335.269 135.406 327.019 131.961 320.878 125.07C 314.784 118.133 311.737 108.664 311.737 96.6641L 311.737 94.4844C 311.737 87.0781 313.097 80.4922 315.816 74.7266C 318.534 68.9609 322.425 64.4844 327.487 61.2969C 332.597 58.1094 338.62 56.5156 345.558 56.5156C 354.089 56.5156 361.167 59.0703 366.792 64.1797C 372.464 69.2891 375.487 75.9219 375.862 84.0781L 363.558 84.0781C 363.183 79.1562 361.308 75.125 357.933 71.9844C 354.605 68.7969 350.48 67.2031 345.558 67.2031C 338.948 67.2031 333.816 69.5938 330.159 74.375C 326.55 79.1094 324.745 85.9766 324.745 94.9766L 324.745 97.4375C 324.745 106.203 326.55 112.953 330.159 117.688C 333.769 122.422 338.925 124.789 345.628 124.789Z"/>
<path id="path1_stroke_2x" d="M 22.0781 123.383L 19.6824 121.577L 16.0601 126.383L 22.0781 126.383L 22.0781 123.383ZM 66.5859 123.383L 69.5859 123.383L 69.5859 120.383L 66.5859 120.383L 66.5859 123.383ZM 66.5859 134L 66.5859 137L 69.5859 137L 69.5859 134L 66.5859 134ZM 6.1875 134L 3.1875 134L 3.1875 137L 6.1875 137L 6.1875 134ZM 6.1875 124.438L 3.79077 122.633L 3.1875 123.434L 3.1875 124.438L 6.1875 124.438ZM 48.1641 68.6797L 50.5608 70.484L 54.1777 65.6797L 48.1641 65.6797L 48.1641 68.6797ZM 6.82031 68.6797L 3.82031 68.6797L 3.82031 71.6797L 6.82031 71.6797L 6.82031 68.6797ZM 6.82031 57.9219L 6.82031 54.9219L 3.82031 54.9219L 3.82031 57.9219L 6.82031 57.9219ZM 64.4766 57.9219L 67.4766 57.9219L 67.4766 54.9219L 64.4766 54.9219L 64.4766 57.9219ZM 64.4766 67.1328L 66.8722 68.9386L 67.4766 68.1368L 67.4766 67.1328L 64.4766 67.1328ZM 22.0781 126.383L 66.5859 126.383L 66.5859 120.383L 22.0781 120.383L 22.0781 126.383ZM 63.5859 123.383L 63.5859 134L 69.5859 134L 69.5859 123.383L 63.5859 123.383ZM 66.5859 131L 6.1875 131L 6.1875 137L 66.5859 137L 66.5859 131ZM 9.1875 134L 9.1875 124.438L 3.1875 124.438L 3.1875 134L 9.1875 134ZM 8.58423 126.242L 50.5608 70.484L 45.7673 66.8753L 3.79077 122.633L 8.58423 126.242ZM 48.1641 65.6797L 6.82031 65.6797L 6.82031 71.6797L 48.1641 71.6797L 48.1641 65.6797ZM 9.82031 68.6797L 9.82031 57.9219L 3.82031 57.9219L 3.82031 68.6797L 9.82031 68.6797ZM 6.82031 60.9219L 64.4766 60.9219L 64.4766 54.9219L 6.82031 54.9219L 6.82031 60.9219ZM 61.4766 57.9219L 61.4766 67.1328L 67.4766 67.1328L 67.4766 57.9219L 61.4766 57.9219ZM 62.0809 65.3271L 19.6824 121.577L 24.4738 125.189L 66.8722 68.9386L 62.0809 65.3271ZM 135.45 134L 132.767 135.342L 133.596 137L 135.45 137L 135.45 134ZM 133.622 125.984L 136.6 125.621L 135.836 119.359L 131.461 123.904L 133.622 125.984ZM 93.4734 129.078L 91.4763 131.317L 91.4878 131.327L 91.4995 131.337L 93.4734 129.078ZM 95.3016 94.4844L 97.0649 96.9114L 97.0683 96.909L 95.3016 94.4844ZM 133.411 87.875L 133.411 90.875L 136.411 90.875L 136.411 87.875L 133.411 87.875ZM 129.333 71.0703L 127.211 73.1916L 127.221 73.2009L 127.23 73.21L 129.333 71.0703ZM 100.927 79.0156L 100.927 82.0156L 103.927 82.0156L 103.927 79.0156L 100.927 79.0156ZM 87.8484 79.0156L 84.8484 79.0156L 84.8484 82.0156L 87.8484 82.0156L 87.8484 79.0156ZM 91.8562 68.0469L 89.4714 66.2269L 89.4678 66.2316L 91.8562 68.0469ZM 102.825 59.6094L 101.607 56.8679L 101.596 56.8726L 102.825 59.6094ZM 138.684 63.125L 136.694 65.3696L 136.7 65.3748L 136.706 65.3801L 138.684 63.125ZM 146.419 81.1953L 149.419 81.1953L 149.419 81.1587L 149.418 81.1222L 146.419 81.1953ZM 149.091 132.875L 152.091 132.875L 152.091 132.255L 151.845 131.686L 149.091 132.875ZM 149.091 134L 149.091 137L 152.091 137L 152.091 134L 149.091 134ZM 133.411 112.695L 136.109 114.007L 136.411 113.386L 136.411 112.695L 133.411 112.695ZM 133.411 97.0859L 136.411 97.0859L 136.411 94.0859L 133.411 94.0859L 133.411 97.0859ZM 138.133 132.658C 137.636 131.664 137.067 129.454 136.6 125.621L 130.644 126.348C 131.114 130.203 131.764 133.336 132.767 135.342L 138.133 132.658ZM 131.461 123.904C 125.954 129.623 119.506 132.406 111.966 132.406L 111.966 138.406C 121.207 138.406 129.196 134.908 135.783 128.065L 131.461 123.904ZM 111.966 132.406C 105.061 132.406 99.6381 130.481 95.4474 126.819L 91.4995 131.337C 96.965 136.113 103.87 138.406 111.966 138.406L 111.966 132.406ZM 95.4706 126.84C 91.3396 123.154 89.3016 118.583 89.3016 112.906L 83.3016 112.906C 83.3016 120.26 86.0448 126.471 91.4763 131.317L 95.4706 126.84ZM 89.3016 112.906C 89.3016 105.868 91.9018 100.663 97.0649 96.9114L 93.5382 92.0573C 86.7013 97.0247 83.3016 104.101 83.3016 112.906L 89.3016 112.906ZM 97.0683 96.909C 102.415 93.0131 110.188 90.875 120.755 90.875L 120.755 84.875C 109.477 84.875 100.282 87.1431 93.5348 92.0598L 97.0683 96.909ZM 120.755 90.875L 133.411 90.875L 133.411 84.875L 120.755 84.875L 120.755 90.875ZM 136.411 87.875L 136.411 81.8984L 130.411 81.8984L 130.411 87.875L 136.411 87.875ZM 136.411 81.8984C 136.411 76.7137 134.837 72.2736 131.436 68.9306L 127.23 73.21C 129.266 75.2107 130.411 77.9894 130.411 81.8984L 136.411 81.8984ZM 131.454 68.949C 127.988 65.4826 123.095 63.9922 117.309 63.9922L 117.309 69.9922C 122.117 69.9922 125.24 71.2205 127.211 73.1916L 131.454 68.949ZM 117.309 63.9922C 112.231 64.0242 107.428 65.4851 103.843 68.1035L 107.432 72.9121C 110.128 70.8431 113.106 69.9601 117.309 69.9922L 117.309 63.9922ZM 103.843 68.1035C 100.096 70.8998 97.9266 74.5654 97.9266 79.0156L 103.927 79.0156C 103.927 76.8096 104.897 74.8033 107.432 72.9121L 103.843 68.1035ZM 100.927 76.0156L 87.8484 76.0156L 87.8484 82.0156L 100.927 82.0156L 100.927 76.0156ZM 90.8484 79.0156C 90.8025 75.7415 91.817 73.001 94.2447 69.8621L 89.4678 66.2316C 86.5518 70.124 84.8943 74.696 84.8484 79.0156L 90.8484 79.0156ZM 94.2411 69.8669C 96.7004 66.6016 99.7707 64.2468 104.054 62.3462L 101.596 56.8726C 96.6918 59.097 92.4496 62.3671 89.4714 66.2269L 94.2411 69.8669ZM 104.043 62.3508C 108.378 60.4047 112.851 59.5006 118.083 59.5156L 118.083 53.5156C 112.252 53.5306 106.553 54.6891 101.607 56.8679L 104.043 62.3508ZM 118.083 59.5156C 126.354 59.5156 132.43 61.5881 136.694 65.3696L 140.675 60.8804C 135.001 55.8494 127.343 53.5156 118.083 53.5156L 118.083 59.5156ZM 136.706 65.3801C 140.94 69.095 143.249 74.269 143.42 81.2685L 149.418 81.1222C 149.214 72.7466 146.366 65.8738 140.663 60.8699L 136.706 65.3801ZM 143.419 81.1953L 143.419 116.211L 149.419 116.211L 149.419 81.1953L 143.419 81.1953ZM 143.419 116.211C 143.419 123.401 144.328 129.414 146.336 134.064L 151.845 131.686C 150.29 128.086 149.419 122.989 149.419 116.211L 143.419 116.211ZM 146.091 132.875L 146.091 134L 152.091 134L 152.091 132.875L 146.091 132.875ZM 149.091 131L 135.45 131L 135.45 137L 149.091 137L 149.091 131ZM 113.864 127.086C 118.34 127.059 122.963 125.801 126.965 123.52L 123.966 118.323C 120.656 120.262 117.544 121.112 113.864 121.086L 113.864 127.086ZM 126.965 123.52C 130.968 121.177 134.229 117.79 136.109 114.007L 130.713 111.384C 129.312 114.351 127.275 116.448 123.966 118.323L 126.965 123.52ZM 136.411 112.695L 136.411 97.0859L 130.411 97.0859L 130.411 112.695L 136.411 112.695ZM 133.411 94.0859L 123.216 94.0859L 123.216 100.086L 133.411 100.086L 133.411 94.0859ZM 123.216 94.0859C 115.052 94.0859 108.438 95.263 103.771 97.9949C 98.855 100.872 96.3094 105.362 96.3094 111.078L 102.309 111.078C 102.309 107.466 103.748 104.96 106.801 103.173C 110.103 101.241 115.441 100.086 123.216 100.086L 123.216 94.0859ZM 96.3094 111.078C 96.3094 115.896 97.9554 119.979 101.451 122.932L 105.324 118.349C 103.382 116.709 102.309 114.417 102.309 111.078L 96.3094 111.078ZM 101.451 122.932C 104.814 125.773 109.037 127.086 113.864 127.086L 113.864 121.086C 110.16 121.086 107.398 120.102 105.324 118.349L 101.451 122.932ZM 220.978 134L 218.295 135.342L 219.124 137L 220.978 137L 220.978 134ZM 219.15 125.984L 222.128 125.621L 221.364 119.359L 216.989 123.904L 219.15 125.984ZM 179.002 129.078L 177.004 131.317L 177.016 131.327L 177.028 131.337L 179.002 129.078ZM 180.83 94.4844L 182.593 96.9114L 182.596 96.909L 180.83 94.4844ZM 218.939 87.875L 218.939 90.875L 221.939 90.875L 221.939 87.875L 218.939 87.875ZM 214.861 71.0703L 212.74 73.1916L 212.749 73.2009L 212.758 73.21L 214.861 71.0703ZM 186.455 79.0156L 186.455 82.0156L 189.455 82.0156L 189.455 79.0156L 186.455 79.0156ZM 173.377 79.0156L 170.377 79.0156L 170.377 82.0156L 173.377 82.0156L 173.377 79.0156ZM 177.384 68.0469L 175 66.2269L 174.996 66.2316L 177.384 68.0469ZM 188.353 59.6094L 187.135 56.8679L 187.124 56.8726L 188.353 59.6094ZM 224.212 63.125L 222.222 65.3696L 222.228 65.3748L 222.234 65.3801L 224.212 63.125ZM 231.947 81.1953L 234.947 81.1953L 234.947 81.1587L 234.946 81.1222L 231.947 81.1953ZM 234.619 132.875L 237.619 132.875L 237.619 132.255L 237.373 131.686L 234.619 132.875ZM 234.619 134L 234.619 137L 237.619 137L 237.619 134L 234.619 134ZM 218.939 112.695L 221.637 114.007L 221.939 113.386L 221.939 112.695L 218.939 112.695ZM 218.939 97.0859L 221.939 97.0859L 221.939 94.0859L 218.939 94.0859L 218.939 97.0859ZM 223.661 132.658C 223.164 131.664 222.595 129.454 222.128 125.621L 216.172 126.348C 216.642 130.203 217.292 133.336 218.295 135.342L 223.661 132.658ZM 216.989 123.904C 211.483 129.623 205.034 132.406 197.494 132.406L 197.494 138.406C 206.735 138.406 214.724 134.908 221.311 128.065L 216.989 123.904ZM 197.494 132.406C 190.589 132.406 185.166 130.481 180.976 126.819L 177.028 131.337C 182.493 136.113 189.398 138.406 197.494 138.406L 197.494 132.406ZM 180.999 126.84C 176.868 123.154 174.83 118.583 174.83 112.906L 168.83 112.906C 168.83 120.26 171.573 126.471 177.004 131.317L 180.999 126.84ZM 174.83 112.906C 174.83 105.868 177.43 100.663 182.593 96.9114L 179.066 92.0573C 172.229 97.0247 168.83 104.101 168.83 112.906L 174.83 112.906ZM 182.596 96.909C 187.943 93.0131 195.716 90.875 206.283 90.875L 206.283 84.875C 195.005 84.875 185.81 87.1431 179.063 92.0598L 182.596 96.909ZM 206.283 90.875L 218.939 90.875L 218.939 84.875L 206.283 84.875L 206.283 90.875ZM 221.939 87.875L 221.939 81.8984L 215.939 81.8984L 215.939 87.875L 221.939 87.875ZM 221.939 81.8984C 221.939 76.7137 220.365 72.2736 216.964 68.9306L 212.758 73.21C 214.794 75.2107 215.939 77.9894 215.939 81.8984L 221.939 81.8984ZM 216.982 68.949C 213.516 65.4826 208.623 63.9922 202.837 63.9922L 202.837 69.9922C 207.645 69.9922 210.769 71.2205 212.74 73.1916L 216.982 68.949ZM 202.837 63.9922C 197.76 64.0242 192.956 65.4851 189.371 68.1035L 192.96 72.9121C 195.656 70.8431 198.634 69.9601 202.837 69.9922L 202.837 63.9922ZM 189.371 68.1035C 185.624 70.8998 183.455 74.5654 183.455 79.0156L 189.455 79.0156C 189.455 76.8096 190.426 74.8033 192.96 72.9121L 189.371 68.1035ZM 186.455 76.0156L 173.377 76.0156L 173.377 82.0156L 186.455 82.0156L 186.455 76.0156ZM 176.377 79.0156C 176.331 75.7415 177.345 73.001 179.773 69.8621L 174.996 66.2316C 172.08 70.124 170.422 74.696 170.377 79.0156L 176.377 79.0156ZM 179.769 69.8669C 182.228 66.6016 185.299 64.2468 189.582 62.3462L 187.124 56.8726C 182.22 59.097 177.978 62.3671 175 66.2269L 179.769 69.8669ZM 189.572 62.3508C 193.906 60.4047 198.379 59.5006 203.611 59.5156L 203.611 53.5156C 197.78 53.5306 192.081 54.6891 187.135 56.8679L 189.572 62.3508ZM 203.611 59.5156C 211.882 59.5156 217.958 61.5881 222.222 65.3696L 226.203 60.8804C 220.53 55.8494 212.871 53.5156 203.611 53.5156L 203.611 59.5156ZM 222.234 65.3801C 226.468 69.095 228.777 74.269 228.948 81.2685L 234.946 81.1222C 234.742 72.7466 231.894 65.8738 226.191 60.8699L 222.234 65.3801ZM 228.947 81.1953L 228.947 116.211L 234.947 116.211L 234.947 81.1953L 228.947 81.1953ZM 228.947 116.211C 228.947 123.401 229.856 129.414 231.865 134.064L 237.373 131.686C 235.819 128.086 234.947 122.989 234.947 116.211L 228.947 116.211ZM 231.619 132.875L 231.619 134L 237.619 134L 237.619 132.875L 231.619 132.875ZM 234.619 131L 220.978 131L 220.978 137L 234.619 137L 234.619 131ZM 199.392 127.086C 203.869 127.059 208.491 125.801 212.493 123.52L 209.495 118.323C 206.184 120.262 203.072 121.112 199.392 121.086L 199.392 127.086ZM 212.493 123.52C 216.497 121.177 219.757 117.79 221.637 114.007L 216.241 111.384C 214.84 114.351 212.803 116.448 209.495 118.323L 212.493 123.52ZM 221.939 112.695L 221.939 97.0859L 215.939 97.0859L 215.939 112.695L 221.939 112.695ZM 218.939 94.0859L 208.744 94.0859L 208.744 100.086L 218.939 100.086L 218.939 94.0859ZM 208.744 94.0859C 200.581 94.0859 193.966 95.263 189.299 97.9949C 184.383 100.872 181.837 105.362 181.837 111.078L 187.837 111.078C 187.837 107.466 189.276 104.96 192.329 103.173C 195.631 101.241 200.969 100.086 208.744 100.086L 208.744 94.0859ZM 181.837 111.078C 181.837 115.896 183.483 119.979 186.98 122.932L 190.852 118.349C 188.91 116.709 187.837 114.417 187.837 111.078L 181.837 111.078ZM 186.98 122.932C 190.342 125.773 194.565 127.086 199.392 127.086L 199.392 121.086C 195.688 121.086 192.926 120.102 190.852 118.349L 186.98 122.932ZM 265.936 134L 262.936 134L 262.936 137L 265.936 137L 265.936 134ZM 265.936 67.9766L 268.936 67.9766L 268.936 64.9766L 265.936 64.9766L 265.936 67.9766ZM 253.912 67.9766L 250.912 67.9766L 250.912 70.9766L 253.912 70.9766L 253.912 67.9766ZM 253.912 57.9219L 253.912 54.9219L 250.912 54.9219L 250.912 57.9219L 253.912 57.9219ZM 265.936 57.9219L 265.936 60.9219L 268.936 60.9219L 268.936 57.9219L 265.936 57.9219ZM 299.897 25.7188L 302.89 25.9183L 303.054 23.4633L 300.678 22.8223L 299.897 25.7188ZM 299.194 36.2656L 298.63 39.2121L 301.961 39.8501L 302.187 36.4652L 299.194 36.2656ZM 282.389 39.3594L 284.572 41.4168L 284.582 41.4064L 284.592 41.3959L 282.389 39.3594ZM 278.944 57.9219L 275.944 57.9219L 275.944 60.9219L 278.944 60.9219L 278.944 57.9219ZM 295.186 57.9219L 298.186 57.9219L 298.186 54.9219L 295.186 54.9219L 295.186 57.9219ZM 295.186 67.9766L 295.186 70.9766L 298.186 70.9766L 298.186 67.9766L 295.186 67.9766ZM 278.944 67.9766L 278.944 64.9766L 275.944 64.9766L 275.944 67.9766L 278.944 67.9766ZM 278.944 134L 278.944 137L 281.944 137L 281.944 134L 278.944 134ZM 268.936 134L 268.936 67.9766L 262.936 67.9766L 262.936 134L 268.936 134ZM 265.936 64.9766L 253.912 64.9766L 253.912 70.9766L 265.936 70.9766L 265.936 64.9766ZM 256.912 67.9766L 256.912 57.9219L 250.912 57.9219L 250.912 67.9766L 256.912 67.9766ZM 253.912 60.9219L 265.936 60.9219L 265.936 54.9219L 253.912 54.9219L 253.912 60.9219ZM 268.936 57.9219L 268.936 50.1172L 262.936 50.1172L 262.936 57.9219L 268.936 57.9219ZM 268.936 50.1172C 268.936 42.4944 270.962 37.0372 274.619 33.3018L 270.331 29.1045C 265.269 34.2753 262.936 41.4275 262.936 50.1172L 268.936 50.1172ZM 274.619 33.3018C 278.267 29.5746 283.569 27.5234 290.967 27.5234L 290.967 21.5234C 282.428 21.5234 275.401 23.9254 270.331 29.1045L 274.619 33.3018ZM 290.967 27.5234C 293.768 27.5168 296.353 27.8631 299.115 28.6152L 300.678 22.8223C 297.535 21.9807 294.167 21.5301 290.967 21.5234L 290.967 27.5234ZM 296.904 25.5192L 296.2 36.0661L 302.187 36.4652L 302.89 25.9183L 296.904 25.5192ZM 299.758 33.3192C 297.408 32.8729 294.781 32.6358 292.162 32.6328L 292.162 38.6328C 294.512 38.6298 296.574 38.8146 298.63 39.2121L 299.758 33.3192ZM 292.162 32.6328C 287.328 32.6328 283.185 34.0788 280.186 37.3228L 284.592 41.3959C 286.186 39.6712 288.559 38.6328 292.162 38.6328L 292.162 32.6328ZM 280.206 37.302C 277.215 40.4753 275.944 44.8357 275.944 49.9062L 281.944 49.9062C 281.944 45.7893 282.969 43.1184 284.572 41.4168L 280.206 37.302ZM 275.944 49.9062L 275.944 57.9219L 281.944 57.9219L 281.944 49.9062L 275.944 49.9062ZM 278.944 60.9219L 295.186 60.9219L 295.186 54.9219L 278.944 54.9219L 278.944 60.9219ZM 292.186 57.9219L 292.186 67.9766L 298.186 67.9766L 298.186 57.9219L 292.186 57.9219ZM 295.186 64.9766L 278.944 64.9766L 278.944 70.9766L 295.186 70.9766L 295.186 64.9766ZM 275.944 67.9766L 275.944 134L 281.944 134L 281.944 67.9766L 275.944 67.9766ZM 278.944 131L 265.936 131L 265.936 137L 278.944 137L 278.944 131ZM 363.558 110.023L 363.558 107.023L 360.813 107.023L 360.57 109.758L 363.558 110.023ZM 375.862 110.023L 378.858 110.184L 379.028 107.023L 375.862 107.023L 375.862 110.023ZM 360.253 131.891L 358.901 129.213L 358.89 129.218L 360.253 131.891ZM 320.878 125.07L 318.624 127.05L 318.631 127.058L 318.638 127.066L 320.878 125.07ZM 327.487 61.2969L 325.9 58.7515L 325.889 58.7582L 327.487 61.2969ZM 366.792 64.1797L 364.775 66.4004L 364.784 66.4087L 366.792 64.1797ZM 375.862 84.0781L 375.862 87.0781L 379.004 87.0781L 378.859 83.9403L 375.862 84.0781ZM 363.558 84.0781L 360.566 84.306L 360.778 87.0781L 363.558 87.0781L 363.558 84.0781ZM 357.933 71.9844L 355.858 74.151L 355.873 74.1659L 355.889 74.1806L 357.933 71.9844ZM 330.159 74.375L 327.776 72.5526L 327.774 72.5562L 330.159 74.375ZM 345.628 127.789C 350.767 127.747 355.782 126.005 359.682 122.901L 355.903 118.24C 352.865 120.761 349.77 121.831 345.628 121.789L 345.628 127.789ZM 359.682 122.901C 363.743 119.608 366.095 115.364 366.546 110.289L 360.57 109.758C 360.271 113.12 358.779 115.908 355.903 118.24L 359.682 122.901ZM 363.558 113.023L 375.862 113.023L 375.862 107.023L 363.558 107.023L 363.558 113.023ZM 372.867 109.862C 372.688 113.786 371.467 117.147 368.908 120.744L 373.817 124.193C 376.79 119.916 378.568 114.98 378.858 110.184L 372.867 109.862ZM 368.908 120.744C 366.381 124.384 363.236 127.047 358.901 129.213L 361.606 134.568C 366.552 132.047 370.813 128.429 373.817 124.193L 368.908 120.744ZM 358.89 129.218C 354.62 131.42 350.431 132.427 345.628 132.406L 345.628 138.406C 351.137 138.385 356.699 137.049 361.617 134.563L 358.89 129.218ZM 345.628 132.406C 336.008 132.406 328.616 129.244 323.118 123.074L 318.638 127.066C 325.421 134.678 334.53 138.406 345.628 138.406L 345.628 132.406ZM 323.132 123.09C 317.648 116.848 314.737 108.159 314.737 96.6641L 308.737 96.6641C 308.737 109.169 311.92 119.418 318.624 127.05L 323.132 123.09ZM 314.737 96.6641L 314.737 94.4844L 308.737 94.4844L 308.737 96.6641L 314.737 96.6641ZM 314.737 94.4844C 314.722 87.3829 315.943 81.4418 318.529 76.0061L 313.102 73.447C 310.251 79.5425 308.753 86.7733 308.737 94.4844L 314.737 94.4844ZM 318.529 76.0061C 321.047 70.6001 324.377 66.7622 329.086 63.8356L 325.889 58.7582C 320.473 62.2066 316.022 67.3217 313.102 73.447L 318.529 76.0061ZM 329.075 63.8422C 333.788 60.8629 339.007 59.4906 345.558 59.5156L 345.558 53.5156C 338.233 53.5407 331.406 55.3559 325.9 58.7516L 329.075 63.8422ZM 345.558 59.5156C 353.442 59.5156 359.771 61.855 364.775 66.4003L 368.809 61.959C 362.563 56.2857 354.736 53.5156 345.558 53.5156L 345.558 59.5156ZM 364.784 66.4087C 369.816 70.9411 372.525 76.7991 372.866 84.2159L 378.859 83.9403C 378.45 75.0447 375.112 67.637 368.8 61.9507L 364.784 66.4087ZM 375.862 81.0781L 363.558 81.0781L 363.558 87.0781L 375.862 87.0781L 375.862 81.0781ZM 366.549 83.8502C 366.085 78.3975 363.735 73.3616 359.976 69.7882L 355.889 74.1806C 358.881 76.8884 360.28 79.915 360.566 84.306L 366.549 83.8502ZM 360.008 69.8178C 356.081 66.0567 351.195 64.2031 345.558 64.2031L 345.558 70.2031C 349.764 70.2031 353.129 71.5371 355.858 74.151L 360.008 69.8178ZM 345.558 64.2031C 338.119 64.2031 332.061 66.9492 327.776 72.5526L 332.542 76.1974C 335.57 72.2383 339.777 70.2031 345.558 70.2031L 345.558 64.2031ZM 327.774 72.5562C 323.608 78.0202 321.745 85.6387 321.745 94.9766L 327.745 94.9766C 327.745 86.3144 329.492 80.1986 332.545 76.1938L 327.774 72.5562ZM 321.745 94.9766L 321.745 97.4375L 327.745 97.4375L 327.745 94.9766L 321.745 94.9766ZM 321.745 97.4375C 321.745 106.563 323.617 114.054 327.774 119.506L 332.545 115.869C 329.483 111.852 327.745 105.844 327.745 97.4375L 321.745 97.4375ZM 327.774 119.506C 332.027 125.086 338.124 127.789 345.628 127.789L 345.628 121.789C 339.726 121.789 335.51 119.758 332.545 115.869L 327.774 119.506Z"/>
<path id="path2_fill" d="M 0 0L 413 0L 413 142L 0 142L 0 0Z"/>
<path id="path3_stroke_2x" d="M 0 0L 0 -2L -2 -2L -2 0L 0 0ZM 413 0L 415 0L 415 -2L 413 -2L 413 0ZM 413 142L 413 144L 415 144L 415 142L 413 142ZM 0 142L -2 142L -2 144L 0 144L 0 142ZM 0 2L 413 2L 413 -2L 0 -2L 0 2ZM 411 0L 411 142L 415 142L 415 0L 411 0ZM 413 140L 0 140L 0 144L 413 144L 413 140ZM 2 142L 2 0L -2 0L -2 142L 2 142Z"/>
</defs>
</svg>
